<svg width="200" height="51" viewBox="0 0 200 51" fill="none" xmlns="http://www.w3.org/2000/svg">
    <path
        d="M29.1763 50.6409V0H27.0556L14.5882 23.1997L6.29798 7.77607L4.43429 8.80432L14.5882 27.634L27.1199 4.2415V50.6409H29.1763ZM2.05648 50.6409V4.37003L2.5706 5.334L4.43429 4.37003L2.05648 0H0V50.6409H2.05648V50.6409ZM75.8971 50.5123L76.0254 48.4559C69.7274 48.0275 64.7147 45.414 60.9874 40.6156C57.4313 36.1598 55.6534 30.783 55.6534 24.4851C55.6534 21.186 56.1889 18.3262 57.26 15.9057C58.3311 13.4851 59.9377 11.1395 62.0799 8.86865C66.3641 4.37009 71.7196 2.12081 78.1462 2.12081C82.0448 2.12081 85.5578 2.95626 88.6856 4.62715C91.8134 6.29804 94.3625 8.63311 96.3332 11.632L97.8755 10.411C95.7334 7.15502 92.9486 4.60562 89.5211 2.76346C86.2651 1.00691 82.5804 0.150059 78.4675 0.192924C74.9972 0.192924 71.7408 0.782042 68.6992 1.96021C65.6575 3.13839 62.9796 4.94854 60.666 7.39061C58.3525 9.87555 56.6067 12.446 55.4284 15.1024C54.2501 17.7588 53.6612 20.8863 53.6612 24.4851C53.704 31.2972 55.6534 37.1241 59.5093 41.9652C63.6222 47.1492 69.0848 49.9984 75.8969 50.5125L75.8971 50.5123ZM79.8172 50.5767C83.3303 50.3625 86.5439 49.5271 89.457 48.0704C92.7988 46.3567 95.6049 43.9359 97.8757 40.8085L96.3976 39.5231C94.3411 42.3508 91.749 44.5786 88.6215 46.2067C85.9224 47.5777 82.9662 48.3489 79.753 48.5203L79.8172 50.5767ZM122.746 6.10518C122.746 6.36224 123.507 8.81505 125.028 13.4635C126.549 18.112 128.209 23.1997 130.008 28.7265C131.808 34.2533 134.228 41.5583 137.27 50.6409H140.034L123.003 0H122.489L105.588 50.6409H108.222L122.746 6.10518ZM121.59 36.2455H119.276L123.132 50.6409H125.445L121.59 36.2455ZM162.526 35.2815C165.268 33.7392 167.368 31.5648 168.824 28.7586C170.281 25.9525 171.009 22.7714 171.009 19.2153V18.3155C171.009 13.0458 169.435 8.67579 166.286 5.20547C163.137 1.73516 158.649 0 152.822 0H148.388V20.372C149.116 20.4149 149.845 20.4363 150.573 20.4363V2.05648H152.694C157.964 2.05648 161.948 3.58811 164.647 6.65144C167.346 9.71476 168.696 13.6454 168.696 18.4441V19.151C168.696 23.9066 167.346 27.8056 164.647 30.8472C161.948 33.8889 157.964 35.4101 152.694 35.4101H150.573H148.388V37.4665C149.673 37.5094 150.53 37.5308 150.959 37.5308H152.822C155.778 37.5308 158.371 37.0809 160.598 36.1812L168.567 50.6409H171.138L162.526 35.2815ZM186.176 21.7859L191.896 27.1199C193.695 28.7908 195.109 30.5796 196.137 32.486C197.165 34.3924 197.679 36.3098 197.679 38.2377V39.0732C197.722 40.4441 197.551 41.6652 197.165 42.7363H199.543C199.886 41.5795 200.036 40.3799 199.993 39.1374V38.2377C199.993 35.9242 199.404 33.7176 198.226 31.6184C197.047 29.5192 195.409 27.4627 193.309 25.449L187.782 20.2435C186.026 18.5726 184.58 17.0087 183.445 15.5521C182.309 14.0956 181.742 12.2746 181.742 10.0896V9.70403C181.742 7.43335 182.373 5.60167 183.637 4.20936C184.901 2.81706 186.669 2.12075 188.939 2.12075C190.567 2.12075 191.895 2.36708 192.924 2.8598C193.952 3.35252 195.002 4.09157 196.073 5.07694L197.551 3.40605C196.351 2.29214 195.119 1.4567 193.856 0.899712C192.592 0.342726 190.953 0.0642665 188.939 0.0642665C186.326 0.0642665 184.109 0.910445 182.288 2.60274C180.467 4.29503 179.557 6.64083 179.557 9.63976V10.1539C179.557 12.596 180.167 14.6846 181.388 16.4197C182.609 18.1549 184.205 19.9437 186.176 21.7859H186.176ZM198.643 45.1783H196.008C194.509 47.3634 192.11 48.4774 188.811 48.5201C187.697 48.5201 186.69 48.3916 185.79 48.1345V50.3838C186.69 50.5552 187.697 50.6409 188.811 50.6409C191.124 50.6409 193.116 50.1696 194.787 49.227C196.458 48.2845 197.744 46.9349 198.643 45.1783H198.643Z"
        fill="#5267DF" />
</svg>
