<svg width="183" height="34" viewBox="0 0 183 34" fill="none" xmlns="http://www.w3.org/2000/svg">
<path d="M71.162 21.7704C71.162 19.7169 71.9778 17.7474 73.4299 16.2953C74.882 14.8432 76.8514 14.0274 78.905 14.0274C80.9586 14.0274 82.928 14.8432 84.3801 16.2953C85.8322 17.7474 86.648 19.7169 86.648 21.7704C86.648 23.824 85.8322 25.7935 84.3801 27.2456C82.928 28.6977 80.9586 29.5134 78.905 29.5134C76.8514 29.5134 74.882 28.6977 73.4299 27.2456C71.9778 25.7935 71.162 23.824 71.162 21.7704V21.7704ZM74.006 21.7704C74.0061 22.4138 74.133 23.0508 74.3793 23.6451C74.6256 24.2395 74.9866 24.7794 75.4416 25.2343C75.8966 25.6891 76.4367 26.0498 77.0312 26.2959C77.6256 26.542 78.2627 26.6686 78.906 26.6684C79.5493 26.6683 80.1864 26.5415 80.7807 26.2951C81.375 26.0488 81.915 25.6879 82.3698 25.2328C82.8246 24.7778 83.1854 24.2377 83.4315 23.6433C83.6775 23.0489 83.8041 22.4118 83.804 21.7684C83.8037 20.4691 83.2873 19.2232 82.3684 18.3046C81.4495 17.3861 80.2033 16.8702 78.904 16.8704C77.6047 16.8707 76.3587 17.3871 75.4402 18.306C74.5216 19.225 74.0057 20.4711 74.006 21.7704V21.7704ZM83.674 21.7704C83.6782 22.9819 83.2212 24.1496 82.3958 25.0364C81.5704 25.9232 80.4384 26.4626 79.2297 26.5451C78.021 26.6275 76.8263 26.2469 75.888 25.4805C74.9498 24.7141 74.3384 23.6193 74.178 22.4184C74.588 24.5924 76.539 26.2364 78.885 26.2364C81.46 26.2364 83.559 24.2554 83.669 21.7704H83.674ZM82.826 19.9244C83.1351 20.582 83.274 21.3067 83.2298 22.0319C83.1856 22.7571 82.9598 23.4596 82.5731 24.0748C82.1865 24.6899 81.6514 25.198 81.017 25.5522C80.3826 25.9065 79.6694 26.0956 78.9429 26.1021C78.2163 26.1087 77.4998 25.9325 76.8592 25.5897C76.2185 25.2469 75.6743 24.7486 75.2766 24.1405C74.879 23.5325 74.6405 22.8342 74.5833 22.1098C74.526 21.3855 74.6518 20.6584 74.949 19.9954C75.2521 19.2007 75.7877 18.5157 76.486 18.03C77.1842 17.5443 78.0127 17.2804 78.8633 17.2727C79.7138 17.2651 80.5469 17.514 81.2539 17.987C81.9608 18.4601 82.5087 19.1353 82.826 19.9244V19.9244ZM78.905 17.5444C78.3502 17.5446 77.8008 17.654 77.2882 17.8664C76.7757 18.0789 76.31 18.3902 75.9178 18.7826C75.5255 19.175 75.2144 19.6409 75.0022 20.1535C74.79 20.6662 74.6809 21.2156 74.681 21.7704C74.6811 22.3253 74.7905 22.8747 75.003 23.3872C75.2154 23.8998 75.5268 24.3654 75.9192 24.7577C76.3116 25.1499 76.7774 25.461 77.2901 25.6732C77.8027 25.8854 78.3522 25.9946 78.907 25.9944C80.0275 25.9942 81.1021 25.5488 81.8942 24.7563C82.6864 23.9637 83.1313 22.889 83.131 21.7684C83.1307 20.6479 82.6854 19.5734 81.8928 18.7812C81.1003 17.9891 80.0255 17.5442 78.905 17.5444V17.5444ZM76.639 22.0684L77.589 22.2204C77.6902 22.5313 77.9008 22.7949 78.1816 22.9622C78.4624 23.1296 78.7944 23.1894 79.116 23.1304L79.692 23.8934C79.736 23.9684 79.815 24.0024 79.873 23.9694L80.195 23.7894C80.255 23.7564 80.267 23.6724 80.228 23.5974L79.884 22.7014C80.1023 22.4576 80.2249 22.143 80.2291 21.8158C80.2334 21.4885 80.1189 21.1708 79.907 20.9214L80.28 20.0404C80.325 19.9674 80.312 19.8814 80.256 19.8464L79.941 19.6584C79.883 19.6244 79.799 19.6544 79.757 19.7264L79.152 20.4704C78.8316 20.404 78.498 20.4556 78.2127 20.6156C77.9273 20.7757 77.7094 21.0334 77.599 21.3414L76.649 21.4584C76.564 21.4574 76.495 21.5094 76.495 21.5754L76.488 21.9454C76.488 22.0124 76.554 22.0674 76.639 22.0684V22.0684ZM81.366 21.8594C81.3496 22.3219 81.2042 22.7705 80.946 23.1544L81.767 23.7114C82.127 23.1794 82.336 22.5524 82.36 21.8964L81.366 21.8594V21.8594ZM78.3 18.7674L78.633 19.4774C78.678 19.5854 78.703 19.6334 78.787 19.6334H79.02C79.105 19.6334 79.129 19.5854 79.174 19.4774L79.505 18.7674C79.5051 18.7471 79.5012 18.727 79.4934 18.7083C79.4857 18.6895 79.4742 18.6725 79.4598 18.6582C79.4453 18.644 79.4282 18.6327 79.4093 18.6252C79.3905 18.6177 79.3703 18.614 79.35 18.6144H78.455C78.4347 18.6142 78.4146 18.6179 78.3958 18.6255C78.377 18.6331 78.3599 18.6443 78.3455 18.6585C78.3311 18.6728 78.3196 18.6897 78.3118 18.7084C78.304 18.7271 78.3 18.7472 78.3 18.7674V18.7674ZM75.864 21.4144L76.486 21.3394C76.5338 21.3164 76.586 21.3038 76.639 21.3024L76.794 21.2834C76.815 21.2694 76.826 21.2494 76.836 21.2194L76.908 20.9984C76.935 20.9174 76.896 20.8794 76.809 20.8034L76.235 20.2684C76.1957 20.2558 76.1531 20.2593 76.1164 20.278C76.0796 20.2967 76.0518 20.3293 76.039 20.3684L75.764 21.2204C75.7574 21.2397 75.7547 21.2602 75.7562 21.2805C75.7576 21.3008 75.7632 21.3207 75.7726 21.3388C75.7819 21.3569 75.7948 21.373 75.8105 21.386C75.8262 21.399 75.8444 21.4087 75.864 21.4144V21.4144ZM77.628 24.5524L77.776 23.7834C77.803 23.6694 77.812 23.6164 77.742 23.5654L77.554 23.4284C77.486 23.3774 77.439 23.4034 77.337 23.4634L76.651 23.8434C76.6272 23.8769 76.6174 23.9183 76.6237 23.9589C76.6301 23.9994 76.6521 24.0359 76.685 24.0604L77.41 24.5864C77.4265 24.5988 77.4452 24.6077 77.4652 24.6127C77.4851 24.6177 77.5059 24.6186 77.5262 24.6154C77.5465 24.6123 77.566 24.6051 77.5835 24.5942C77.6009 24.5834 77.6161 24.5692 77.628 24.5524V24.5524ZM81.158 23.8444L80.471 23.4644C80.405 23.4254 80.363 23.4014 80.32 23.4024L80.371 23.5344C80.475 23.7424 80.302 23.9604 80.086 24.0634L80.183 24.5514C80.1948 24.5681 80.2099 24.5823 80.2272 24.5931C80.2446 24.604 80.264 24.6112 80.2842 24.6145C80.3044 24.6177 80.325 24.6169 80.3449 24.6121C80.3648 24.6073 80.3835 24.5986 80.4 24.5864L81.124 24.0604C81.1566 24.0359 81.1784 23.9997 81.1848 23.9593C81.1911 23.919 81.1815 23.8778 81.158 23.8444V23.8444ZM81.574 20.2684L81 20.8034C80.911 20.8794 80.874 20.9174 80.9 20.9984L80.973 21.2194C80.997 21.3014 81.053 21.3104 81.168 21.3204L81.946 21.4154C81.9654 21.4093 81.9835 21.3994 81.9991 21.3862C82.0146 21.3731 82.0274 21.357 82.0367 21.3388C82.046 21.3207 82.0517 21.3009 82.0532 21.2806C82.0548 21.2602 82.0524 21.2398 82.046 21.2204L81.769 20.3694C81.7631 20.3498 81.7533 20.3316 81.7402 20.3158C81.7272 20.3001 81.711 20.2871 81.6929 20.2777C81.6747 20.2683 81.6548 20.2626 81.6344 20.261C81.614 20.2594 81.5934 20.2619 81.574 20.2684V20.2684ZM79.747 19.4584L79.815 19.4854C79.898 19.4644 80.007 19.4914 80.164 19.5734C80.387 19.6804 80.476 19.7784 80.484 19.8854C80.619 19.9974 80.74 20.1224 80.847 20.2594L81.63 19.6494C81.2309 19.1372 80.6954 18.7479 80.085 18.5264L79.747 19.4584V19.4584ZM76.961 20.2584C77.2477 19.8946 77.6299 19.6176 78.065 19.4584L77.727 18.5244C77.1164 18.7462 76.5802 19.1345 76.179 19.6454L76.961 20.2584V20.2584ZM76.862 23.1524C76.6646 22.8597 76.5326 22.5278 76.475 22.1794C76.4318 22.1572 76.3956 22.1233 76.3705 22.0816C76.3454 22.0399 76.3324 21.9921 76.333 21.9434L76.332 21.8614L75.448 21.8924C75.471 22.5324 75.671 23.1644 76.038 23.7084L76.862 23.1524V23.1524ZM79.583 24.1434C79.1389 24.2708 78.6678 24.2701 78.224 24.1414L77.948 25.0964C78.5718 25.2766 79.2338 25.2773 79.858 25.0984L79.583 24.1434ZM75.23 21.7704C75.23 21.4124 75.282 21.0674 75.376 20.7394L75.582 20.7754C75.69 20.7964 75.741 20.8044 75.749 20.7794L75.771 20.7104C75.779 20.6854 75.734 20.6634 75.633 20.6154L75.445 20.5244C75.6955 19.8314 76.1484 19.2296 76.745 18.797C77.3416 18.3645 78.0544 18.1211 78.791 18.0984L78.823 18.3024C78.836 18.4134 78.844 18.4624 78.871 18.4624H78.943C78.969 18.4624 78.975 18.4134 78.991 18.3024L79.021 18.0984C79.7577 18.1219 80.4703 18.3664 81.0663 18.8001C81.6623 19.2338 82.1141 19.8367 82.363 20.5304L82.176 20.6204C82.073 20.6684 82.03 20.6914 82.037 20.7174L82.06 20.7864C82.068 20.8124 82.119 20.8044 82.227 20.7824L82.43 20.7474C82.636 21.4549 82.6239 22.2081 82.3954 22.9086C82.1669 23.6091 81.7325 24.2245 81.149 24.6744L81.005 24.5274C80.929 24.4454 80.894 24.4114 80.871 24.4254L80.813 24.4684C80.791 24.4844 80.814 24.5294 80.868 24.6274L80.965 24.8104C80.3563 25.2234 79.6376 25.4439 78.902 25.4434C78.164 25.445 77.4427 25.2233 76.833 24.8074L76.931 24.6234C76.985 24.5244 77.007 24.4794 76.985 24.4654L76.927 24.4224C76.906 24.4054 76.869 24.4414 76.792 24.5234L76.648 24.6694C76.2061 24.3264 75.8486 23.8869 75.6028 23.3844C75.3571 22.8819 75.2295 22.3298 75.23 21.7704V21.7704ZM78.52 21.0624C78.6144 21.0123 78.7178 20.9812 78.8242 20.971C78.9307 20.9608 79.0381 20.9716 79.1403 21.0029C79.2425 21.0342 79.3376 21.0853 79.4201 21.1534C79.5026 21.2214 79.5708 21.305 79.621 21.3994C79.6712 21.4939 79.7022 21.5972 79.7125 21.7037C79.7227 21.8101 79.7118 21.9175 79.6805 22.0197C79.6492 22.122 79.5981 22.217 79.5301 22.2995C79.462 22.382 79.3784 22.4503 79.284 22.5004C79.0933 22.6018 78.8702 22.6232 78.6637 22.56C78.4572 22.4968 78.2843 22.3541 78.183 22.1634C78.0817 21.9727 78.0603 21.7496 78.1235 21.5431C78.1867 21.3367 78.3293 21.1638 78.52 21.0624ZM12.115 21.7704C12.0985 20.7433 12.2865 19.7231 12.6682 18.7693C13.0499 17.8156 13.6175 16.9473 14.3381 16.215C15.0586 15.4828 15.9177 14.9013 16.8652 14.5044C17.8127 14.1074 18.8297 13.903 19.857 13.903C20.8843 13.903 21.9013 14.1074 22.8488 14.5044C23.7963 14.9013 24.6554 15.4828 25.3759 16.215C26.0965 16.9473 26.6641 17.8156 27.0458 18.7693C27.4275 19.7231 27.6155 20.7433 27.599 21.7704C27.5663 23.8022 26.7363 25.7397 25.288 27.1649C23.8396 28.5902 21.889 29.389 19.857 29.389C17.825 29.389 15.8744 28.5902 14.426 27.1649C12.9777 25.7397 12.1477 23.8022 12.115 21.7704V21.7704ZM15.069 21.7704C15.0689 22.4136 15.1955 23.0506 15.4416 23.6448C15.6877 24.2391 16.0485 24.779 16.5034 25.2338C16.9582 25.6886 17.4982 26.0492 18.0925 26.2952C18.6868 26.5412 19.3238 26.6677 19.967 26.6674C20.9358 26.6674 21.8828 26.3802 22.6883 25.8419C23.4938 25.3037 24.1216 24.5386 24.4923 23.6436C24.8629 22.7485 24.9599 21.7637 24.7708 20.8135C24.5817 19.8634 24.1152 18.9906 23.4301 18.3057C22.745 17.6207 21.8721 17.1543 20.9219 16.9654C19.9718 16.7766 18.9869 16.8737 18.0919 17.2446C17.1969 17.6154 16.4321 18.2434 15.894 19.049C15.3559 19.8546 15.0688 20.8017 15.069 21.7704V21.7704ZM24.737 21.7704C24.7393 22.9806 24.2815 24.1464 23.4562 25.0316C22.631 25.9167 21.5001 26.4551 20.2927 26.5375C19.0853 26.6199 17.8918 26.2402 16.954 25.4753C16.0161 24.7105 15.4041 23.6177 15.242 22.4184C15.652 24.5924 17.604 26.2364 19.95 26.2364C22.524 26.2364 24.623 24.2554 24.732 21.7704H24.737ZM16.013 19.9944C16.3164 19.2003 16.8521 18.516 17.5501 18.0308C18.2482 17.5456 19.0762 17.2819 19.9263 17.2743C20.7764 17.2666 21.6091 17.5153 22.3157 17.9878C23.0224 18.4604 23.5703 19.1349 23.888 19.9234C24.1976 20.581 24.3368 21.3058 24.2929 22.0313C24.249 22.7567 24.0234 23.4595 23.6368 24.0749C23.2502 24.6903 22.715 25.1987 22.0806 25.5531C21.4461 25.9076 20.7326 26.0968 20.0059 26.1033C19.2791 26.1099 18.5624 25.9336 17.9217 25.5906C17.2809 25.2476 16.7367 24.7491 16.339 24.1407C15.9414 23.5324 15.7031 22.8338 15.6462 22.1092C15.5892 21.3847 15.7153 20.6575 16.013 19.9944V19.9944ZM19.967 17.5444C18.8465 17.5444 17.7718 17.9896 16.9795 18.7819C16.1871 19.5743 15.742 20.6489 15.742 21.7694C15.742 22.89 16.1871 23.9646 16.9795 24.757C17.7718 25.5493 18.8465 25.9944 19.967 25.9944C22.3 25.9944 24.19 24.1034 24.19 21.7704C24.19 19.4374 22.301 17.5444 19.967 17.5444V17.5444ZM16.294 21.7704C16.294 21.4124 16.345 21.0674 16.44 20.7394L16.645 20.7754C16.755 20.7964 16.805 20.8044 16.813 20.7794L16.835 20.7104C16.843 20.6854 16.799 20.6634 16.698 20.6154L16.512 20.5244C16.7621 19.8312 17.215 19.2291 17.8117 18.7965C18.4083 18.3639 19.1213 18.1207 19.858 18.0984L19.888 18.3024C19.902 18.4134 19.91 18.4624 19.935 18.4624H20.009C20.035 18.4624 20.042 18.4134 20.057 18.3024L20.087 18.0984C20.8236 18.1218 21.5361 18.3663 22.132 18.8C22.7278 19.2337 23.1794 19.8367 23.428 20.5304L23.241 20.6204C23.14 20.6684 23.095 20.6914 23.104 20.7174L23.126 20.7864C23.134 20.8124 23.184 20.8044 23.293 20.7824L23.499 20.7474C23.7046 21.455 23.6923 22.2082 23.4636 22.9086C23.2349 23.6091 22.8005 24.2245 22.217 24.6744L22.073 24.5274C21.997 24.4454 21.962 24.4114 21.94 24.4254L21.881 24.4684C21.859 24.4844 21.882 24.5294 21.936 24.6274L22.033 24.8104C21.4242 25.2239 20.7049 25.4445 19.969 25.4434C19.2313 25.445 18.5104 25.2233 17.901 24.8074L17.998 24.6234C18.051 24.5244 18.074 24.4794 18.052 24.4654L17.994 24.4224C17.971 24.4054 17.936 24.4414 17.86 24.5234L17.717 24.6694C17.2735 24.3276 16.9145 23.8884 16.6677 23.3857C16.421 22.8831 16.2931 22.3304 16.294 21.7704V21.7704ZM20.647 24.1434C20.2022 24.2708 19.7305 24.2701 19.286 24.1414L19.011 25.0964C19.629 25.2744 20.291 25.2794 20.922 25.0984L20.647 24.1434V24.1434ZM17.926 23.1524C17.6663 22.7692 17.5207 22.3201 17.506 21.8574L16.514 21.8924C16.5355 22.5408 16.739 23.1701 17.101 23.7084L17.926 23.1524V23.1524ZM18.026 20.2584C18.128 20.1284 18.241 20.0104 18.363 19.9044C18.378 19.7984 18.46 19.6984 18.641 19.6014C18.825 19.4954 18.944 19.4634 19.037 19.4934L19.129 19.4584L18.791 18.5244C18.1801 18.7461 17.6435 19.1345 17.242 19.6454L18.026 20.2584V20.2584ZM20.811 19.4584C21.249 19.6194 21.63 19.8994 21.911 20.2604L22.695 19.6504C22.299 19.1444 21.765 18.7504 21.15 18.5274L20.811 19.4584ZM22.637 20.2684L22.064 20.8034C21.975 20.8794 21.938 20.9174 21.963 20.9984L22.036 21.2194C22.044 21.2474 22.056 21.2664 22.072 21.2804L22.207 21.2974C22.2544 21.2984 22.3008 21.3111 22.342 21.3344L23.009 21.4154C23.0481 21.4028 23.0807 21.3752 23.0996 21.3387C23.1185 21.3022 23.1223 21.2597 23.11 21.2204L22.833 20.3694C22.8269 20.3499 22.8169 20.3317 22.8037 20.316C22.7905 20.3003 22.7743 20.2874 22.7561 20.278C22.7379 20.2686 22.7179 20.2629 22.6975 20.2613C22.6771 20.2596 22.6565 20.2621 22.637 20.2684ZM22.22 23.8444L21.534 23.4644C21.433 23.4034 21.387 23.3784 21.317 23.4294L21.129 23.5664C21.059 23.6174 21.067 23.6714 21.094 23.7844L21.243 24.5534C21.2548 24.5701 21.2699 24.5843 21.2872 24.5951C21.3046 24.606 21.324 24.6132 21.3442 24.6165C21.3644 24.6197 21.385 24.6189 21.4049 24.6141C21.4248 24.6093 21.4435 24.6006 21.46 24.5884L22.185 24.0624C22.2016 24.0504 22.2157 24.0353 22.2265 24.0178C22.2372 24.0004 22.2444 23.9809 22.2477 23.9607C22.251 23.9404 22.2502 23.9198 22.2454 23.8998C22.2407 23.8799 22.232 23.861 22.22 23.8444V23.8444ZM18.691 24.5524L18.789 24.0534C18.585 23.9504 18.348 23.8184 18.486 23.5434L18.539 23.4024C18.4891 23.4122 18.4422 23.4334 18.402 23.4644L17.717 23.8444C17.7049 23.8608 17.6961 23.8795 17.6912 23.8993C17.6863 23.9191 17.6854 23.9396 17.6885 23.9598C17.6915 23.9799 17.6986 23.9993 17.7091 24.0167C17.7197 24.0342 17.7336 24.0494 17.75 24.0614L18.475 24.5874C18.4914 24.5995 18.51 24.6083 18.5299 24.6131C18.5497 24.6179 18.5702 24.6187 18.5904 24.6154C18.6105 24.6121 18.6298 24.6049 18.647 24.5941C18.6643 24.5833 18.6793 24.5691 18.691 24.5524ZM16.926 21.4144L17.704 21.3194C17.821 21.3094 17.874 21.3004 17.901 21.2184L17.972 20.9974C17.998 20.9164 17.959 20.8784 17.872 20.8024L17.298 20.2674C17.2587 20.2551 17.2162 20.2587 17.1796 20.2774C17.1429 20.2961 17.115 20.3284 17.102 20.3674L16.826 21.2194C16.8195 21.2388 16.8169 21.2593 16.8184 21.2796C16.82 21.3 16.8256 21.3199 16.8349 21.338C16.8442 21.3562 16.8571 21.3723 16.8727 21.3855C16.8884 21.3986 16.9065 21.4084 16.926 21.4144V21.4144ZM19.364 18.7674L19.697 19.4774C19.743 19.5854 19.765 19.6334 19.852 19.6334H20.084C20.168 19.6334 20.193 19.5854 20.238 19.4774L20.57 18.7674C20.57 18.7472 20.566 18.7271 20.5582 18.7084C20.5504 18.6897 20.5389 18.6728 20.5245 18.6585C20.5101 18.6443 20.493 18.6331 20.4742 18.6255C20.4554 18.6179 20.4353 18.6142 20.415 18.6144H19.52C19.4997 18.6142 19.4795 18.6179 19.4607 18.6255C19.4418 18.633 19.4247 18.6443 19.4102 18.6585C19.3957 18.6727 19.3841 18.6896 19.3762 18.7083C19.3683 18.727 19.3641 18.7471 19.364 18.7674V18.7674ZM22.405 22.1394C22.3494 22.5031 22.2142 22.85 22.009 23.1554L22.832 23.7124C23.1957 23.175 23.4005 22.546 23.423 21.8974L22.533 21.8654C22.5207 21.9681 22.4758 22.0641 22.405 22.1394V22.1394ZM19.161 23.9034L19.741 23.1354C20.05 23.1894 20.378 23.1354 20.668 22.9614C20.962 22.7854 21.165 22.5164 21.26 22.2134L22.207 22.0624C22.291 22.0624 22.358 22.0054 22.357 21.9384L22.351 21.5694C22.349 21.5044 22.279 21.4504 22.196 21.4524L21.242 21.3344C21.1293 21.0275 20.9094 20.7718 20.6228 20.6143C20.3363 20.4568 20.0025 20.4082 19.683 20.4774L19.079 19.7354C19.035 19.6624 18.954 19.6314 18.897 19.6664L18.581 19.8564C18.522 19.8914 18.512 19.9764 18.555 20.0494L18.929 20.9354C18.72 21.1862 18.6087 21.5042 18.6157 21.8305C18.6227 22.1569 18.7475 22.4698 18.967 22.7114L18.625 23.6074C18.584 23.6814 18.598 23.7664 18.657 23.8004L18.981 23.9794C19.04 24.0124 19.119 23.9774 19.161 23.9034V23.9034ZM19.154 21.7704C19.1537 21.5548 19.2391 21.3479 19.3914 21.1953C19.5437 21.0426 19.7504 20.9567 19.966 20.9564C20.1816 20.9562 20.3885 21.0416 20.5412 21.1939C20.6938 21.3461 20.7797 21.5528 20.78 21.7684C20.7801 21.8752 20.7592 21.9809 20.7185 22.0796C20.6778 22.1783 20.618 22.268 20.5426 22.3436C20.3903 22.4963 20.1836 22.5822 19.968 22.5824C19.7524 22.5827 19.5455 22.4973 19.3928 22.345C19.2402 22.1927 19.1543 21.9861 19.154 21.7704V21.7704ZM1.317 21.1924C0.736 20.5924 0.326 19.9824 0.13 19.4084L0.215 19.4184C0.593 19.4564 0.962 19.4774 1.296 19.5324C1.40711 20.0627 1.61455 20.568 1.908 21.0234C2.193 21.0464 2.555 21.0624 3.019 21.0664C3.03132 21.0991 3.04167 21.1325 3.05 21.1664C3.05 21.1664 3.09 21.2764 2.982 21.2764C2.182 21.2734 1.668 21.2394 1.317 21.1924V21.1924ZM95.037 12.3394C95.57 12.3154 96.09 12.3054 96.411 12.3304C97.363 12.4024 97.932 12.4044 98.168 12.6964C98.0919 12.6821 98.0138 12.6828 97.938 12.6984C97.553 12.7594 97.254 12.8584 96.849 12.7624L95.037 12.3394ZM54.732 25.3924C55.241 25.3834 58.263 25.4854 59.623 25.5794C60.158 25.6174 60.795 25.8414 60.795 25.8414C60.795 25.8414 61.145 25.9814 61.486 25.5144C62.266 24.4404 62.503 24.0524 62.912 23.1814C63.217 22.5344 63.303 22.2964 62.931 22.2434C62.56 22.1924 62.637 22.2194 62.637 22.2194L60.537 25.0904L54.732 25.3924ZM70.003 21.8524L69.872 26.1674H61.042L60.275 25.9204H57.56C57.56 25.9204 29.914 26.1674 29.586 26.1674C29.257 26.1674 29.144 26.0024 29.144 26.0024V22.3384C34.027 22.2824 65.927 21.9014 70.003 21.8524ZM62.962 12.9024C62.891 13.0944 62.796 13.3314 62.672 13.6214C62.145 14.8684 60.878 17.8284 58.362 21.8354L35.987 22.1044C35.97 21.2824 35.856 14.6834 36.489 13.0154L36.498 12.9944C45.025 13.4584 62.701 12.9094 62.701 12.9094L62.962 12.9024V12.9024ZM68.533 21.7144L58.548 21.8334C61.034 17.8604 62.29 14.9234 62.818 13.6834C62.953 13.3654 63.055 13.1054 63.133 12.8914C63.262 12.8674 63.76 12.7774 65.689 12.4824C66.1693 12.4083 66.6504 12.3386 67.132 12.2734C67.178 14.9654 67.782 18.4404 68.533 21.7144V21.7144ZM67.144 11.1754L67.138 11.3954C66.705 11.4784 66.3 11.5594 65.921 11.6364C65.0774 11.811 64.2257 11.9435 63.369 12.0334L63.372 12.0144C63.378 12.0004 63.429 11.9124 63.502 11.7754C64.7208 11.6057 65.9352 11.4057 67.144 11.1754V11.1754ZM38.064 11.8184C37.7066 11.827 37.3575 11.9283 37.051 12.1124C32.028 11.8144 25.902 11.4314 22.213 11.4814C16.73 11.5534 12.238 13.2244 9.574 14.3914C6.907 15.5574 5.978 16.1814 6.922 15.9274C7.86182 15.6804 8.77987 15.357 9.667 14.9604C10.831 14.4434 12.736 13.5014 16.093 12.9454C24.203 11.6044 27.5 12.3844 35.624 12.9394C35.853 12.9564 36.089 12.9704 36.334 12.9844C35.994 13.9144 35.871 16.2084 35.83 18.2584C35.794 20.0724 35.823 21.7164 35.831 22.1044L29.143 22.1824C28.528 17.5904 25.103 13.8244 19.905 13.7964C14.272 13.7674 11.431 17.0704 11.421 21.4684C11.364 22.9434 11.25 24.0704 10.847 25.0434C10.731 25.3174 10.594 25.2704 10.594 25.2704C7.251 25.0104 4.039 23.5414 2.045 21.8684C2.333 21.8894 2.651 21.9004 2.986 21.8974C4.336 21.8874 3.509 20.4624 2.851 19.6544C2.191 18.8454 1.038 18.8854 0.353 18.7884C0.227 18.7684 0.109 18.7534 0 18.7344V18.6834C0 18.1764 1.847 16.7374 6.349 15.1494C6.219 15.2134 6.103 15.2784 6.009 15.3404C5.331 15.7944 5.188 15.9924 5.188 15.9924C5.188 15.9924 3.575 16.7284 2.91 17.0524C2.244 17.3784 1.82 17.9044 1.848 18.0024C1.876 18.1024 1.833 18.1444 2.782 17.6054C3.494 17.2024 6.914 15.3444 9.366 14.0164C12.71 12.2814 16.973 11.0944 24.321 11.0274C30.759 10.9704 33.955 11.3504 33.955 11.3504C33.955 11.3504 34.354 11.6074 35.426 11.6924C36.214 11.7554 37.139 11.7934 38.064 11.8184V11.8184ZM19.833 13.4394C24.755 13.4644 28.085 16.8414 28.949 21.0984C28.085 16.8364 24.807 12.9684 19.887 12.9424C14.502 12.9144 11.613 16.3984 11.368 20.5304C11.611 16.4274 14.45 13.4094 19.833 13.4394ZM61.504 10.2704L63.112 10.2954L62.179 9.58344C61.991 9.79144 61.791 9.99744 61.579 10.2004L61.504 10.2704V10.2704ZM78.677 13.3044C84.61 13.3044 87.369 15.9124 87.768 19.1394C87.37 15.9124 84.673 12.9434 78.741 12.9434C73.366 12.9434 70.399 16.0664 70.095 18.8554C70.397 16.0894 73.304 13.3044 78.677 13.3044V13.3044ZM65.561 5.77744L65.715 5.24744C65.715 5.24744 59.58 4.74844 56.698 4.78344L57.087 4.80044C60.622 4.97644 64.6 5.51844 64.6 5.51844L65.465 5.63044L65.43 5.75044C65.23 5.72644 64.77 5.67344 63.768 5.56644C62.543 5.41344 59.741 5.08844 57.08 4.95744C54.126 4.80944 52.401 4.95744 52.401 4.95744C52.401 4.95744 50.225 6.45844 48.319 7.99344C46.634 9.35144 43.624 11.9244 43.624 11.9244C43.624 11.9244 54.685 11.8414 55.583 11.8414C59.15 11.8414 60.049 11.4404 61.474 10.0874C63.239 8.40944 64.103 6.40744 64.33 5.81944L64.482 5.83944C64.599 5.85344 64.728 5.86844 64.868 5.88244L64.782 6.16144L64.455 5.91044C64.384 6.08944 64.287 6.31844 64.169 6.57344L64.649 6.58144L64.523 6.97544L64.122 6.66944C64.0382 6.84767 63.9491 7.02341 63.855 7.19644L63.82 7.26044L64.425 7.27044L64.267 7.73844L63.765 7.35644C63.652 7.55944 63.523 7.77444 63.38 7.99644L64.171 8.00944C64.102 8.20444 64.031 8.39644 63.961 8.58344L63.319 8.09244C63.177 8.30844 63.024 8.53044 62.857 8.75344L63.889 8.77044C63.791 9.01844 63.697 9.25644 63.602 9.47644L62.785 8.85144C62.623 9.06244 62.45 9.27644 62.264 9.48744L63.586 9.50844C63.4817 9.75102 63.3649 9.988 63.236 10.2184C63.001 10.6354 62.776 10.9634 62.517 11.2194L62.328 11.0754C62.328 10.9084 62.206 10.7844 62.051 10.7844C62.0215 10.7848 61.9923 10.7891 61.964 10.7974L61.399 10.3664C60.503 11.1884 59.765 11.6334 58.396 11.8434L58.448 11.8424C60.177 11.8234 61.284 11.7834 62.032 11.6824C62.146 11.6174 62.26 11.5444 62.372 11.4624C62.761 11.1774 63.057 10.7804 63.373 10.2184C63.922 9.24744 64.573 7.28444 64.998 5.89744L65.373 5.93544C65.025 7.08844 64.33 9.37744 64 10.3224L63.492 10.3254C63.2367 10.7778 62.9113 11.1869 62.528 11.5374C62.204 11.8384 61.842 11.8844 61.521 12.0004C61.8767 11.982 62.2314 11.9477 62.584 11.8974C62.809 11.8694 63.054 11.8364 63.314 11.8024C63.247 11.9284 63.196 12.0194 63.177 12.0544C61.504 12.2194 60.452 12.1604 60.452 12.1604C60.452 12.1604 45.436 12.5784 40.107 12.2884C39.1509 12.2358 38.1949 12.1808 37.239 12.1234C37.6044 11.9219 38.0169 11.8214 38.434 11.8324C38.4027 11.8286 38.3714 11.8252 38.34 11.8224C40.585 11.8744 42.728 11.8394 42.728 11.8394C42.728 11.8394 44.896 10.0264 47.208 8.25644C49.52 6.48644 51.539 5.08744 51.539 5.08744C51.539 5.08744 51.742 4.93844 51.707 4.85444C51.681 4.78644 51.248 4.56844 50.076 4.47444C51.262 4.16844 53.916 3.76544 59.038 4.17144C62.103 4.41544 64.185 4.63244 65.581 4.80344C65.727 4.91744 65.861 5.04244 65.962 5.18144C65.9781 5.20401 65.9924 5.22774 66.005 5.25244L66.141 5.27544C66.074 5.13044 65.912 4.96644 65.742 4.82444C67.672 5.06544 68.198 5.21444 68.198 5.21444L68.327 5.34444C69.053 5.38644 70.567 5.48244 71.142 5.57044C71.33 5.59844 71.68 5.68644 72.123 6.25044C72.816 6.30344 73.568 6.36944 73.931 6.42444C74.108 6.45244 74.428 6.53144 74.833 7.00944C75.56 7.06544 76.376 7.13544 76.758 7.19344C76.931 7.21944 77.24 7.29644 77.634 7.74644C78.337 7.80044 79.11 7.86744 79.475 7.92344C79.656 7.95144 79.981 8.03044 80.394 8.52644L80.421 8.53344C81.085 8.58644 81.787 8.64744 82.132 8.70044C82.304 8.72644 82.61 8.80244 82.999 9.24344C83.711 9.29744 84.5 9.36544 84.874 9.42244C85.059 9.45144 85.399 9.53544 85.833 10.0744C90.2 11.3034 92.993 11.9434 96.827 12.8394C97.557 13.0104 98.144 12.5784 98.253 12.8674C98.296 12.9744 98.258 13.6974 98.053 14.7264C98.22 14.7314 98.332 14.8694 98.307 15.0374L98.062 16.6184C98.0467 16.7037 98.0026 16.7811 97.9371 16.8377C97.8715 16.8943 97.7886 16.9267 97.702 16.9294H97.451C97.082 17.9844 96.558 19.1164 95.833 20.1564C95.2021 21.051 94.4201 21.8286 93.522 22.4544H96.295C96.466 22.4544 96.552 22.5944 96.484 22.7644L96.255 23.3524C96.2184 23.439 96.1586 23.5137 96.0822 23.5684C96.0058 23.6231 95.9157 23.6557 95.822 23.6624H91.112C90.388 23.9054 89.618 24.0624 88.808 24.1204C88.015 24.1774 88.159 23.9784 88.159 23.9784L87.764 19.5344C87.366 16.3074 84.606 13.6974 78.673 13.6974C73.117 13.6974 70.198 16.6764 70.068 19.5334L70.004 21.7004L68.691 21.7164C67.933 18.4304 67.327 14.9424 67.286 12.2564C67.928 12.1734 67.747 12.2194 68.126 12.1324C68.681 12.0034 73.329 11.6144 78.562 11.4854C83.794 11.3574 92.459 12.7924 93.82 12.8564C95.181 12.9204 93.706 12.3894 90.749 11.6404C87.795 10.8914 85.996 10.6754 79.948 10.3614C75.075 10.1084 70.498 10.7664 67.294 11.3704L67.299 11.1484C68.3023 10.9551 69.301 10.7381 70.294 10.4974C71.847 10.1184 68.648 10.2434 67.539 10.2764L67.326 10.2814C67.406 7.99944 67.541 5.49344 67.541 5.49344L67.372 5.47344C67.372 5.47344 67.247 7.99544 67.17 10.2854C66.414 10.3014 65.174 10.3134 64.164 10.3234C64.52 9.28044 65.241 6.85344 65.561 5.77744V5.77744ZM61.883 11.0614C61.8827 11.0389 61.8869 11.0166 61.8954 10.9958C61.9038 10.9749 61.9163 10.9559 61.9321 10.9399C61.9479 10.9239 61.9667 10.9112 61.9875 10.9026C62.0082 10.8939 62.0305 10.8894 62.053 10.8894C62.0756 10.8893 62.098 10.8937 62.1188 10.9023C62.1397 10.9109 62.1587 10.9236 62.1746 10.9396C62.1905 10.9556 62.2031 10.9746 62.2115 10.9955C62.22 11.0165 62.2243 11.0389 62.224 11.0614C62.224 11.1554 62.15 11.2314 62.053 11.2314C62.0079 11.2314 61.9647 11.2135 61.9328 11.1816C61.9009 11.1498 61.883 11.1065 61.883 11.0614V11.0614ZM60.552 11.1814H61.802C61.843 11.2644 61.922 11.3234 62.018 11.3354H60.552C60.448 11.3354 60.448 11.1814 60.552 11.1814V11.1814ZM61.344 9.69044L61.215 9.81544C59.886 11.0784 59.095 11.4684 55.583 11.4684C54.853 11.4684 47.411 11.5224 44.646 11.5434C44.915 11.3144 45.237 11.0414 45.589 10.7464C46.941 10.6104 49.576 10.3954 53.815 10.3154C58.689 10.2234 60.633 9.87944 61.344 9.69044V9.69044ZM57.062 5.33044C59.828 5.46644 62.752 5.81344 63.871 5.95644C63.4338 6.96863 62.8619 7.91719 62.171 8.77644C61.233 8.71844 57.939 8.52844 54.382 8.42944C50.64 8.32444 48.423 8.91544 47.298 9.31444C47.749 8.93944 48.183 8.58244 48.553 8.28344C50.23 6.93344 52.118 5.60944 52.532 5.32044C52.931 5.29344 54.544 5.20444 57.062 5.33044V5.33044ZM38.993 11.3714C40.617 11.3984 42.082 11.3834 42.56 11.3774C42.84 11.1434 43.56 10.5494 44.492 9.80044C42.113 9.82644 40.055 10.4554 38.993 11.3714ZM36.387 11.2884C36.634 11.3024 36.891 11.3134 37.15 11.3234C39.946 9.96144 44.733 7.64944 47.002 6.75144C47.845 6.41844 49.188 5.78244 50.719 5.02144C50.5345 4.9919 50.3491 4.96855 50.163 4.95144C49.32 5.28844 48.517 5.60844 47.821 5.88444L44.155 7.46444C41.541 8.68744 38.282 10.3294 36.387 11.2884V11.2884ZM51.037 4.98744C50.395 5.43944 48.778 6.59044 46.985 7.96244C45.4992 9.10373 44.0352 10.2733 42.594 11.4704C41.817 11.4824 37.765 11.5314 35.267 11.3344C34.9404 11.3137 34.6157 11.2706 34.295 11.2054L49.144 4.80644C50.046 4.82044 50.644 4.89944 51.016 4.98244L51.037 4.98744V4.98744Z" fill="#5267DF"/>
<path d="M122.984 3.59408C123.974 3.59408 124.469 5.13053 124.469 8.20345C124.417 11.4587 124.339 14.2451 124.234 16.5628H124.313L124.234 16.7191C123.922 25.9508 123.766 31.0811 123.766 32.1097C123.766 32.2399 123.714 32.5003 123.609 32.8909L123.453 32.8128C123.453 32.8909 123.297 33.0212 122.984 33.2034C122.776 32.904 122.672 32.6696 122.672 32.5003H122.594V32.8128C122.516 32.8128 122.411 32.6826 122.281 32.4222L122.359 32.2659C122.307 32.1618 122.281 32.0837 122.281 32.0316C122.333 32.0316 122.359 32.0055 122.359 31.9534L122.203 31.8753L122.281 31.7191C122.281 31.667 122.255 31.6409 122.203 31.6409L122.281 31.4847C122.281 31.4326 122.255 31.4066 122.203 31.4066L122.281 31.2503C122.281 31.1982 122.255 31.1722 122.203 31.1722L122.281 31.0159C122.281 30.9639 122.255 30.9378 122.203 30.9378L122.281 30.7816C122.281 30.7295 122.255 30.7034 122.203 30.7034C122.255 30.3389 122.307 30.1566 122.359 30.1566L122.281 30.0003V29.7659C122.281 29.7139 122.307 29.6878 122.359 29.6878L122.281 29.5316L122.359 29.3753C122.255 29.3753 122.203 29.3232 122.203 29.2191H122.359V29.1409L122.281 28.9847H122.359C122.359 28.9326 122.333 28.9066 122.281 28.9066L122.359 28.5159V27.8909L122.438 27.7347C122.385 27.7347 122.359 27.7086 122.359 27.6566H122.438L122.359 27.5003V27.4222C122.359 27.3701 122.385 27.3441 122.438 27.3441C122.438 27.292 122.411 27.2659 122.359 27.2659L122.516 25.9378C122.464 25.9378 122.438 25.9118 122.438 25.8597H122.516L122.438 25.7035C122.49 25.5993 122.516 25.5212 122.516 25.4691H122.438L122.516 25.3128C122.516 25.2608 122.49 25.2347 122.438 25.2347L122.594 24.2972H122.516L122.594 24.141V23.9066C122.594 23.8545 122.568 23.8285 122.516 23.8285L122.594 23.6722V23.4378C122.594 23.3857 122.568 23.3597 122.516 23.3597L122.594 23.2035L122.516 23.0472C122.568 23.0472 122.594 23.0212 122.594 22.9691H122.516C122.568 22.8389 122.62 22.5785 122.672 22.1878H122.594L122.672 22.0316L122.594 21.8753H122.672L122.594 21.7191C122.646 21.6149 122.672 21.5368 122.672 21.4847H122.594L122.672 21.3285C122.672 21.2764 122.646 21.2503 122.594 21.2503L122.672 21.0941C122.672 21.042 122.646 21.016 122.594 21.016L122.672 20.8597C122.672 20.8076 122.646 20.7816 122.594 20.7816L122.75 20.1566H122.672L122.75 20.0003C122.75 19.9482 122.724 19.9222 122.672 19.9222L122.75 19.766C122.75 19.7139 122.724 19.6878 122.672 19.6878L122.75 19.5316C122.75 19.4795 122.724 19.4535 122.672 19.4535L122.75 19.2972C122.75 19.2451 122.724 19.2191 122.672 19.2191L122.75 19.0628V18.8284C122.75 18.7764 122.724 18.7503 122.672 18.7503L122.75 18.5941C122.75 18.542 122.724 18.5159 122.672 18.5159L122.75 18.3597V18.2034C122.75 18.1514 122.724 18.1253 122.672 18.1253C122.724 17.5524 122.776 17.2659 122.828 17.2659L122.75 17.1097L122.828 16.9534H122.75L122.828 16.7972C122.828 16.7451 122.802 16.7191 122.75 16.7191L122.828 16.5628L122.75 16.4066H122.828L122.75 16.2503C122.802 16.1462 122.828 16.068 122.828 16.0159C122.776 16.0159 122.75 15.9899 122.75 15.9378H122.828C122.828 15.8857 122.802 15.8597 122.75 15.8597L122.828 15.4691V15.3909C122.828 15.3389 122.802 15.3128 122.75 15.3128C122.802 14.792 122.854 14.5316 122.906 14.5316L122.828 14.3753C122.828 14.3232 122.854 14.2972 122.906 14.2972L122.828 14.1409C122.88 14.0368 122.906 13.9587 122.906 13.9066H122.828L122.906 13.7503C122.906 13.6982 122.88 13.6722 122.828 13.6722L122.906 13.5159C122.906 13.4639 122.88 13.4378 122.828 13.4378L122.906 13.2816C122.906 13.2295 122.88 13.2034 122.828 13.2034L122.906 13.0472C122.854 12.943 122.828 12.8649 122.828 12.8128H122.906L122.828 12.6566V12.4222L122.906 12.2659H122.828L122.906 12.1097V11.8753L122.828 11.7191H122.984L122.906 11.5628C122.906 11.5107 122.932 11.4847 122.984 11.4847L122.906 11.3284C122.958 11.2243 122.984 11.1461 122.984 11.0941H122.906L122.984 10.9378C122.984 10.8857 122.958 10.8597 122.906 10.8597L122.984 10.7034L122.906 10.5472H122.984L122.906 10.3909C122.958 10.2868 122.984 10.2086 122.984 10.1566H122.906L122.984 10.0003C122.984 9.94823 122.958 9.92218 122.906 9.92218L122.984 9.76593C122.984 9.71385 122.958 9.68781 122.906 9.68781L122.984 9.53156C122.984 9.47948 122.958 9.45343 122.906 9.45343L122.984 9.29718C122.984 9.2451 122.958 9.21906 122.906 9.21906L122.984 9.06281C122.984 9.01073 122.958 8.98468 122.906 8.98468L122.984 8.82843C122.984 8.77635 122.958 8.75031 122.906 8.75031L122.984 8.59406C122.984 8.54198 122.958 8.51593 122.906 8.51593L122.984 8.35968C122.984 8.3076 122.958 8.28156 122.906 8.28156L122.984 8.12531C122.932 8.02114 122.906 7.94302 122.906 7.89093C122.958 7.89093 122.984 7.86489 122.984 7.81281H122.828V7.65656C122.841 7.55239 122.893 7.50031 122.984 7.50031L122.828 6.71906C122.932 6.71906 122.984 6.66698 122.984 6.56281C122.88 6.56281 122.828 6.51073 122.828 6.40656H122.906L122.828 6.25031C122.828 6.19823 122.854 6.17218 122.906 6.17218L122.828 6.01593C122.841 5.91177 122.893 5.85968 122.984 5.85968V6.01593H123.063V5.85968C123.01 5.85968 122.984 5.83364 122.984 5.78156H123.063C123.063 5.41698 122.906 5.10448 122.594 4.84406C122.359 5.10448 122.203 5.23468 122.125 5.23468C122.333 5.98989 122.49 6.79718 122.594 7.65656H122.516L122.594 7.81281V8.90661C122.594 9.27119 122.62 9.84411 122.672 10.6254H122.594L122.672 10.7816L122.594 11.1722H122.672L122.594 11.3285C122.594 11.3806 122.62 11.4066 122.672 11.4066L122.594 11.5629C122.594 11.6149 122.62 11.641 122.672 11.641L122.594 11.7972V13.9847C122.594 14.0368 122.568 14.0629 122.516 14.0629L122.594 14.2191C122.594 14.2712 122.568 14.2972 122.516 14.2972C122.516 14.3493 122.542 14.3754 122.594 14.3754L122.516 14.766V15.8598C122.516 15.9119 122.49 15.9379 122.438 15.9379L122.516 16.0942C122.464 16.1983 122.438 16.2765 122.438 16.3285H122.516L122.438 16.4848C122.438 16.5369 122.464 16.5629 122.516 16.5629L122.438 16.7192C122.438 16.7713 122.464 16.7973 122.516 16.7973L122.438 16.9535C122.438 17.0056 122.464 17.0317 122.516 17.0317L122.438 17.1879C122.438 17.24 122.464 17.266 122.516 17.266L122.438 17.4223V18.0473C122.438 18.0994 122.464 18.1254 122.516 18.1254C122.477 18.3338 122.424 18.4379 122.359 18.4379L122.438 18.5942V18.6723C122.438 18.7244 122.411 18.7504 122.359 18.7504L122.438 18.9067C122.438 18.9588 122.411 18.9848 122.359 18.9848L122.438 19.141V19.3754L122.359 19.5317H122.438L122.359 19.6879C122.359 19.74 122.385 19.766 122.438 19.766L122.359 19.9223C122.359 19.9744 122.385 20.0004 122.438 20.0004L122.359 20.1567V20.8598C122.359 20.9119 122.333 20.9379 122.281 20.9379L122.359 21.0942V21.1723C122.359 21.2895 122.333 21.3937 122.281 21.4848C122.333 21.576 122.359 21.6801 122.359 21.7973V22.0317C122.359 22.0838 122.333 22.1098 122.281 22.1098C122.281 22.1619 122.307 22.1879 122.359 22.1879L122.281 22.5786V23.9849L122.203 24.1411H122.281L122.203 24.2974C122.203 24.3495 122.229 24.3755 122.281 24.3755L122.203 24.5317V26.0161C122.203 26.0682 122.177 26.0943 122.125 26.0943C122.125 26.1463 122.151 26.1724 122.203 26.1724L122.125 26.563V27.6568C122.125 27.7089 122.099 27.7349 122.047 27.7349L122.125 27.8912L122.047 28.0474H122.125L122.047 28.2037V29.6881L121.969 30.0787H122.047L121.969 30.235V30.6256C121.969 30.6777 121.995 30.7037 122.047 30.7037C121.943 30.899 121.891 31.1074 121.891 31.3287C121.891 32.3053 121.969 33.0605 122.125 33.5944H121.891C121.591 33.5944 121.409 32.735 121.344 31.0162V30.7037C121.344 30.6516 121.318 30.6256 121.266 30.6256L121.344 30.4694C121.604 24.9355 121.734 21.3938 121.734 19.8444C121.786 19.8444 121.812 19.8183 121.812 19.7662H121.734L121.812 19.61V18.5162C121.812 17.9953 121.839 17.2141 121.891 16.1724H121.812L121.891 16.0162C121.943 13.2167 121.969 11.498 121.969 10.8599H122.047L121.969 10.7037C122.021 10.5995 122.047 10.5214 122.047 10.4693H121.969L122.047 10.3131V8.98495C122.047 8.93287 122.021 8.90683 121.969 8.90683L122.047 8.75058C122.008 6.71933 121.878 5.7037 121.656 5.7037C120.862 6.60214 119.794 9.25839 118.453 13.6725C117.984 15.1568 117.385 17.3183 116.656 20.1568C116.708 20.1568 116.734 20.1829 116.734 20.235C116.63 20.235 116.37 21.0422 115.953 22.6568C115.354 24.3495 114.729 25.4954 114.078 26.0943C113.557 26.5761 112.932 26.9146 112.203 27.11C112.203 27.2532 111.865 27.3574 111.188 27.4225C110.458 27.1881 109.833 26.485 109.312 25.3131C108.544 23.2818 107.737 20.261 106.891 16.2506H106.969C106.448 14.011 106.161 12.6308 106.109 12.11H106.031C106.031 12.162 106.005 12.2402 105.953 12.3443C105.901 13.7115 105.875 14.8574 105.875 15.7818V16.4068C105.875 16.4589 105.901 16.485 105.953 16.485L105.875 16.6412C105.875 18.1516 106.109 22.2402 106.578 28.9068C106.578 30.6126 106.24 31.6803 105.562 32.11H105.484V31.9537H105.406L105.25 32.0318C105.198 31.9277 105.172 31.8495 105.172 31.7975C105.432 31.1464 105.562 30.5214 105.562 29.9225H105.641V30.1568H105.719V29.1412C105.719 29.024 105.745 28.9199 105.797 28.8287C105.745 28.7376 105.719 28.6334 105.719 28.5162V27.4224C105.719 27.3704 105.693 27.3443 105.641 27.3443C105.641 27.2922 105.667 27.2662 105.719 27.2662C105.51 25.3 105.406 24.024 105.406 23.4381C105.354 23.4381 105.328 23.412 105.328 23.3599H105.406L105.328 23.2037V22.1099H105.172L105.25 21.9536V21.8755C105.25 21.8234 105.224 21.7974 105.172 21.7974L105.25 21.6411C105.198 20.7687 105.172 20.0917 105.172 19.6099V19.3755L105.094 19.2193H105.172L105.094 19.063V16.9536C105.094 16.9015 105.068 16.8755 105.016 16.8755L105.094 16.7192V16.563H104.938C104.977 16.3546 105.029 16.2505 105.094 16.2505L105.016 16.0942V15.8599C105.016 15.8078 105.042 15.7817 105.094 15.7817L105.016 15.6255V15.313L105.094 14.7661H105.016L105.094 14.6098V14.2192C105.094 13.451 105.068 12.7739 105.016 12.188C105.068 11.8885 105.094 11.4718 105.094 10.938C105.146 10.938 105.172 10.9119 105.172 10.8598H105.094C105.146 10.7557 105.172 10.6775 105.172 10.6255C105.172 10.0265 105.224 9.53172 105.328 9.14109H105.25C105.302 9.03692 105.328 8.9588 105.328 8.90672C105.328 8.81557 105.302 8.50307 105.25 7.96922H105.094C105.146 7.86505 105.172 7.78692 105.172 7.73484V7.65672H105.094C104.625 10.9249 104.391 13.7114 104.391 16.0161V16.7973C104.391 20.4562 104.573 23.6072 104.938 26.2505C104.938 26.3025 104.911 26.3286 104.859 26.3286C105.016 27.7609 105.094 29.063 105.094 30.2348C104.964 31.6671 104.807 32.3963 104.625 32.4223H104.547C104.547 32.3572 104.521 32.0968 104.469 31.6411C104.625 31.0031 104.703 30.2999 104.703 29.5317L104.078 19.2977C104.026 18.7248 104 17.605 104 15.9383C104 13.2951 104.26 9.98782 104.781 6.01647H104.859V6.25084H104.938V6.01647H105.016L105.328 6.48522H105.484C105.979 5.70397 106.266 5.31334 106.344 5.31334C106.435 5.26126 106.565 5.23522 106.734 5.23522C106.839 5.33938 107.099 6.74563 107.516 9.45397C108.818 15.4045 109.833 19.8316 110.562 22.7352C111.253 24.7144 111.878 25.704 112.438 25.704V25.6258C113.115 24.6493 114.026 22.0451 115.172 17.8133L116.031 15.0789C115.979 15.0789 115.953 15.0529 115.953 15.0008C116.096 15.0008 116.201 14.7925 116.266 14.3758C116.578 13.5555 116.839 12.7743 117.047 12.0321L117.203 12.1102L117.125 11.9539V11.8758L117.281 11.9539V11.7977C117.281 11.7456 117.255 11.7196 117.203 11.7196C117.307 11.5112 117.359 11.3289 117.359 11.1727L117.516 11.2508L117.438 11.0946L117.516 10.7039L117.672 10.7821C117.62 10.6779 117.594 10.5998 117.594 10.5477V10.4696H117.672V10.6258H117.75V10.5477C117.698 10.4435 117.672 10.3654 117.672 10.3133L117.828 10.3914C117.776 10.2873 117.75 10.2091 117.75 10.1571V10.0789H117.828V10.2352H117.906V10.1571C117.854 10.0659 117.828 9.96175 117.828 9.84456L117.984 9.92268L117.906 9.76643V9.68831L118.063 9.76643L117.984 9.61018V9.45394L118.141 9.53206C118.141 9.45394 118.375 8.9331 118.844 7.96956C118.792 7.96956 118.766 7.94352 118.766 7.89144C118.883 7.89144 119.065 7.57894 119.313 6.95394C119.26 6.95394 119.234 6.92789 119.234 6.87581C119.365 6.87581 119.677 6.40706 120.172 5.46956C120.667 4.94873 121.005 4.68831 121.188 4.68831C121.878 3.95914 122.477 3.59456 122.984 3.59456V3.59408ZM122.905 5.62508V5.85946C122.801 5.85946 122.749 5.80737 122.749 5.70321L122.905 5.62508ZM119.702 6.95308C118.192 9.92183 116.317 15.5468 114.077 23.8281C114.012 23.8281 113.908 24.0885 113.765 24.6093C114.064 24.3489 114.611 22.8645 115.406 20.1562C116.603 15.5208 118.062 11.1458 119.781 7.0312V6.95308H119.702ZM106.421 8.82808L106.187 10.7031C106.825 14.2968 107.216 16.0937 107.359 16.0937C107.359 16.1458 107.333 16.1718 107.281 16.1718C108.075 20.3645 108.934 23.5156 109.859 25.625C110.315 26.25 110.601 26.5625 110.718 26.5625V26.4843C110.64 26.4843 110.562 26.4062 110.484 26.25H110.562C110.731 26.3541 110.888 26.4062 111.031 26.4062H111.109C111.213 26.4062 111.265 26.3541 111.265 26.25C111.187 26.25 111.083 26.1458 110.953 25.9375C111.005 25.9375 111.031 25.9114 111.031 25.8593C110.875 25.8593 110.796 25.8072 110.796 25.7031C110.848 25.7031 110.875 25.677 110.875 25.625L110.484 25.3906C110.484 25.3385 110.51 25.3124 110.562 25.3124C110.562 25.2734 110.458 25.039 110.249 24.6093C110.302 24.6093 110.328 24.5833 110.328 24.5312C110.236 24.5312 110.08 24.2187 109.859 23.5937C109.911 23.5937 109.937 23.5677 109.937 23.5156C109.82 23.5156 109.507 22.4739 108.999 20.3906L107.749 14.7656H107.671L107.749 14.6093C107.229 12.0963 106.916 10.69 106.812 10.3906H106.89C106.786 10.1562 106.682 9.63536 106.578 8.82807H106.421L106.421 8.82808ZM105.093 12.0311V12.7342H105.171V12.0311H105.093ZM104.937 13.2031H105.015V13.9843H104.937V13.2031V13.2031ZM112.75 25.391C112.75 25.4431 112.724 25.5212 112.671 25.6254H112.75L112.828 25.4691V25.391H112.75ZM143.414 1.01608C144.976 1.27649 145.757 2.29212 145.757 4.06295V4.2192C145.757 5.03951 145.575 5.48222 145.211 5.54733H145.132C145.093 5.18274 145.041 5.00045 144.976 5.00045L145.132 4.60982C145.132 3.56815 144.794 2.83899 144.117 2.42232C143.908 2.39628 143.804 2.31815 143.804 2.18795L143.648 2.26607C143.557 2.21399 143.453 2.18795 143.336 2.18795V2.3442C143.453 2.3442 143.583 2.4744 143.726 2.73482H143.648C144.169 3.47701 144.429 4.23222 144.429 5.00045V5.7817C144.429 5.88586 144.377 5.93795 144.273 5.93795L144.117 5.39107C144.117 5.33898 144.143 5.31294 144.195 5.31294C144.195 3.97179 143.7 3.08638 142.711 2.65669C142.502 2.60461 142.32 2.57857 142.164 2.57857C141.526 2.57857 141.083 2.83898 140.836 3.35982C140.627 3.67232 140.523 3.88065 140.523 3.98482C140.575 3.98482 140.601 4.01086 140.601 4.06294C140.419 4.06294 140.184 4.45357 139.898 5.23482C139.95 5.23482 139.976 5.26086 139.976 5.31294C139.794 5.31294 139.533 6.01607 139.195 7.42232C139.247 7.42232 139.273 7.44836 139.273 7.50044C139.104 7.51346 138.921 8.1645 138.726 9.45357C137.945 13.6072 137.554 17.4353 137.554 20.9379C137.502 20.9379 137.476 21.3286 137.476 22.1098H137.398C137.398 22.1619 137.424 22.1879 137.476 22.1879C137.476 22.214 137.45 22.3181 137.398 22.5004C137.398 23.2036 137.372 24.4275 137.32 26.1723C137.32 29.9223 138.075 31.7973 139.586 31.7973H139.664C140.875 31.7973 142.099 31.0942 143.336 29.6879L144.351 28.8286C144.455 28.8806 144.533 28.9067 144.585 28.9067C144.273 29.9874 143.388 31.0551 141.929 32.1098C140.237 33.0994 138.882 33.5942 137.867 33.5942H137.554C136.174 33.5942 135.184 32.6567 134.585 30.7817C134.325 29.6489 134.195 28.2687 134.195 26.6411C134.195 26.589 134.169 26.5629 134.117 26.5629L134.195 26.4067C134.195 23.477 134.69 18.451 135.679 11.3286C136.148 9.20617 136.539 7.79991 136.851 7.10981H136.929L136.851 6.95356L137.007 6.87543L136.929 6.71918V6.64106L137.085 6.71918C137.085 6.602 137.112 6.49783 137.164 6.40668C137.112 6.40668 137.085 6.38064 137.085 6.32856C137.177 6.26346 137.593 5.48221 138.335 3.98481L138.492 3.90668L138.57 4.06293L138.179 4.68793V4.76606H138.257C138.505 3.99783 139.546 2.93012 141.382 1.56294C142.085 1.19835 142.763 1.01606 143.414 1.01606L143.414 1.01608ZM138.179 5.78108C138.179 5.9243 138.127 6.08055 138.023 6.24983H138.179L138.257 5.85919V5.78107H138.179V5.78108ZM137.945 6.32808L138.023 6.48433C137.945 6.48433 137.867 6.58849 137.789 6.79683C137.841 6.79683 137.867 6.82287 137.867 6.87495H137.71L137.789 7.0312C137.684 7.04422 137.632 7.0963 137.632 7.18745C137.684 7.18745 137.71 7.21349 137.71 7.26558H137.554C137.554 7.31766 137.58 7.3437 137.632 7.3437C137.463 7.61714 137.307 8.05985 137.164 8.67183C137.216 8.67183 137.242 8.69787 137.242 8.74995C137.007 8.74995 136.695 10.052 136.304 12.6562C136.252 12.6562 136.2 12.8385 136.148 13.2031H136.226L135.992 14.2969H136.07L135.914 15H135.992C135.888 15.4948 135.757 16.6406 135.601 18.4375H135.679C135.627 18.5286 135.575 18.8411 135.523 19.375H135.601C135.497 19.5313 135.393 20.651 135.289 22.7344C135.341 22.7344 135.367 22.7604 135.367 22.8125C135.263 22.8255 135.21 22.8776 135.21 22.9688H135.445L135.523 22.5C135.471 22.5 135.445 22.474 135.445 22.4219C135.497 22.4219 135.523 22.3958 135.523 22.3438H135.445L135.523 22.1875L135.757 18.5937C135.705 18.5937 135.679 18.5677 135.679 18.5156C135.783 18.5156 135.835 18.4635 135.835 18.3593V18.0468C135.835 17.9947 135.809 17.9687 135.757 17.9687C135.848 17.6302 136.005 16.5885 136.226 14.8437H136.148L136.382 13.7499H136.304C136.773 10.8593 137.346 8.43741 138.023 6.48428C138.075 6.48428 138.101 6.4322 138.101 6.32803H137.945L137.945 6.32808ZM135.21 23.2031L135.289 23.3593C135.236 23.3593 135.21 23.3854 135.21 23.4375C135.263 23.4375 135.289 23.4635 135.289 23.5156C135.236 23.5156 135.21 23.5416 135.21 23.5937H135.289L135.21 23.75V23.9062C135.21 23.9583 135.236 23.9843 135.289 23.9843C135.184 24.2838 135.132 24.8567 135.132 25.7031H135.21C135.158 25.8072 135.132 25.8854 135.132 25.9375V26.7968H135.21C135.263 25.1692 135.341 23.9192 135.445 23.0468H135.367C135.263 23.0599 135.21 23.1119 135.21 23.2031V23.2031ZM135.132 27.0316V27.891H135.21V27.0316H135.132ZM135.132 29.3753V29.4534C135.223 30.1956 135.354 30.7685 135.523 31.1721H135.601C135.601 31.081 135.549 30.8727 135.445 30.5471H135.523C135.367 30.1956 135.263 29.805 135.21 29.3753H135.132ZM136.382 31.4847V31.5628C136.473 31.7711 136.578 31.8753 136.695 31.8753V31.9534L136.617 32.1097L136.773 32.0315H136.851L136.773 32.1878V32.2659L137.164 32.344C136.799 31.8362 136.539 31.5498 136.382 31.4847H136.382ZM156.558 2.07108C157.469 2.07108 157.769 3.50337 157.456 6.36795L156.655 16.2313C156.603 16.2313 156.577 16.2573 156.577 16.3094H156.655L156.577 16.4461C156.525 18.3081 156.499 19.7078 156.499 20.6453V20.7234L156.421 20.8602H156.499L156.421 20.9969V22.9891C156.421 25.1245 156.447 27.618 156.499 30.4695C156.499 31.5373 156.353 32.2534 156.06 32.618C155.767 32.9826 155.601 33.1649 155.562 33.1649V33.0867C155.614 32.9956 155.64 32.9305 155.64 32.8914H155.562L155.112 33.243C155.112 33.1909 155.086 33.1649 155.034 33.1649C155.034 33.2169 155.008 33.243 154.956 33.243V32.8133L155.034 32.6766C154.982 32.6766 154.956 32.6505 154.956 32.5985H155.034C154.982 32.5333 154.956 32.3901 154.956 32.1688C154.865 32.1818 154.82 32.2274 154.82 32.3055C154.82 32.3576 154.839 32.3836 154.878 32.3836L154.82 32.5203V33.1649C154.82 33.256 154.767 33.3016 154.663 33.3016L154.741 33.4578V33.5164L154.351 33.5945C154.208 33.3472 154.084 32.8979 153.98 32.2469C153.98 32.1948 154.006 32.1688 154.058 32.1688C153.797 29.7729 153.667 27.8263 153.667 26.3289V26.2703C153.563 26.036 152.424 25.9188 150.249 25.9188V25.9774L150.093 25.9188H148.433C148.081 25.9188 147.905 26.2508 147.905 26.9149L147.437 28.9657C147.489 28.9657 147.515 28.9917 147.515 29.0438C147.385 29.0438 147.261 29.3498 147.144 29.9618C146.883 30.5868 146.551 31.1336 146.148 31.6024C146.2 31.6024 146.226 31.6284 146.226 31.6805C146.096 31.6805 145.92 31.7716 145.698 31.9539C145.698 31.8498 145.594 31.7782 145.386 31.7391C146.297 30.1245 146.753 28.7769 146.753 27.6961C146.831 27.592 146.935 27.0907 147.066 26.1922H146.831C146.701 26.1922 146.551 26.8107 146.382 28.0477C146.434 28.0477 146.46 28.0672 146.46 28.1063C146.369 28.1063 146.141 28.9396 145.777 30.6063C145.724 30.6063 145.62 30.8407 145.464 31.3094C145.516 31.3094 145.542 31.3354 145.542 31.3875C145.438 31.3875 145.262 31.6479 145.015 32.1688H144.859V32.0907C145.158 31.4396 145.412 30.756 145.62 30.0399V29.9618C145.568 29.8706 145.542 29.799 145.542 29.7469L145.698 29.825L145.62 29.5321L145.991 27.911H145.913C146.017 27.6115 146.323 25.9253 146.831 22.8524H146.753C146.857 22.6831 146.909 22.4943 146.909 22.286H146.831C146.922 22.1167 147.027 21.687 147.144 20.9969H147.066C147.821 17.0386 148.706 13.7443 149.722 11.1141C151.297 7.06461 152.541 4.57112 153.452 3.63362V3.71175L153.296 3.92659H153.374C153.387 3.82242 153.433 3.77034 153.511 3.77034C153.511 3.82242 153.537 3.84846 153.589 3.84846V3.77034C153.537 3.77034 153.511 3.7508 153.511 3.71174C153.862 3.3732 154.221 3.20393 154.585 3.20393V3.06721H154.429V2.98908C154.559 2.98908 155.041 2.72867 155.874 2.20783C156.109 2.11669 156.336 2.07112 156.558 2.07112L156.558 2.07108ZM154.507 2.71508H154.742V2.77367L154.273 2.85179C154.273 2.76065 154.351 2.71508 154.507 2.71508H154.507ZM153.746 3.28108V3.3592C153.746 3.45035 153.694 3.49592 153.589 3.49592V3.41779C153.602 3.32665 153.654 3.28108 153.746 3.28108ZM155.953 3.41808C156.018 3.61339 156.142 3.75662 156.324 3.84776C156.324 3.79568 156.35 3.72407 156.402 3.63292H156.324C156.324 3.685 156.298 3.71104 156.246 3.71104C156.246 3.47667 156.2 3.35948 156.109 3.35948L155.953 3.41808ZM155.562 3.77007L156.031 5.27398C156.031 5.32606 156.005 5.3521 155.953 5.3521L156.031 5.70366V6.91456L155.953 7.05128H156.031C155.979 7.14243 155.953 7.21404 155.953 7.26612C155.796 9.72706 155.647 11.27 155.503 11.895H155.562C155.445 12.8456 155.373 13.3208 155.347 13.3208C155.347 13.3599 155.373 13.3794 155.425 13.3794L155.113 16.0161L155.191 16.1528C155.139 16.244 155.113 16.3416 155.113 16.4458C155.165 16.4458 155.191 16.4718 155.191 16.5239H155.035C155.087 16.602 155.113 16.6932 155.113 16.7974H155.191L155.269 16.4458H155.191C155.282 16.1073 155.386 15.5148 155.503 14.6685C155.503 14.6164 155.477 14.5903 155.425 14.5903L155.796 11.5434H155.718L155.875 11.0356H155.796L155.875 10.8989V10.5473C155.875 10.4953 155.848 10.4692 155.796 10.4692C155.901 10.313 155.953 10.1697 155.953 10.0395V9.9028L155.875 9.74655H156.031L155.953 9.60984C156.005 9.60984 156.031 9.5903 156.031 9.55124H155.953C156.005 9.55124 156.057 9.07598 156.109 8.12546C156.057 8.12546 156.031 8.09942 156.031 8.04734C156.135 8.04734 156.187 8.00176 156.187 7.91062V7.83249C156.187 7.78041 156.161 7.75437 156.109 7.75437C156.161 7.3377 156.207 7.12937 156.246 7.12937C156.246 7.07728 156.226 7.05124 156.187 7.05124L156.246 6.56296V5.27386L156.187 5.13714H156.246L156.187 4.98089V4.9223C156.187 4.87021 156.207 4.84417 156.246 4.84417L155.953 3.98479C156.005 3.98479 156.031 3.96526 156.031 3.9262H155.953C155.953 3.96526 155.927 3.98479 155.875 3.98479L155.796 3.71135H155.718L155.562 3.77007ZM153.824 6.48507L153.902 6.6218C153.746 6.6218 153.361 7.40305 152.749 8.96555C152.151 10.2937 151.447 12.1687 150.64 14.5905C150.679 14.5905 150.699 14.6166 150.699 14.6687C150.542 14.6687 150.367 15.1635 150.171 16.153C150.106 16.153 150.035 16.3679 149.957 16.7976C149.996 16.7976 150.015 16.8236 150.015 16.8757C149.885 16.8757 149.657 17.7286 149.332 19.4343C149.136 20.2546 148.785 22.084 148.277 24.9226C148.889 24.7793 149.904 24.7077 151.324 24.7077H151.695L152.613 24.7663V24.7077L152.749 24.7663H153.667V23.9851C153.667 23.946 153.641 23.9265 153.589 23.9265L153.667 23.7702C153.667 22.1556 154.175 16.752 155.191 7.5593C155.243 7.5593 155.269 7.17518 155.269 6.40695C155.321 6.40695 155.347 6.38742 155.347 6.34836H155.269L155.347 6.19211V5.27414L155.269 5.13742H155.347C155.308 5.00721 155.256 4.72075 155.191 4.27804C154.748 4.78586 154.292 5.52153 153.824 6.48507V6.48507ZM152.144 7.12908C152.144 7.2072 152.099 7.32439 152.007 7.48064H152.066L152.222 7.18767V7.12907H152.144V7.12908ZM151.929 7.55908C151.018 9.69449 150.36 11.3026 149.957 12.3833C149.996 12.3833 150.015 12.4093 150.015 12.4614C149.872 12.4614 149.696 12.9106 149.488 13.8091C148.628 16.0096 148.023 18.3338 147.671 20.7817C147.164 23.3729 146.91 24.8898 146.91 25.3325H146.988C147.235 25.3325 147.385 24.8638 147.437 23.9263C147.489 23.9263 147.515 23.9002 147.515 23.8481H147.437L147.593 23.4184H147.515L148.433 18.5161H148.355L148.511 18.2232H148.433L148.804 16.8755H148.726C149.338 14.727 150.048 12.5916 150.855 10.4692C150.803 10.4692 150.777 10.4432 150.777 10.3911C150.92 10.3911 151.102 10.0135 151.324 9.25829C151.493 8.95881 151.74 8.3924 152.066 7.55907H151.929L151.929 7.55908ZM155.035 16.8751V17.3048C155.035 17.3438 155.061 17.3634 155.113 17.3634L155.035 17.5196V17.6563H155.191V16.8751H155.035V16.8751ZM155.035 17.7351C155.035 17.8262 155.009 17.8718 154.957 17.8718L155.035 18.0085C154.983 18.0997 154.957 18.1713 154.957 18.2234L155.035 18.3601C154.983 18.4512 154.957 18.5489 154.957 18.653V18.7312H155.113V17.7351H155.035V17.7351ZM154.957 18.9261C154.957 19.0302 154.931 19.0823 154.878 19.0823L154.957 19.219L154.878 19.3558C154.931 19.4469 154.957 19.5185 154.957 19.5706C154.905 19.5706 154.878 19.5967 154.878 19.6487C154.931 19.6487 154.957 19.6748 154.957 19.7269C154.905 19.7269 154.878 19.7464 154.878 19.7855C154.931 19.7855 154.957 19.8115 154.957 19.8636H154.82V19.9222H154.957L155.035 19.7854V18.9261H154.957V18.9261ZM154.82 20.3521L154.957 20.4302V20.2154C154.865 20.2284 154.82 20.274 154.82 20.3521V20.3521ZM154.8 30.5668C155.074 31.96 155.126 28.7243 154.957 20.8597V20.5668C154.748 20.2803 154.696 23.6136 154.8 30.5668V30.5668ZM154.82 31.6019L154.957 31.68V31.4652C154.865 31.4782 154.82 31.5238 154.82 31.6019V31.6019ZM154.878 31.7386C154.878 31.8427 154.859 31.8948 154.82 31.8948C154.859 31.986 154.878 32.0511 154.878 32.0901H154.957V31.7386H154.878V31.7386ZM165.718 7.53403e-05H165.875C168.492 7.53403e-05 170.679 1.40633 172.437 4.21883C173.166 5.85945 173.531 7.44799 173.531 8.98445V9.60945L173.609 9.7657C173.557 9.7657 173.531 9.79174 173.531 9.84383H173.609C173.361 11.7318 173.075 13.1121 172.75 13.9845C172.255 15.1173 171.63 16.3673 170.875 17.7345C170.927 17.7345 170.953 17.7605 170.953 17.8126C170.809 17.8256 170.315 18.6068 169.468 20.1563C168.57 21.5626 167.216 23.1772 165.406 25.0001C165.002 25.2996 164.638 25.56 164.312 25.7813C164.312 26.0027 165.562 27.3568 168.062 29.8438L169.703 30.547L169.624 30.7032V30.7813L169.703 30.9376H169.468L169.546 31.0938C169.312 31.0938 168.765 31.2501 167.906 31.5626H167.828C166.89 31.5626 165.744 30.8074 164.39 29.297C163.843 28.6199 163.27 28.0209 162.671 27.5001C162.671 28.0079 162.645 28.2683 162.593 28.2813H162.671L162.593 28.4376V30.1564C162.593 31.9272 162.437 32.8126 162.124 32.8126L161.499 33.2033H161.421L161.499 33.047V32.9689C161.447 32.9689 161.369 32.9428 161.265 32.8908V33.1251H161.031C160.927 33.1251 160.874 33.0731 160.874 32.9689H160.953C160.901 32.4481 160.848 32.1876 160.796 32.1876L160.874 32.0314C160.874 31.9793 160.848 31.9533 160.796 31.9533L160.874 31.797L160.796 31.2501C160.848 31.2501 160.874 31.2241 160.874 31.172C160.822 31.172 160.796 31.146 160.796 31.0939C160.848 31.0939 160.874 31.0678 160.874 31.0158C160.822 31.0158 160.796 30.9897 160.796 30.9376H160.874L160.796 30.7814V30.2345L160.874 30.0783C160.822 30.0783 160.796 30.0522 160.796 30.0001C160.848 30.0001 160.874 29.9741 160.874 29.922C160.822 29.922 160.796 29.896 160.796 29.8439H160.874L160.796 29.6876V29.5314L160.874 29.3751C160.822 29.3751 160.796 29.3491 160.796 29.297C160.848 29.297 160.874 29.271 160.874 29.2189C160.822 29.2189 160.796 29.1928 160.796 29.1408C160.848 29.1408 160.874 29.1147 160.874 29.0626H160.718L160.796 28.9064V28.8283C160.796 28.7762 160.77 28.7501 160.718 28.7501L160.796 28.5939V24.297C160.796 24.2449 160.77 24.2189 160.718 24.2189L160.796 24.0626V23.9845C160.796 23.9324 160.77 23.9064 160.718 23.9064C160.77 23.4376 160.822 23.2032 160.874 23.2032L160.796 23.047V22.6563C160.796 22.6043 160.822 22.5782 160.874 22.5782L160.796 22.422V22.2657L160.874 22.1095C160.822 22.1095 160.796 22.0834 160.796 22.0313C160.848 22.0313 160.874 22.0053 160.874 21.9532C160.822 21.9532 160.796 21.9272 160.796 21.8751C160.848 21.8751 160.874 21.8491 160.874 21.797C160.822 21.797 160.796 21.7709 160.796 21.7188H160.874L160.796 21.5626L160.874 21.4063C160.822 21.4063 160.796 21.3803 160.796 21.3282H160.874L160.796 21.172V19.6876C160.796 19.6355 160.822 19.6095 160.874 19.6095L160.796 19.4532L160.874 19.297C160.822 19.297 160.796 19.2709 160.796 19.2188C160.848 19.2188 160.874 19.1928 160.874 19.1407H160.796L160.874 18.9845V18.672C160.874 18.6199 160.848 18.5938 160.796 18.5938L160.874 18.4376V18.2813L160.796 18.1251C160.848 18.1251 160.874 18.099 160.874 18.047C160.822 18.047 160.796 18.0209 160.796 17.9688C160.848 17.9688 160.874 17.9428 160.874 17.8907H160.796L160.874 17.7345V17.1095C160.874 17.0574 160.848 17.0313 160.796 17.0313L160.874 16.8751V13.7501C160.874 13.698 160.901 13.672 160.953 13.672L160.874 13.5157C160.874 13.4636 160.901 13.4376 160.953 13.4376L160.874 13.2813V13.1251C160.874 13.073 160.901 13.047 160.953 13.047L160.874 12.8907C160.874 12.8386 160.901 12.8126 160.953 12.8126L160.874 12.6563V12.5001L160.953 12.1094H160.874L160.953 11.9532C160.901 11.849 160.874 11.7709 160.874 11.7188H160.953L160.874 11.5626C160.874 11.5105 160.901 11.4844 160.953 11.4844L160.874 11.3282L160.953 11.1719H160.874L160.953 11.0157C160.953 10.9636 160.927 10.9376 160.874 10.9376L160.953 10.7813C160.953 10.7292 160.927 10.7032 160.874 10.7032L160.953 10.5469C160.953 10.4949 160.927 10.4688 160.874 10.4688L160.953 10.3126C160.953 10.2605 160.927 10.2344 160.874 10.2344L160.953 10.0782V8.90629L161.031 8.75004H160.953L161.031 8.59379C161.031 8.54171 161.005 8.51567 160.953 8.51567L161.031 8.35942L160.953 8.20317C161.005 8.099 161.031 8.02088 161.031 7.96879C160.979 7.96879 160.953 7.94275 160.953 7.89067L161.109 7.81254L161.031 7.65629V7.34379L161.109 7.18754H161.031L161.109 7.03129L161.031 6.87504C161.083 6.87504 161.109 6.849 161.109 6.79692C161.057 6.79692 161.031 6.77088 161.031 6.71879C161.083 6.71879 161.109 6.69275 161.109 6.64067C161.057 6.64067 161.031 6.61463 161.031 6.56254C161.083 6.56254 161.109 6.5365 161.109 6.48442H161.031L161.109 6.32817V6.25004C161.109 6.19796 161.083 6.17192 161.031 6.17192L161.109 6.01567V5.46879C161.109 5.41671 161.083 5.39067 161.031 5.39067L161.187 4.68754C161.135 4.68754 161.109 4.66149 161.109 4.60941C161.161 4.60941 161.187 4.58337 161.187 4.53129C161.135 4.53129 161.109 4.50524 161.109 4.45316C161.161 4.45316 161.187 4.42712 161.187 4.37504C161.135 4.37504 161.109 4.34899 161.109 4.29691C161.161 4.29691 161.187 4.27087 161.187 4.21879C161.135 4.21879 161.109 4.19274 161.109 4.14066H161.187L161.343 4.21879V4.14066C161.239 4.08858 161.161 4.06254 161.109 4.06254V3.98441C161.265 3.98441 161.343 3.93233 161.343 3.82816H161.265L161.343 3.67191V3.28128C161.343 3.2292 161.317 3.20316 161.265 3.20316L161.343 3.04691V1.56251C161.343 0.872401 161.473 0.481776 161.734 0.39063H161.812C162.151 0.39063 162.359 3.9323 162.437 11.0156C162.541 15.0781 162.619 20.0521 162.671 25.9375L164.546 24.375C166.135 22.6302 167.593 20.599 168.921 18.2813C169.859 16.5365 170.328 15.599 170.328 15.4688L170.171 15.5469V15.4688L170.406 14.9219C170.354 14.9219 170.328 14.8958 170.328 14.8438C170.562 14.8438 170.874 13.9063 171.265 12.0313C171.473 11.3151 171.578 10.4297 171.578 9.375C171.578 5.5599 169.963 2.92969 166.734 1.48438C166.734 1.53646 166.708 1.5625 166.656 1.5625C166.656 1.35417 166.057 1.19792 164.859 1.09375H164.624C164.403 1.09375 163.674 1.25 162.437 1.5625L163.14 0.9375C163.27 0.742188 163.557 0.533854 163.999 0.3125V0.390625C164.533 0.130208 165.106 0 165.718 0L165.718 7.53403e-05ZM166.656 0.938075V1.0162C167.893 1.5761 168.7 2.04485 169.078 2.42245C169.026 2.42245 169 2.44849 169 2.50058C169.937 3.15162 170.796 4.4537 171.578 6.40683H171.5C171.812 7.3313 171.968 8.50318 171.968 9.92245V10.235C171.968 10.287 171.994 10.3131 172.046 10.3131L171.968 10.4693V11.0162L172.046 11.1725C171.955 11.1725 171.773 11.9797 171.5 13.5943C171.226 14.4407 170.835 15.3782 170.328 16.4068V16.485C170.393 16.485 170.601 16.1464 170.953 15.4693C170.901 15.4693 170.875 15.4433 170.875 15.3912C171.135 15.2089 171.552 14.1412 172.125 12.1881C172.177 11.8626 172.255 11.5501 172.359 11.2506H172.281C172.333 11.1334 172.411 10.7428 172.515 10.0787C172.463 10.0787 172.437 10.0527 172.437 10.0006C172.489 10.0006 172.515 9.97454 172.515 9.92246H172.437C172.489 9.83131 172.515 9.72714 172.515 9.60996H172.593V9.84433H172.671V8.35993L172.593 8.20368C172.645 8.20368 172.671 8.17764 172.671 8.12556L172.515 8.04743L172.593 7.89118C172.593 6.64118 172.046 5.15681 170.953 3.43806C169.611 1.96671 168.44 1.15941 167.437 1.01619C167.437 0.912019 167.281 0.859935 166.968 0.859935C166.877 0.912019 166.773 0.93806 166.656 0.93806V0.938075ZM166.89 0.938075H167.046C167.151 0.990158 167.229 1.0162 167.281 1.0162V1.09433H167.125C167.02 1.04224 166.942 1.0162 166.89 1.0162V0.938075ZM160.406 1.25008H160.484V1.40633L160.64 1.3282C160.64 1.38028 160.666 1.45841 160.718 1.56258H160.64C160.64 1.61466 160.666 1.6407 160.718 1.6407C160.666 2.34383 160.64 2.86466 160.64 3.2032V5.0782C160.64 5.13028 160.666 5.15633 160.718 5.15633C160.679 5.36466 160.627 5.46883 160.562 5.46883L160.64 5.62508V5.78133C160.64 5.83341 160.614 5.85945 160.562 5.85945L160.64 6.0157V6.71883C160.64 6.77091 160.614 6.79696 160.562 6.79696L160.64 6.95321C160.64 7.00529 160.614 7.03133 160.562 7.03133L160.64 7.18758L160.562 7.57821C160.614 7.57821 160.64 7.60425 160.64 7.65633C160.588 7.65633 160.562 7.68238 160.562 7.73446H160.64L160.562 7.89071C160.562 7.94279 160.588 7.96883 160.64 7.96883L160.562 8.12508L160.64 8.28133H160.562L160.64 8.43758C160.588 8.54175 160.562 8.61988 160.562 8.67196H160.64L160.562 8.82821V9.29696C160.562 9.34904 160.588 9.37508 160.64 9.37508L160.562 9.53133V10.0001C160.562 10.0522 160.588 10.0782 160.64 10.0782L160.562 10.2345C160.562 10.2865 160.588 10.3126 160.64 10.3126L160.562 10.4688V10.8595C160.562 10.9115 160.588 10.9376 160.64 10.9376L160.562 11.0938C160.562 11.1459 160.588 11.172 160.64 11.172L160.562 11.3282C160.562 11.3803 160.588 11.4063 160.64 11.4063C160.64 11.4584 160.614 11.4845 160.562 11.4845L160.64 11.8751V11.9532C160.64 12.0053 160.614 12.0313 160.562 12.0313C160.614 12.1355 160.64 12.2136 160.64 12.2657L160.562 12.422C160.614 12.5131 160.64 12.6173 160.64 12.7345C160.64 12.7866 160.614 12.8126 160.562 12.8126L160.64 12.9688V13.3595C160.64 13.4116 160.614 13.4376 160.562 13.4376C160.614 13.5418 160.64 13.6199 160.64 13.672C160.64 13.7241 160.614 13.7501 160.562 13.7501L160.64 14.1407V14.7657C160.64 14.8178 160.666 14.8439 160.718 14.8439L160.64 15.0001V19.6095C160.64 19.6616 160.666 19.6876 160.718 19.6876L160.64 19.8439V22.8908C160.64 22.9429 160.614 22.9689 160.562 22.9689L160.64 23.1252V23.4377C160.64 23.4897 160.614 23.5158 160.562 23.5158L160.64 23.672V24.4533C160.64 24.5054 160.666 24.5314 160.718 24.5314L160.64 24.6877V26.3283C160.64 26.3803 160.614 26.4064 160.562 26.4064L160.64 26.5626V28.8282C160.64 28.8803 160.614 28.9064 160.562 28.9064C160.614 29.2189 160.666 29.3751 160.718 29.3751C160.666 29.948 160.614 30.2345 160.562 30.2345L160.64 30.3907V31.7188L160.562 31.8751C160.614 31.8751 160.64 31.9011 160.64 31.9532H160.562C160.562 32.0053 160.588 32.0313 160.64 32.0313L160.562 32.7345C160.614 33.1902 160.64 33.4766 160.64 33.5938H160.406C160.041 33.5938 159.859 32.422 159.859 30.0782V29.5313C159.859 29.4792 159.833 29.4532 159.781 29.4532L159.859 29.297V28.4376C159.859 28.3855 159.833 28.3594 159.781 28.3594L159.859 28.2032V24.6876C159.859 24.6355 159.833 24.6095 159.781 24.6095L159.859 24.4532V23.5938C159.859 23.5418 159.833 23.5157 159.781 23.5157C159.833 23.4116 159.859 23.3334 159.859 23.2813C159.859 21.7839 159.885 18.3985 159.937 13.1251H160.015C160.015 13.073 159.989 13.047 159.937 13.047L160.015 12.6563V8.82824L160.093 8.67199H160.015L160.093 8.51574V8.43762C160.093 5.91157 160.197 3.51574 160.406 1.25012L160.406 1.25008ZM169.937 16.0161V16.0942C169.885 16.1853 169.859 16.2895 169.859 16.4067H169.781V16.0942L169.937 16.0161ZM169.703 16.4061V16.4842C169.703 16.7576 169.625 16.9139 169.469 16.9529V16.8748C169.508 16.5623 169.586 16.4061 169.703 16.4061ZM169.312 16.9531H169.468V17.0312C169.312 17.2656 169.234 17.4218 169.234 17.5H169.156V17.2656C169.26 17.2656 169.312 17.1614 169.312 16.9531V16.9531ZM169.156 17.5001V17.5782C169.104 17.6824 169.078 17.7605 169.078 17.8126H169V17.5782L169.156 17.5001ZM168.843 18.0471V18.1252C168.739 18.2945 168.687 18.4247 168.687 18.5158L168.531 18.4377C168.635 18.2033 168.739 18.0731 168.843 18.0471ZM168.375 18.5941H168.453V18.9066L168.296 18.9847V18.9066C168.349 18.8154 168.375 18.7113 168.375 18.5941ZM162.906 26.641V26.7191C162.906 26.7712 162.932 26.7972 162.984 26.7972L162.906 26.9535V27.0316H162.984V26.8754C163.088 26.8884 163.14 26.9405 163.14 27.0316V27.1097H162.984C162.984 27.1879 163.062 27.266 163.218 27.3441L163.375 27.266C163.375 27.3441 163.557 27.5264 163.921 27.8129L163.843 27.9691V28.0472H163.921V27.891C163.986 27.891 164.273 28.1774 164.781 28.7504V28.8285L164 28.1253V28.2035C164.039 28.2035 164.273 28.4378 164.703 28.9066L164.859 28.8285C165.783 29.8181 166.304 30.3128 166.421 30.3128C166.421 30.2608 166.447 30.2347 166.5 30.2347C166.5 30.4431 166.786 30.5993 167.359 30.7035H167.515V30.6253C167.255 30.6253 166.916 30.3649 166.5 29.8441C166.5 29.8962 166.473 29.9222 166.421 29.9222C166.421 29.8181 166.369 29.766 166.265 29.766L166.343 29.6097H166.109L166.187 29.4535H166.109C166.109 29.5056 166.083 29.5316 166.031 29.5316L165.953 29.3753C166.005 29.3753 166.031 29.3493 166.031 29.2972H165.953C165.953 29.3493 165.927 29.3753 165.875 29.3753C165.875 29.167 165.77 29.0628 165.562 29.0628L165.64 28.9066C165.471 28.8545 165.158 28.5681 164.703 28.0472C164.755 28.0472 164.781 28.0212 164.781 27.9691C164.69 27.9691 164.143 27.4743 163.14 26.4847H163.062C162.958 26.4977 162.906 26.5498 162.906 26.641L162.906 26.641ZM167.125 30.7816V30.8597C167.684 31.068 167.997 31.1722 168.062 31.1722H168.14V31.0941C167.567 30.8857 167.255 30.7816 167.203 30.7816H167.125ZM168.296 31.016V31.0941H168.609V31.016H168.296ZM179.644 2.03108L179.8 2.26546V2.34358C179.8 2.63004 179.618 3.07275 179.253 3.67171C179.306 3.67171 179.332 3.69775 179.332 3.74983C179.097 3.74983 178.915 4.37483 178.785 5.62483V5.85921L178.707 6.01546H178.785C178.785 6.06754 178.759 6.09359 178.707 6.09359C178.707 7.90348 179.644 11.4191 181.519 16.6405C182.248 18.9582 182.613 20.9634 182.613 22.6561V23.2811C182.613 26.1196 181.727 28.6717 179.957 30.9373C179.188 31.8879 177.834 32.6691 175.894 33.2811C175.894 33.4373 175.425 33.5415 174.488 33.5936C174.227 33.5936 173.759 33.4634 173.082 33.203V33.1248H173.238V33.0467H173.082C173.082 33.0988 173.056 33.1248 173.003 33.1248V32.8905C173.056 32.8905 173.134 32.9165 173.238 32.9686C173.602 32.9165 173.785 32.8384 173.785 32.7342H173.628V32.578C173.941 32.4998 174.097 32.3696 174.097 32.1873H174.566C175.451 32.1873 176.024 31.979 176.285 31.5623L177.066 30.8592V30.9373L176.128 31.9529H176.207C177.027 31.1326 177.6 30.4555 177.925 29.9217H177.847C177.847 30.0258 177.795 30.0779 177.691 30.0779V29.9998C178.108 29.3227 178.342 28.9842 178.394 28.9842C178.394 29.0363 178.42 29.0623 178.472 29.0623L178.394 28.906C179.488 26.9008 180.035 24.8436 180.035 22.7342C180.035 20.6639 179.332 17.8514 177.925 14.2967C176.884 11.4321 176.363 9.29667 176.363 7.89042V7.73417L176.285 7.57792H176.363L176.285 7.42167C176.285 6.09355 176.597 4.84355 177.222 3.67167C177.326 3.6847 177.378 3.73678 177.378 3.82792L177.3 3.98417H177.378C177.378 3.90605 177.899 3.41126 178.941 2.4998C179.136 2.1873 179.371 2.03105 179.644 2.03105V2.03108ZM177.691 4.21908C177.222 5.07845 176.988 5.88574 176.988 6.64095V6.87533L176.91 7.03158H176.988L176.91 7.18783V7.65658C176.91 9.15398 177.326 11.029 178.16 13.2816H178.238L178.16 13.4378C179.826 17.8128 180.66 20.8597 180.66 22.5785C180.712 22.5785 180.738 22.6045 180.738 22.6566H180.66L180.738 22.8128V23.8284C180.738 23.8805 180.712 23.9066 180.66 23.9066C180.66 23.9586 180.686 23.9847 180.738 23.9847C180.686 24.3753 180.634 24.6357 180.582 24.7659H180.66L180.503 25.4691H180.582C180.477 25.7295 180.425 25.9118 180.425 26.0159H180.503L180.347 26.3284C180.399 26.3284 180.425 26.3545 180.425 26.4066H180.347L180.425 26.5628C180.425 26.5889 180.399 26.693 180.347 26.8753V26.9534H180.425L180.738 25.6253C180.686 25.6253 180.66 25.5993 180.66 25.5472C180.764 25.5472 180.816 25.4951 180.816 25.391H180.738L180.816 25.2347V25.0785L180.738 24.9222C180.842 24.9222 180.92 24.5837 180.972 23.9066C180.92 23.9066 180.894 23.8805 180.894 23.8285C180.946 23.8285 180.972 23.8024 180.972 23.7503H180.894C180.946 23.1774 180.998 22.891 181.05 22.891C180.998 22.4222 180.946 22.1878 180.894 22.1878L180.972 22.0316C180.92 21.9404 180.894 21.8363 180.894 21.7191C180.946 21.7191 180.972 21.693 180.972 21.641L180.816 21.5628C180.816 21.5108 180.842 21.4847 180.894 21.4847C180.894 21.3936 180.842 21.1852 180.738 20.8597C180.79 20.8597 180.816 20.8337 180.816 20.7816H180.66C180.66 20.7295 180.686 20.7035 180.738 20.7035C180.686 20.2347 180.608 19.8962 180.503 19.6878C180.608 19.6358 180.686 19.6097 180.738 19.6097V19.5316H180.582C180.582 19.5837 180.556 19.6097 180.503 19.6097C180.503 19.3493 180.451 19.2191 180.347 19.2191L180.425 19.0628L180.269 18.9847L180.347 18.8285L180.269 18.6722L180.425 18.5941C180.425 18.6462 180.451 18.6722 180.503 18.6722C180.399 18.4639 180.347 18.3076 180.347 18.2035H180.269V18.3597C180.165 18.3597 180.113 18.3076 180.113 18.2035C180.165 18.2035 180.191 18.1774 180.191 18.1253H180.035L180.113 17.9691C180.009 17.9691 179.957 17.917 179.957 17.8128V17.7347C179.957 17.6305 180.035 17.5785 180.191 17.5785C180.087 17.3701 180.035 17.2139 180.035 17.1097H179.957V17.1878L180.035 17.5785H179.878L179.957 17.4222C179.813 17.4222 179.709 17.1618 179.644 16.641H179.8V16.8753H179.957V16.7191H180.035V16.9535H179.878V17.0316H180.035C180.035 16.9795 180.061 16.9535 180.113 16.9535C180.308 17.7868 180.464 18.2035 180.582 18.2035V18.1254C180.53 18.1254 180.503 18.0993 180.503 18.0472C180.556 18.0472 180.582 18.0212 180.582 17.9691L180.425 17.891L180.503 17.7347V17.6566H180.347V17.5785C180.347 17.5264 180.373 17.5004 180.425 17.5004C180.295 17.0967 180.191 16.8363 180.113 16.7191C180.165 16.7191 180.191 16.6931 180.191 16.641H180.035L180.113 16.4847L179.957 16.4066L180.035 16.2504V16.1722H179.878C179.878 16.1201 179.905 16.0941 179.957 16.0941C179.852 15.5733 179.722 15.3128 179.566 15.3128L179.644 15.1566C179.54 14.8311 179.436 14.5967 179.332 14.4535H179.41C179.358 14.3493 179.332 14.2712 179.332 14.2191H179.097C179.253 14.5446 179.41 14.9873 179.566 15.5472C179.462 15.5602 179.41 15.6123 179.41 15.7035L179.566 15.6253H179.644V15.7816H179.488V15.8597H179.644C179.644 15.8076 179.67 15.7816 179.722 15.7816L179.8 15.9378H179.722L179.8 16.0941V16.3285L179.644 16.2504V16.3285L179.8 16.4066C179.8 16.3545 179.826 16.3285 179.878 16.3285L179.957 16.7191C179.852 16.7191 179.8 16.641 179.8 16.4847C179.67 16.5889 179.592 16.641 179.566 16.641V16.5629L179.644 16.4066C179.54 16.4066 179.41 16.1983 179.253 15.7816C179.306 15.7816 179.332 15.7556 179.332 15.7035C179.24 15.7035 179.084 15.3129 178.863 14.5316C178.811 14.5316 178.785 14.5056 178.785 14.4535C178.837 14.4535 178.863 14.4274 178.863 14.3754C178.811 14.3754 178.602 13.8806 178.238 12.891H178.316C178.003 12.0837 177.847 11.6149 177.847 11.4847C177.899 11.4847 177.925 11.4587 177.925 11.4066C177.808 11.4066 177.704 11.1462 177.613 10.6254C177.665 10.6254 177.691 10.5993 177.691 10.5472C177.587 10.5472 177.535 10.4952 177.535 10.391L177.613 10.2347H177.457L177.535 10.0785H177.457C177.457 10.0264 177.483 10.0004 177.535 10.0004L177.3 8.82846L177.378 8.67221C177.326 8.41179 177.274 8.28158 177.222 8.28158L177.3 8.12533C177.3 8.07325 177.274 8.04721 177.222 8.04721L177.3 7.89096C177.3 7.83888 177.274 7.81283 177.222 7.81283L177.3 7.65658L177.222 7.50033C177.274 7.39617 177.3 7.31804 177.3 7.26596H177.222L177.3 7.10971C177.3 7.05763 177.274 7.03158 177.222 7.03158L177.3 6.87533V6.79721C177.3 6.74513 177.274 6.71908 177.222 6.71908C177.326 5.80763 177.509 5.00033 177.769 4.29721V4.21908H177.691L177.691 4.21908ZM178.238 11.4851V11.5632C178.342 11.5632 178.394 11.5111 178.394 11.407V11.3288C178.29 11.3418 178.238 11.3939 178.238 11.4851ZM178.394 12.0311V12.1092C178.498 12.1092 178.55 12.0571 178.55 11.953V11.8748C178.446 11.8878 178.394 11.9399 178.394 12.0311ZM178.238 12.2661C178.29 12.3572 178.316 12.4614 178.316 12.5786H178.394V12.3442L178.238 12.2661ZM178.472 12.3441L178.55 12.5003V12.6566H178.394V12.7347H178.55C178.55 12.6826 178.576 12.6566 178.628 12.6566C178.654 13.0732 178.759 13.2816 178.941 13.2816C178.889 13.3857 178.863 13.4639 178.863 13.516C178.863 13.6722 178.941 13.7503 179.097 13.7503L179.019 13.9066C179.071 14.0107 179.097 14.0889 179.097 14.141H179.253V13.9847H179.097L179.175 13.8285C179.123 13.7373 179.097 13.6331 179.097 13.516L178.941 13.5941V13.4378C178.941 13.3857 178.967 13.3597 179.019 13.3597C179.019 13.2035 178.941 13.1253 178.785 13.1253L178.863 12.9691C178.759 12.9691 178.707 12.917 178.707 12.8128C178.759 12.8128 178.785 12.7868 178.785 12.7347C178.681 12.7347 178.628 12.6826 178.628 12.5785C178.681 12.5785 178.707 12.5524 178.707 12.5003C178.654 12.5003 178.628 12.4743 178.628 12.4222C178.681 12.4222 178.707 12.3962 178.707 12.3441H178.628C178.628 12.3962 178.602 12.4222 178.55 12.4222C178.55 12.3701 178.524 12.3441 178.472 12.3441ZM179.097 14.6881V14.8443C179.214 15.1568 179.319 15.3131 179.41 15.3131C179.253 15.0136 179.175 14.8053 179.175 14.6881H179.097ZM179.488 15.9381C179.54 16.0422 179.566 16.1204 179.566 16.1725H179.722C179.67 16.0683 179.644 15.9902 179.644 15.9381H179.488ZM180.191 17.8131V18.0475L180.347 18.1256C180.295 18.0344 180.269 17.9303 180.269 17.8131H180.191V17.8131ZM180.347 18.3601V18.5945C180.243 18.5945 180.191 18.5424 180.191 18.4382L180.347 18.3601ZM180.582 18.4381V18.6725C180.686 18.6725 180.738 18.6204 180.738 18.5162L180.582 18.4381ZM177.691 30.0785V30.1566C177.691 30.2347 177.613 30.3129 177.457 30.391V30.3129C177.457 30.2347 177.535 30.1566 177.691 30.0785ZM177.457 30.391V30.4691C177.457 30.5472 177.378 30.6254 177.222 30.7035V30.6254C177.222 30.5472 177.3 30.4691 177.457 30.391ZM179.019 31.5628L178.628 31.9534H178.707C178.967 31.719 179.097 31.5888 179.097 31.5628H179.019L179.019 31.5628Z" fill="#242A45"/>
</svg>
