<svg width="79" height="34" viewBox="0 0 79 34" fill="none" xmlns="http://www.w3.org/2000/svg">
<path d="M18.9844 3.59408C19.974 3.59408 20.4688 5.13053 20.4688 8.20345C20.4167 11.4587 20.3385 14.2451 20.2344 16.5628H20.3125L20.2344 16.7191C19.9219 25.9508 19.7656 31.0811 19.7656 32.1097C19.7656 32.2399 19.7135 32.5003 19.6094 32.8909L19.4531 32.8128C19.4531 32.8909 19.2969 33.0212 18.9844 33.2034C18.776 32.904 18.6719 32.6696 18.6719 32.5003H18.5938V32.8128C18.5156 32.8128 18.4115 32.6826 18.2813 32.4222L18.3594 32.2659C18.3073 32.1618 18.2813 32.0837 18.2813 32.0316C18.3333 32.0316 18.3594 32.0055 18.3594 31.9534L18.2031 31.8753L18.2813 31.7191C18.2813 31.667 18.2552 31.6409 18.2031 31.6409L18.2813 31.4847C18.2813 31.4326 18.2552 31.4066 18.2031 31.4066L18.2813 31.2503C18.2813 31.1982 18.2552 31.1722 18.2031 31.1722L18.2813 31.0159C18.2813 30.9639 18.2552 30.9378 18.2031 30.9378L18.2813 30.7816C18.2813 30.7295 18.2552 30.7034 18.2031 30.7034C18.2552 30.3389 18.3073 30.1566 18.3594 30.1566L18.2813 30.0003V29.7659C18.2813 29.7139 18.3073 29.6878 18.3594 29.6878L18.2813 29.5316L18.3594 29.3753C18.2552 29.3753 18.2031 29.3232 18.2031 29.2191H18.3594V29.1409L18.2813 28.9847H18.3594C18.3594 28.9326 18.3333 28.9066 18.2813 28.9066L18.3594 28.5159V27.8909L18.4375 27.7347C18.3854 27.7347 18.3594 27.7086 18.3594 27.6566H18.4375L18.3594 27.5003V27.4222C18.3594 27.3701 18.3854 27.3441 18.4375 27.3441C18.4375 27.292 18.4115 27.2659 18.3594 27.2659L18.5156 25.9378C18.4635 25.9378 18.4375 25.9118 18.4375 25.8597H18.5156L18.4375 25.7035C18.4896 25.5993 18.5156 25.5212 18.5156 25.4691H18.4375L18.5156 25.3128C18.5156 25.2608 18.4896 25.2347 18.4375 25.2347L18.5938 24.2972H18.5156L18.5938 24.141V23.9066C18.5938 23.8545 18.5677 23.8285 18.5156 23.8285L18.5938 23.6722V23.4378C18.5938 23.3857 18.5677 23.3597 18.5156 23.3597L18.5938 23.2035L18.5156 23.0472C18.5677 23.0472 18.5938 23.0212 18.5938 22.9691H18.5156C18.5677 22.8389 18.6198 22.5785 18.6719 22.1878H18.5938L18.6719 22.0316L18.5938 21.8753H18.6719L18.5938 21.7191C18.6458 21.6149 18.6719 21.5368 18.6719 21.4847H18.5938L18.6719 21.3285C18.6719 21.2764 18.6458 21.2503 18.5938 21.2503L18.6719 21.0941C18.6719 21.042 18.6458 21.016 18.5938 21.016L18.6719 20.8597C18.6719 20.8076 18.6458 20.7816 18.5938 20.7816L18.75 20.1566H18.6719L18.75 20.0003C18.75 19.9482 18.724 19.9222 18.6719 19.9222L18.75 19.766C18.75 19.7139 18.724 19.6878 18.6719 19.6878L18.75 19.5316C18.75 19.4795 18.724 19.4535 18.6719 19.4535L18.75 19.2972C18.75 19.2451 18.724 19.2191 18.6719 19.2191L18.75 19.0628V18.8284C18.75 18.7764 18.724 18.7503 18.6719 18.7503L18.75 18.5941C18.75 18.542 18.724 18.5159 18.6719 18.5159L18.75 18.3597V18.2034C18.75 18.1514 18.724 18.1253 18.6719 18.1253C18.724 17.5524 18.776 17.2659 18.8281 17.2659L18.75 17.1097L18.8281 16.9534H18.75L18.8281 16.7972C18.8281 16.7451 18.8021 16.7191 18.75 16.7191L18.8281 16.5628L18.75 16.4066H18.8281L18.75 16.2503C18.8021 16.1462 18.8281 16.068 18.8281 16.0159C18.776 16.0159 18.75 15.9899 18.75 15.9378H18.8281C18.8281 15.8857 18.8021 15.8597 18.75 15.8597L18.8281 15.4691V15.3909C18.8281 15.3389 18.8021 15.3128 18.75 15.3128C18.8021 14.792 18.8542 14.5316 18.9063 14.5316L18.8281 14.3753C18.8281 14.3232 18.8542 14.2972 18.9063 14.2972L18.8281 14.1409C18.8802 14.0368 18.9063 13.9587 18.9063 13.9066H18.8281L18.9063 13.7503C18.9063 13.6982 18.8802 13.6722 18.8281 13.6722L18.9063 13.5159C18.9063 13.4639 18.8802 13.4378 18.8281 13.4378L18.9063 13.2816C18.9063 13.2295 18.8802 13.2034 18.8281 13.2034L18.9063 13.0472C18.8542 12.943 18.8281 12.8649 18.8281 12.8128H18.9063L18.8281 12.6566V12.4222L18.9063 12.2659H18.8281L18.9063 12.1097V11.8753L18.8281 11.7191H18.9844L18.9063 11.5628C18.9063 11.5107 18.9323 11.4847 18.9844 11.4847L18.9063 11.3284C18.9583 11.2243 18.9844 11.1461 18.9844 11.0941H18.9063L18.9844 10.9378C18.9844 10.8857 18.9583 10.8597 18.9063 10.8597L18.9844 10.7034L18.9063 10.5472H18.9844L18.9063 10.3909C18.9583 10.2868 18.9844 10.2086 18.9844 10.1566H18.9063L18.9844 10.0003C18.9844 9.94823 18.9583 9.92218 18.9063 9.92218L18.9844 9.76593C18.9844 9.71385 18.9583 9.68781 18.9063 9.68781L18.9844 9.53156C18.9844 9.47948 18.9583 9.45343 18.9063 9.45343L18.9844 9.29718C18.9844 9.2451 18.9583 9.21906 18.9063 9.21906L18.9844 9.06281C18.9844 9.01073 18.9583 8.98468 18.9063 8.98468L18.9844 8.82843C18.9844 8.77635 18.9583 8.75031 18.9063 8.75031L18.9844 8.59406C18.9844 8.54198 18.9583 8.51593 18.9063 8.51593L18.9844 8.35968C18.9844 8.3076 18.9583 8.28156 18.9063 8.28156L18.9844 8.12531C18.9323 8.02114 18.9063 7.94302 18.9063 7.89093C18.9583 7.89093 18.9844 7.86489 18.9844 7.81281H18.8281V7.65656C18.8412 7.55239 18.8932 7.50031 18.9844 7.50031L18.8281 6.71906C18.9323 6.71906 18.9844 6.66698 18.9844 6.56281C18.8802 6.56281 18.8281 6.51073 18.8281 6.40656H18.9063L18.8281 6.25031C18.8281 6.19823 18.8542 6.17218 18.9063 6.17218L18.8281 6.01593C18.8412 5.91177 18.8932 5.85968 18.9844 5.85968V6.01593H19.0625V5.85968C19.0104 5.85968 18.9844 5.83364 18.9844 5.78156H19.0625C19.0625 5.41698 18.9063 5.10448 18.5938 4.84406C18.3594 5.10448 18.2031 5.23468 18.125 5.23468C18.3333 5.98989 18.4896 6.79718 18.5938 7.65656H18.5156L18.5938 7.81281V8.90661C18.5938 9.27119 18.6198 9.84411 18.6719 10.6254H18.5938L18.6719 10.7816L18.5938 11.1722H18.6719L18.5938 11.3285C18.5938 11.3806 18.6198 11.4066 18.6719 11.4066L18.5938 11.5629C18.5938 11.6149 18.6198 11.641 18.6719 11.641L18.5938 11.7972V13.9847C18.5938 14.0368 18.5677 14.0629 18.5156 14.0629L18.5938 14.2191C18.5938 14.2712 18.5677 14.2972 18.5156 14.2972C18.5156 14.3493 18.5417 14.3754 18.5938 14.3754L18.5156 14.766V15.8598C18.5156 15.9119 18.4896 15.9379 18.4375 15.9379L18.5156 16.0942C18.4635 16.1983 18.4375 16.2765 18.4375 16.3285H18.5156L18.4375 16.4848C18.4375 16.5369 18.4635 16.5629 18.5156 16.5629L18.4375 16.7192C18.4375 16.7713 18.4635 16.7973 18.5156 16.7973L18.4375 16.9535C18.4375 17.0056 18.4635 17.0317 18.5156 17.0317L18.4375 17.1879C18.4375 17.24 18.4635 17.266 18.5156 17.266L18.4375 17.4223V18.0473C18.4375 18.0994 18.4635 18.1254 18.5156 18.1254C18.4766 18.3338 18.4245 18.4379 18.3594 18.4379L18.4375 18.5942V18.6723C18.4375 18.7244 18.4115 18.7504 18.3594 18.7504L18.4375 18.9067C18.4375 18.9588 18.4115 18.9848 18.3594 18.9848L18.4375 19.141V19.3754L18.3594 19.5317H18.4375L18.3594 19.6879C18.3594 19.74 18.3854 19.766 18.4375 19.766L18.3594 19.9223C18.3594 19.9744 18.3854 20.0004 18.4375 20.0004L18.3594 20.1567V20.8598C18.3594 20.9119 18.3333 20.9379 18.2813 20.9379L18.3594 21.0942V21.1723C18.3594 21.2895 18.3333 21.3937 18.2813 21.4848C18.3333 21.576 18.3594 21.6801 18.3594 21.7973V22.0317C18.3594 22.0838 18.3333 22.1098 18.2813 22.1098C18.2813 22.1619 18.3073 22.1879 18.3594 22.1879L18.2813 22.5786V23.9849L18.2031 24.1411H18.2813L18.2031 24.2974C18.2031 24.3495 18.2292 24.3755 18.2813 24.3755L18.2031 24.5317V26.0161C18.2031 26.0682 18.1771 26.0943 18.125 26.0943C18.125 26.1463 18.151 26.1724 18.2031 26.1724L18.125 26.563V27.6568C18.125 27.7089 18.099 27.7349 18.0469 27.7349L18.125 27.8912L18.0469 28.0474H18.125L18.0469 28.2037V29.6881L17.9688 30.0787H18.0469L17.9688 30.235V30.6256C17.9688 30.6777 17.9948 30.7037 18.0469 30.7037C17.9427 30.899 17.8906 31.1074 17.8906 31.3287C17.8906 32.3053 17.9688 33.0605 18.125 33.5944H17.8906C17.5911 33.5944 17.4089 32.735 17.3438 31.0162V30.7037C17.3438 30.6516 17.3177 30.6256 17.2656 30.6256L17.3438 30.4694C17.6042 24.9355 17.7344 21.3938 17.7344 19.8444C17.7865 19.8444 17.8125 19.8183 17.8125 19.7662H17.7344L17.8125 19.61V18.5162C17.8125 17.9953 17.8385 17.2141 17.8906 16.1724H17.8125L17.8906 16.0162C17.9427 13.2167 17.9688 11.498 17.9688 10.8599H18.0469L17.9688 10.7037C18.0208 10.5995 18.0469 10.5214 18.0469 10.4693H17.9688L18.0469 10.3131V8.98495C18.0469 8.93287 18.0208 8.90683 17.9688 8.90683L18.0469 8.75058C18.0078 6.71933 17.8776 5.7037 17.6562 5.7037C16.862 6.60214 15.7943 9.25839 14.4531 13.6725C13.9844 15.1568 13.3854 17.3183 12.6562 20.1568C12.7083 20.1568 12.7344 20.1829 12.7344 20.235C12.6302 20.235 12.3698 21.0422 11.9531 22.6568C11.3542 24.3495 10.7292 25.4954 10.0781 26.0943C9.55729 26.5761 8.93229 26.9146 8.20312 27.11C8.20312 27.2532 7.86458 27.3574 7.1875 27.4225C6.45833 27.1881 5.83333 26.485 5.3125 25.3131C4.54427 23.2818 3.73698 20.261 2.89062 16.2506H2.96875C2.44792 14.011 2.16146 12.6308 2.10938 12.11H2.03125C2.03125 12.162 2.00521 12.2402 1.95312 12.3443C1.90104 13.7115 1.875 14.8574 1.875 15.7818V16.4068C1.875 16.4589 1.90104 16.485 1.95312 16.485L1.875 16.6412C1.875 18.1516 2.10938 22.2402 2.57812 28.9068C2.57812 30.6126 2.23958 31.6803 1.5625 32.11H1.48438V31.9537H1.40625L1.25 32.0318C1.19792 31.9277 1.17188 31.8495 1.17188 31.7975C1.43229 31.1464 1.5625 30.5214 1.5625 29.9225H1.64062V30.1568H1.71875V29.1412C1.71875 29.024 1.74479 28.9199 1.79688 28.8287C1.74479 28.7376 1.71875 28.6334 1.71875 28.5162V27.4224C1.71875 27.3704 1.69271 27.3443 1.64062 27.3443C1.64062 27.2922 1.66667 27.2662 1.71875 27.2662C1.51042 25.3 1.40625 24.024 1.40625 23.4381C1.35417 23.4381 1.32812 23.412 1.32812 23.3599H1.40625L1.32812 23.2037V22.1099H1.17188L1.25 21.9536V21.8755C1.25 21.8234 1.22396 21.7974 1.17188 21.7974L1.25 21.6411C1.19792 20.7687 1.17188 20.0917 1.17188 19.6099V19.3755L1.09375 19.2193H1.17188L1.09375 19.063V16.9536C1.09375 16.9015 1.06771 16.8755 1.01562 16.8755L1.09375 16.7192V16.563H0.9375C0.976562 16.3546 1.02865 16.2505 1.09375 16.2505L1.01562 16.0942V15.8599C1.01562 15.8078 1.04167 15.7817 1.09375 15.7817L1.01562 15.6255V15.313L1.09375 14.7661H1.01562L1.09375 14.6098V14.2192C1.09375 13.451 1.06771 12.7739 1.01562 12.188C1.06771 11.8885 1.09375 11.4718 1.09375 10.938C1.14583 10.938 1.17188 10.9119 1.17188 10.8598H1.09375C1.14583 10.7557 1.17188 10.6775 1.17188 10.6255C1.17188 10.0265 1.22396 9.53172 1.32812 9.14109H1.25C1.30208 9.03692 1.32812 8.9588 1.32812 8.90672C1.32812 8.81557 1.30208 8.50307 1.25 7.96922H1.09375C1.14583 7.86505 1.17188 7.78692 1.17188 7.73484V7.65672H1.09375C0.625 10.9249 0.390625 13.7114 0.390625 16.0161V16.7973C0.390625 20.4562 0.572917 23.6072 0.9375 26.2505C0.9375 26.3025 0.911458 26.3286 0.859375 26.3286C1.01562 27.7609 1.09375 29.063 1.09375 30.2348C0.963542 31.6671 0.807292 32.3963 0.625 32.4223H0.546875C0.546875 32.3572 0.520833 32.0968 0.46875 31.6411C0.625 31.0031 0.703125 30.2999 0.703125 29.5317L0.078125 19.2977C0.0260417 18.7248 0 17.605 0 15.9383C0 13.2951 0.260417 9.98782 0.78125 6.01647H0.859375V6.25084H0.9375V6.01647H1.01562L1.32812 6.48522H1.48438C1.97917 5.70397 2.26562 5.31334 2.34375 5.31334C2.4349 5.26126 2.5651 5.23522 2.73438 5.23522C2.83854 5.33938 3.09896 6.74563 3.51563 9.45397C4.81771 15.4045 5.83333 19.8316 6.5625 22.7352C7.2526 24.7144 7.8776 25.704 8.4375 25.704V25.6258C9.11458 24.6493 10.026 22.0451 11.1719 17.8133L12.0313 15.0789C11.9792 15.0789 11.9531 15.0529 11.9531 15.0008C12.0964 15.0008 12.2005 14.7925 12.2656 14.3758C12.5781 13.5555 12.8385 12.7743 13.0469 12.0321L13.2031 12.1102L13.125 11.9539V11.8758L13.2813 11.9539V11.7977C13.2813 11.7456 13.2552 11.7196 13.2031 11.7196C13.3073 11.5112 13.3594 11.3289 13.3594 11.1727L13.5156 11.2508L13.4375 11.0946L13.5156 10.7039L13.6719 10.7821C13.6198 10.6779 13.5938 10.5998 13.5938 10.5477V10.4696H13.6719V10.6258H13.75V10.5477C13.6979 10.4435 13.6719 10.3654 13.6719 10.3133L13.8281 10.3914C13.776 10.2873 13.75 10.2091 13.75 10.1571V10.0789H13.8281V10.2352H13.9063V10.1571C13.8542 10.0659 13.8281 9.96175 13.8281 9.84456L13.9844 9.92268L13.9063 9.76643V9.68831L14.0625 9.76643L13.9844 9.61018V9.45394L14.1406 9.53206C14.1406 9.45394 14.375 8.9331 14.8438 7.96956C14.7917 7.96956 14.7656 7.94352 14.7656 7.89144C14.8828 7.89144 15.0651 7.57894 15.3125 6.95394C15.2604 6.95394 15.2344 6.92789 15.2344 6.87581C15.3646 6.87581 15.6771 6.40706 16.1719 5.46956C16.6667 4.94873 17.0052 4.68831 17.1875 4.68831C17.8776 3.95914 18.4766 3.59456 18.9844 3.59456V3.59408ZM18.9054 5.62508V5.85946C18.8012 5.85946 18.7491 5.80737 18.7491 5.70321L18.9054 5.62508ZM15.7024 6.95308C14.192 9.92183 12.317 15.5468 10.0774 23.8281C10.0123 23.8281 9.90811 24.0885 9.76488 24.6093C10.0644 24.3489 10.6112 22.8645 11.4055 20.1562C12.6034 15.5208 14.0618 11.1458 15.7805 7.0312V6.95308H15.7024ZM2.42138 8.82808L2.187 10.7031C2.82502 14.2968 3.21565 16.0937 3.35888 16.0937C3.35888 16.1458 3.33283 16.1718 3.28075 16.1718C4.07502 20.3645 4.9344 23.5156 5.85888 25.625C6.3146 26.25 6.60106 26.5625 6.71825 26.5625V26.4843C6.64013 26.4843 6.562 26.4062 6.48388 26.25H6.562C6.73127 26.3541 6.88752 26.4062 7.03075 26.4062H7.10888C7.21304 26.4062 7.26513 26.3541 7.26513 26.25C7.187 26.25 7.08283 26.1458 6.95263 25.9375C7.00471 25.9375 7.03075 25.9114 7.03075 25.8593C6.8745 25.8593 6.79638 25.8072 6.79638 25.7031C6.84846 25.7031 6.8745 25.677 6.8745 25.625L6.48387 25.3906C6.48387 25.3385 6.50991 25.3124 6.56199 25.3124C6.56199 25.2734 6.45783 25.039 6.24949 24.6093C6.30158 24.6093 6.32762 24.5833 6.32762 24.5312C6.23647 24.5312 6.08022 24.2187 5.85887 23.5937C5.91095 23.5937 5.93699 23.5677 5.93699 23.5156C5.81981 23.5156 5.50731 22.4739 4.99949 20.3906L3.74949 14.7656H3.67137L3.74949 14.6093C3.22866 12.0963 2.91616 10.6901 2.812 10.3906H2.89012C2.78595 10.1562 2.68179 9.63536 2.57762 8.82807H2.42137L2.42138 8.82808ZM1.09328 12.0311V12.7342H1.17141V12.0311H1.09328ZM0.93708 13.2031H1.01521V13.9843H0.93708V13.2031ZM8.74958 25.391C8.74958 25.4431 8.72354 25.5212 8.67146 25.6254H8.74958L8.82771 25.4691V25.391H8.74958ZM39.4136 1.01608C40.9761 1.27649 41.7574 2.29212 41.7574 4.06295V4.2192C41.7574 5.03951 41.5751 5.48222 41.2105 5.54733H41.1324C41.0933 5.18274 41.0412 5.00045 40.9761 5.00045L41.1324 4.60982C41.1324 3.56815 40.7938 2.83899 40.1168 2.42232C39.9084 2.39628 39.8043 2.31815 39.8043 2.18795L39.648 2.26607C39.5569 2.21399 39.4527 2.18795 39.3355 2.18795V2.3442C39.4527 2.3442 39.5829 2.4744 39.7261 2.73482H39.648C40.1688 3.47701 40.4293 4.23222 40.4293 5.00045V5.7817C40.4293 5.88586 40.3772 5.93795 40.273 5.93795L40.1168 5.39107C40.1168 5.33898 40.1428 5.31294 40.1949 5.31294C40.1949 3.97179 39.7001 3.08638 38.7105 2.65669C38.5022 2.60461 38.3199 2.57857 38.1636 2.57857C37.5256 2.57857 37.0829 2.83898 36.8355 3.35982C36.6272 3.67232 36.523 3.88065 36.523 3.98482C36.5751 3.98482 36.6011 4.01086 36.6011 4.06294C36.4188 4.06294 36.1845 4.45357 35.898 5.23482C35.9501 5.23482 35.9761 5.26086 35.9761 5.31294C35.7938 5.31294 35.5334 6.01607 35.1949 7.42232C35.247 7.42232 35.273 7.44836 35.273 7.50044C35.1037 7.51346 34.9215 8.1645 34.7261 9.45357C33.9449 13.6072 33.5543 17.4353 33.5543 20.9379C33.5022 20.9379 33.4761 21.3286 33.4761 22.1098H33.398C33.398 22.1619 33.4241 22.1879 33.4761 22.1879C33.4761 22.214 33.4501 22.3181 33.398 22.5004C33.398 23.2036 33.372 24.4275 33.3199 26.1723C33.3199 29.9223 34.0751 31.7973 35.5855 31.7973H35.6636C36.8746 31.7973 38.0985 31.0942 39.3355 29.6879L40.3511 28.8286C40.4553 28.8806 40.5334 28.9067 40.5855 28.9067C40.273 29.9874 39.3876 31.0551 37.9292 32.1098C36.2365 33.0994 34.8824 33.5942 33.8667 33.5942H33.5542C32.174 33.5942 31.1845 32.6567 30.5855 30.7817C30.3251 29.6489 30.1949 28.2687 30.1949 26.6411C30.1949 26.589 30.1688 26.5629 30.1167 26.5629L30.1949 26.4067C30.1949 23.477 30.6897 18.451 31.6792 11.3286C32.148 9.20617 32.5386 7.79991 32.8511 7.10981H32.9292L32.8511 6.95356L33.0074 6.87543L32.9292 6.71918V6.64106L33.0855 6.71918C33.0855 6.602 33.1115 6.49783 33.1636 6.40668C33.1115 6.40668 33.0855 6.38064 33.0855 6.32856C33.1766 6.26346 33.5933 5.48221 34.3355 3.98481L34.4917 3.90668L34.5699 4.06293L34.1792 4.68793V4.76606H34.2574C34.5048 3.99783 35.5464 2.93012 37.3824 1.56294C38.0855 1.19835 38.7626 1.01606 39.4136 1.01606L39.4136 1.01608ZM34.1792 5.78108C34.1792 5.9243 34.1272 6.08055 34.023 6.24983H34.1792L34.2574 5.85919V5.78107H34.1792V5.78108ZM33.9448 6.32808L34.023 6.48433C33.9448 6.48433 33.8667 6.58849 33.7886 6.79683C33.8407 6.79683 33.8667 6.82287 33.8667 6.87495H33.7105L33.7886 7.0312C33.6844 7.04422 33.6323 7.0963 33.6323 7.18745C33.6844 7.18745 33.7105 7.21349 33.7105 7.26558H33.5542C33.5542 7.31766 33.5803 7.3437 33.6323 7.3437C33.4631 7.61714 33.3068 8.05985 33.1636 8.67183C33.2157 8.67183 33.2417 8.69787 33.2417 8.74995C33.0073 8.74995 32.6948 10.052 32.3042 12.6562C32.2521 12.6562 32.2 12.8385 32.148 13.2031H32.2261L31.9917 14.2969H32.0698L31.9136 15H31.9917C31.8875 15.4948 31.7573 16.6406 31.6011 18.4375H31.6792C31.6271 18.5287 31.575 18.8412 31.523 19.375H31.6011C31.4969 19.5313 31.3928 20.651 31.2886 22.7344C31.3407 22.7344 31.3667 22.7604 31.3667 22.8125C31.2625 22.8255 31.2105 22.8776 31.2105 22.9688H31.4448L31.523 22.5C31.4709 22.5 31.4448 22.474 31.4448 22.4219C31.4969 22.4219 31.523 22.3958 31.523 22.3438H31.4448L31.523 22.1875L31.7573 18.5937C31.7053 18.5937 31.6792 18.5677 31.6792 18.5156C31.7834 18.5156 31.8355 18.4635 31.8355 18.3593V18.0468C31.8355 17.9947 31.8094 17.9687 31.7573 17.9687C31.8485 17.6302 32.0047 16.5885 32.2261 14.8437H32.148L32.3824 13.7499H32.3042C32.773 10.8593 33.3459 8.43741 34.023 6.48428C34.0751 6.48428 34.1011 6.4322 34.1011 6.32803H33.9449L33.9448 6.32808ZM31.2104 23.2031L31.2886 23.3593C31.2365 23.3593 31.2104 23.3854 31.2104 23.4375C31.2625 23.4375 31.2886 23.4635 31.2886 23.5156C31.2365 23.5156 31.2104 23.5416 31.2104 23.5937H31.2886L31.2104 23.75V23.9062C31.2104 23.9583 31.2365 23.9843 31.2886 23.9843C31.1844 24.2838 31.1323 24.8567 31.1323 25.7031H31.2104C31.1584 25.8072 31.1323 25.8854 31.1323 25.9375V26.7968H31.2104C31.2625 25.1692 31.3407 23.9192 31.4448 23.0468H31.3667C31.2625 23.0599 31.2104 23.1119 31.2104 23.2031V23.2031ZM31.1323 27.0316V27.891H31.2105V27.0316H31.1323ZM31.1323 29.3753V29.4534C31.2235 30.1956 31.3537 30.7685 31.523 31.1721H31.6011C31.6011 31.081 31.549 30.8727 31.4448 30.5471H31.523C31.3667 30.1956 31.2626 29.805 31.2105 29.3753H31.1323ZM32.3823 31.4847V31.5628C32.4735 31.7711 32.5777 31.8753 32.6948 31.8753V31.9534L32.6167 32.1097L32.773 32.0315H32.8511L32.773 32.1878V32.2659L33.1636 32.344C32.799 31.8362 32.5386 31.5498 32.3823 31.4847H32.3823ZM52.5578 2.07108C53.4693 2.07108 53.7688 3.50337 53.4563 6.36795L52.6555 16.2313C52.6034 16.2313 52.5773 16.2573 52.5773 16.3094H52.6555L52.5773 16.4461C52.5253 18.3081 52.4992 19.7078 52.4992 20.6453V20.7234L52.4211 20.8602H52.4992L52.4211 20.9969V22.9891C52.4211 25.1245 52.4471 27.618 52.4992 30.4695C52.4992 31.5373 52.3527 32.2534 52.0598 32.618C51.7668 32.9826 51.6008 33.1649 51.5617 33.1649V33.0867C51.6138 32.9956 51.6398 32.9305 51.6398 32.8914H51.5617L51.1125 33.243C51.1125 33.1909 51.0865 33.1649 51.0344 33.1649C51.0344 33.2169 51.0083 33.243 50.9562 33.243V32.8133L51.0344 32.6766C50.9823 32.6766 50.9562 32.6505 50.9562 32.5985H51.0344C50.9823 32.5333 50.9562 32.3901 50.9562 32.1688C50.8651 32.1818 50.8195 32.2274 50.8195 32.3055C50.8195 32.3576 50.8391 32.3836 50.8781 32.3836L50.8195 32.5203V33.1649C50.8195 33.256 50.7674 33.3016 50.6633 33.3016L50.7414 33.4578V33.5164L50.3508 33.5945C50.2075 33.3472 50.0839 32.8979 49.9797 32.2469C49.9797 32.1948 50.0057 32.1688 50.0578 32.1688C49.7974 29.7729 49.6672 27.8263 49.6672 26.3289V26.2703C49.563 26.036 48.4237 25.9188 46.2492 25.9188V25.9774L46.093 25.9188H44.4328C44.0812 25.9188 43.9054 26.2508 43.9054 26.9149L43.4367 28.9657C43.4888 28.9657 43.5148 28.9917 43.5148 29.0438C43.3846 29.0438 43.2609 29.3498 43.1437 29.9618C42.8833 30.5868 42.5513 31.1336 42.1476 31.6024C42.1997 31.6024 42.2257 31.6284 42.2257 31.6805C42.0955 31.6805 41.9197 31.7716 41.6984 31.9539C41.6984 31.8498 41.5942 31.7782 41.3859 31.7391C42.2973 30.1245 42.7531 28.7769 42.7531 27.6961C42.8312 27.592 42.9354 27.0907 43.0656 26.1922H42.8312C42.701 26.1922 42.5512 26.8107 42.382 28.0477C42.4341 28.0477 42.4601 28.0672 42.4601 28.1063C42.369 28.1063 42.1411 28.9396 41.7765 30.6063C41.7244 30.6063 41.6203 30.8407 41.464 31.3094C41.5161 31.3094 41.5421 31.3354 41.5421 31.3875C41.438 31.3875 41.2622 31.6479 41.0148 32.1688H40.8585V32.0907C41.158 31.4396 41.4119 30.756 41.6203 30.0399V29.9618C41.5682 29.8706 41.5421 29.799 41.5421 29.7469L41.6984 29.825L41.6203 29.5321L41.9913 27.911H41.9132C42.0174 27.6115 42.3234 25.9253 42.8312 22.8524H42.7531C42.8572 22.6831 42.9093 22.4943 42.9093 22.286H42.8312C42.9223 22.1167 43.0265 21.687 43.1437 20.9969H43.0656C43.8208 17.0386 44.7062 13.7443 45.7218 11.1141C47.2973 7.06461 48.5408 4.57112 49.4523 3.63362V3.71175L49.296 3.92659H49.3742C49.3872 3.82242 49.4328 3.77034 49.5109 3.77034C49.5109 3.82242 49.5369 3.84846 49.589 3.84846V3.77034C49.5369 3.77034 49.5109 3.7508 49.5109 3.71174C49.8624 3.3732 50.2205 3.20393 50.5851 3.20393V3.06721H50.4288V2.98908C50.5591 2.98908 51.0408 2.72867 51.8742 2.20783C52.1085 2.11669 52.3364 2.07112 52.5578 2.07112L52.5578 2.07108ZM50.5073 2.71508H50.7417V2.77367L50.2729 2.85179C50.2729 2.76065 50.3511 2.71508 50.5073 2.71508H50.5073ZM49.7456 3.28108V3.3592C49.7456 3.45035 49.6935 3.49592 49.5894 3.49592V3.41779C49.6024 3.32665 49.6545 3.28108 49.7456 3.28108ZM51.9528 3.41808C52.0179 3.61339 52.1416 3.75662 52.3239 3.84776C52.3239 3.79568 52.35 3.72407 52.402 3.63292H52.3239C52.3239 3.685 52.2979 3.71104 52.2458 3.71104C52.2458 3.47667 52.2002 3.35948 52.1091 3.35948L51.9528 3.41808ZM51.562 3.77007L52.0308 5.27398C52.0308 5.32606 52.0047 5.3521 51.9526 5.3521L52.0308 5.70366V6.91456L51.9526 7.05128H52.0308C51.9787 7.14243 51.9526 7.21404 51.9526 7.26612C51.7964 9.72706 51.6467 11.27 51.5034 11.895H51.562C51.4448 12.8456 51.3732 13.3208 51.3472 13.3208C51.3472 13.3599 51.3732 13.3794 51.4253 13.3794L51.1128 16.0161L51.1909 16.1528C51.1388 16.244 51.1128 16.3416 51.1128 16.4458C51.1649 16.4458 51.1909 16.4718 51.1909 16.5239H51.0347C51.0868 16.602 51.1128 16.6932 51.1128 16.7974H51.1909L51.269 16.4458H51.1909C51.2821 16.1073 51.3862 15.5148 51.5034 14.6685C51.5034 14.6164 51.4774 14.5903 51.4253 14.5903L51.7964 11.5434H51.7183L51.8745 11.0356H51.7964L51.8745 10.8989V10.5473C51.8745 10.4953 51.8485 10.4692 51.7964 10.4692C51.9006 10.313 51.9526 10.1697 51.9526 10.0395V9.9028L51.8745 9.74655H52.0308L51.9526 9.60984C52.0047 9.60984 52.0308 9.5903 52.0308 9.55124H51.9526C52.0047 9.55124 52.0568 9.07598 52.1089 8.12546C52.0568 8.12546 52.0308 8.09942 52.0308 8.04734C52.1349 8.04734 52.187 8.00176 52.187 7.91062V7.83249C52.187 7.78041 52.161 7.75437 52.1089 7.75437C52.161 7.3377 52.2065 7.12937 52.2456 7.12937C52.2456 7.07728 52.2261 7.05124 52.187 7.05124L52.2456 6.56296V5.27386L52.187 5.13714H52.2456L52.187 4.98089V4.9223C52.187 4.87021 52.2065 4.84417 52.2456 4.84417L51.9526 3.98479C52.0047 3.98479 52.0308 3.96526 52.0308 3.9262H51.9526C51.9526 3.96526 51.9266 3.98479 51.8745 3.98479L51.7964 3.71135H51.7183L51.562 3.77007ZM49.8237 6.48507L49.9018 6.6218C49.7456 6.6218 49.3615 7.40305 48.7495 8.96555C48.1505 10.2937 47.4474 12.1687 46.6401 14.5905C46.6792 14.5905 46.6987 14.6166 46.6987 14.6687C46.5425 14.6687 46.3667 15.1635 46.1714 16.153C46.1063 16.153 46.0347 16.3679 45.9565 16.7976C45.9956 16.7976 46.0151 16.8236 46.0151 16.8757C45.8849 16.8757 45.657 17.7286 45.3315 19.4343C45.1362 20.2546 44.7847 22.084 44.2768 24.9226C44.8888 24.7793 45.9044 24.7077 47.3237 24.7077H47.6948L48.6128 24.7663V24.7077L48.7495 24.7663H49.6675V23.9851C49.6675 23.946 49.6414 23.9265 49.5893 23.9265L49.6675 23.7702C49.6675 22.1556 50.1753 16.752 51.1909 7.5593C51.243 7.5593 51.269 7.17518 51.269 6.40695C51.3211 6.40695 51.3472 6.38742 51.3472 6.34836H51.269L51.3472 6.19211V5.27414L51.269 5.13742H51.3472C51.3081 5.00721 51.256 4.72075 51.1909 4.27804C50.7482 4.78586 50.2925 5.52153 49.8237 6.48507V6.48507ZM48.1441 7.12908C48.1441 7.2072 48.0985 7.32439 48.0074 7.48064H48.066L48.2222 7.18767V7.12907H48.1441V7.12908ZM47.9292 7.55908C47.0178 9.69449 46.3602 11.3026 45.9566 12.3833C45.9956 12.3833 46.0152 12.4093 46.0152 12.4614C45.8719 12.4614 45.6961 12.9106 45.4878 13.8091C44.6284 16.0096 44.023 18.3338 43.6714 20.7817C43.1636 23.3729 42.9097 24.8898 42.9097 25.3325H42.9878C43.2352 25.3325 43.3849 24.8638 43.437 23.9263C43.4891 23.9263 43.5152 23.9002 43.5152 23.8481H43.437L43.5933 23.4184H43.5152L44.4331 18.5161H44.355L44.5112 18.2232H44.4331L44.8042 16.8755H44.7261C45.3381 14.727 46.0477 12.5916 46.855 10.4692C46.8029 10.4692 46.7769 10.4432 46.7769 10.3911C46.9201 10.3911 47.1024 10.0135 47.3237 9.25829C47.493 8.95881 47.7404 8.3924 48.0659 7.55907H47.9292L47.9292 7.55908ZM51.0347 16.8751V17.3048C51.0347 17.3438 51.0608 17.3634 51.1128 17.3634L51.0347 17.5196V17.6563H51.191V16.8751H51.0347V16.8751ZM51.0347 17.7351C51.0347 17.8262 51.0087 17.8718 50.9566 17.8718L51.0347 18.0085C50.9826 18.0997 50.9566 18.1713 50.9566 18.2234L51.0347 18.3601C50.9826 18.4512 50.9566 18.5489 50.9566 18.653V18.7312H51.1128V17.7351H51.0347V17.7351ZM50.9566 18.9261C50.9566 19.0302 50.9306 19.0823 50.8785 19.0823L50.9566 19.219L50.8785 19.3558C50.9306 19.4469 50.9566 19.5185 50.9566 19.5706C50.9045 19.5706 50.8785 19.5967 50.8785 19.6487C50.9306 19.6487 50.9566 19.6748 50.9566 19.7269C50.9045 19.7269 50.8785 19.7464 50.8785 19.7855C50.9306 19.7855 50.9566 19.8115 50.9566 19.8636H50.8199V19.9222H50.9566L51.0347 19.7854V18.9261H50.9566V18.9261ZM50.8198 20.3521L50.9565 20.4302V20.2154C50.8654 20.2284 50.8198 20.274 50.8198 20.3521V20.3521ZM50.8003 30.5668C51.0738 31.96 51.1258 28.7243 50.9566 20.8597V20.5668C50.7482 20.2803 50.6961 23.6136 50.8003 30.5668ZM50.8198 31.6019L50.9565 31.68V31.4652C50.8654 31.4782 50.8198 31.5238 50.8198 31.6019V31.6019ZM50.8784 31.7386C50.8784 31.8427 50.8589 31.8948 50.8198 31.8948C50.8589 31.986 50.8784 32.0511 50.8784 32.0901H50.9565V31.7386H50.8784ZM61.7183 7.53403e-05H61.8745C64.4917 7.53403e-05 66.6792 1.40633 68.437 4.21883C69.1662 5.85945 69.5308 7.44799 69.5308 8.98445V9.60945L69.6089 9.7657C69.5568 9.7657 69.5308 9.79174 69.5308 9.84383H69.6089C69.3615 11.7318 69.075 13.1121 68.7495 13.9845C68.2547 15.1173 67.6297 16.3673 66.8745 17.7345C66.9266 17.7345 66.9526 17.7605 66.9526 17.8126C66.8094 17.8256 66.3146 18.6068 65.4683 20.1563C64.5698 21.5626 63.2157 23.1772 61.4058 25.0001C61.0021 25.2996 60.6375 25.56 60.312 25.7813C60.312 26.0027 61.562 27.3568 64.062 29.8438L65.7026 30.547L65.6245 30.7032V30.7813L65.7026 30.9376H65.4682L65.5464 31.0938C65.312 31.0938 64.7651 31.2501 63.9057 31.5626H63.8276C62.8901 31.5626 61.7443 30.8074 60.3901 29.297C59.8432 28.6199 59.2703 28.0209 58.6714 27.5001C58.6714 28.0079 58.6453 28.2683 58.5932 28.2813H58.6714L58.5932 28.4376V30.1564C58.5932 31.9272 58.437 32.8126 58.1245 32.8126L57.4995 33.2033H57.4214L57.4995 33.047V32.9689C57.4474 32.9689 57.3693 32.9428 57.2651 32.8908V33.1251H57.0307C56.9266 33.1251 56.8745 33.0731 56.8745 32.9689H56.9526C56.9005 32.4481 56.8484 32.1876 56.7963 32.1876L56.8745 32.0314C56.8745 31.9793 56.8484 31.9533 56.7963 31.9533L56.8745 31.797L56.7963 31.2501C56.8484 31.2501 56.8745 31.2241 56.8745 31.172C56.8224 31.172 56.7963 31.146 56.7963 31.0939C56.8484 31.0939 56.8745 31.0678 56.8745 31.0158C56.8224 31.0158 56.7963 30.9897 56.7963 30.9376H56.8745L56.7963 30.7814V30.2345L56.8745 30.0783C56.8224 30.0783 56.7963 30.0522 56.7963 30.0001C56.8484 30.0001 56.8745 29.9741 56.8745 29.922C56.8224 29.922 56.7963 29.896 56.7963 29.8439H56.8745L56.7963 29.6876V29.5314L56.8745 29.3751C56.8224 29.3751 56.7963 29.3491 56.7963 29.297C56.8484 29.297 56.8745 29.271 56.8745 29.2189C56.8224 29.2189 56.7963 29.1928 56.7963 29.1408C56.8484 29.1408 56.8745 29.1147 56.8745 29.0626H56.7182L56.7963 28.9064V28.8283C56.7963 28.7762 56.7703 28.7501 56.7182 28.7501L56.7963 28.5939V24.297C56.7963 24.2449 56.7703 24.2189 56.7182 24.2189L56.7963 24.0626V23.9845C56.7963 23.9324 56.7703 23.9064 56.7182 23.9064C56.7703 23.4376 56.8224 23.2032 56.8745 23.2032L56.7963 23.047V22.6563C56.7963 22.6043 56.8224 22.5782 56.8745 22.5782L56.7963 22.422V22.2657L56.8745 22.1095C56.8224 22.1095 56.7963 22.0834 56.7963 22.0313C56.8484 22.0313 56.8745 22.0053 56.8745 21.9532C56.8224 21.9532 56.7963 21.9272 56.7963 21.8751C56.8484 21.8751 56.8745 21.8491 56.8745 21.797C56.8224 21.797 56.7963 21.7709 56.7963 21.7188H56.8745L56.7963 21.5626L56.8745 21.4063C56.8224 21.4063 56.7963 21.3803 56.7963 21.3282H56.8745L56.7963 21.172V19.6876C56.7963 19.6355 56.8224 19.6095 56.8745 19.6095L56.7963 19.4532L56.8745 19.297C56.8224 19.297 56.7963 19.2709 56.7963 19.2188C56.8484 19.2188 56.8745 19.1928 56.8745 19.1407H56.7963L56.8745 18.9845V18.672C56.8745 18.6199 56.8484 18.5938 56.7963 18.5938L56.8745 18.4376V18.2813L56.7963 18.1251C56.8484 18.1251 56.8745 18.099 56.8745 18.047C56.8224 18.047 56.7963 18.0209 56.7963 17.9688C56.8484 17.9688 56.8745 17.9428 56.8745 17.8907H56.7963L56.8745 17.7345V17.1095C56.8745 17.0574 56.8484 17.0313 56.7963 17.0313L56.8745 16.8751V13.7501C56.8745 13.698 56.9005 13.672 56.9526 13.672L56.8745 13.5157C56.8745 13.4636 56.9005 13.4376 56.9526 13.4376L56.8745 13.2813V13.1251C56.8745 13.073 56.9005 13.047 56.9526 13.047L56.8745 12.8907C56.8745 12.8386 56.9005 12.8126 56.9526 12.8126L56.8745 12.6563V12.5001L56.9526 12.1094H56.8745L56.9526 11.9532C56.9005 11.849 56.8745 11.7709 56.8745 11.7188H56.9526L56.8745 11.5626C56.8745 11.5105 56.9005 11.4844 56.9526 11.4844L56.8745 11.3282L56.9526 11.1719H56.8745L56.9526 11.0157C56.9526 10.9636 56.9266 10.9376 56.8745 10.9376L56.9526 10.7813C56.9526 10.7292 56.9266 10.7032 56.8745 10.7032L56.9526 10.5469C56.9526 10.4949 56.9266 10.4688 56.8745 10.4688L56.9526 10.3126C56.9526 10.2605 56.9266 10.2344 56.8745 10.2344L56.9526 10.0782V8.90629L57.0307 8.75004H56.9526L57.0307 8.59379C57.0307 8.54171 57.0047 8.51567 56.9526 8.51567L57.0307 8.35942L56.9526 8.20317C57.0047 8.099 57.0307 8.02088 57.0307 7.96879C56.9786 7.96879 56.9526 7.94275 56.9526 7.89067L57.1088 7.81254L57.0307 7.65629V7.34379L57.1088 7.18754H57.0307L57.1088 7.03129L57.0307 6.87504C57.0828 6.87504 57.1088 6.849 57.1088 6.79692C57.0568 6.79692 57.0307 6.77088 57.0307 6.71879C57.0828 6.71879 57.1088 6.69275 57.1088 6.64067C57.0568 6.64067 57.0307 6.61463 57.0307 6.56254C57.0828 6.56254 57.1088 6.5365 57.1088 6.48442H57.0307L57.1088 6.32817V6.25004C57.1088 6.19796 57.0828 6.17192 57.0307 6.17192L57.1088 6.01567V5.46879C57.1088 5.41671 57.0828 5.39067 57.0307 5.39067L57.187 4.68754C57.1349 4.68754 57.1088 4.66149 57.1088 4.60941C57.1609 4.60941 57.187 4.58337 57.187 4.53129C57.1349 4.53129 57.1088 4.50524 57.1088 4.45316C57.1609 4.45316 57.187 4.42712 57.187 4.37504C57.1349 4.37504 57.1088 4.34899 57.1088 4.29691C57.1609 4.29691 57.187 4.27087 57.187 4.21879C57.1349 4.21879 57.1088 4.19274 57.1088 4.14066H57.187L57.3432 4.21879V4.14066C57.2391 4.08858 57.1609 4.06254 57.1088 4.06254V3.98441C57.2651 3.98441 57.3432 3.93233 57.3432 3.82816H57.2651L57.3432 3.67191V3.28128C57.3432 3.2292 57.3172 3.20316 57.2651 3.20316L57.3432 3.04691V1.56251C57.3432 0.872401 57.4734 0.481776 57.7338 0.39063H57.812C58.1505 0.39063 58.3588 3.9323 58.437 11.0156C58.5411 15.0781 58.6193 20.0521 58.6713 25.9375L60.5463 24.375C62.1349 22.6302 63.5932 20.599 64.9213 18.2813C65.8588 16.5365 66.3276 15.599 66.3276 15.4688L66.1713 15.5469V15.4688L66.4057 14.9219C66.3536 14.9219 66.3276 14.8958 66.3276 14.8438C66.562 14.8438 66.8745 13.9063 67.2651 12.0313C67.4734 11.3151 67.5776 10.4297 67.5776 9.375C67.5776 5.5599 65.963 2.92969 62.7339 1.48438C62.7339 1.53646 62.7078 1.5625 62.6557 1.5625C62.6557 1.35417 62.0568 1.19792 60.8589 1.09375H60.6245C60.4031 1.09375 59.674 1.25 58.437 1.5625L59.1401 0.9375C59.2703 0.742188 59.5568 0.533854 59.9995 0.3125V0.390625C60.5333 0.130208 61.1063 0 61.7182 0L61.7183 7.53403e-05ZM62.6558 0.938075V1.0162C63.8927 1.5761 64.7 2.04485 65.0776 2.42245C65.0256 2.42245 64.9995 2.44849 64.9995 2.50058C65.937 3.15162 66.7964 4.4537 67.5776 6.40683H67.4995C67.812 7.3313 67.9683 8.50318 67.9683 9.92245V10.235C67.9683 10.287 67.9943 10.3131 68.0464 10.3131L67.9683 10.4693V11.0162L68.0464 11.1725C67.9552 11.1725 67.7729 11.9797 67.4995 13.5943C67.2261 14.4407 66.8354 15.3782 66.3276 16.4068V16.485C66.3927 16.485 66.6011 16.1464 66.9526 15.4693C66.9006 15.4693 66.8745 15.4433 66.8745 15.3912C67.1349 15.2089 67.5516 14.1412 68.1245 12.1881C68.1766 11.8626 68.2547 11.5501 68.3589 11.2506H68.2808C68.3328 11.1334 68.411 10.7428 68.5151 10.0787C68.4631 10.0787 68.437 10.0527 68.437 10.0006C68.4891 10.0006 68.5151 9.97454 68.5151 9.92246H68.437C68.4891 9.83131 68.5151 9.72714 68.5151 9.60996H68.5933V9.84433H68.6714V8.35993L68.5933 8.20368C68.6453 8.20368 68.6714 8.17764 68.6714 8.12556L68.5151 8.04743L68.5933 7.89118C68.5933 6.64118 68.0464 5.15681 66.9526 3.43806C65.6115 1.96671 64.4396 1.15941 63.437 1.01619C63.437 0.912019 63.2808 0.859935 62.9683 0.859935C62.8771 0.912019 62.7729 0.93806 62.6558 0.93806V0.938075ZM62.8902 0.938075H63.0464C63.1506 0.990158 63.2287 1.0162 63.2808 1.0162V1.09433H63.1245C63.0204 1.04224 62.9422 1.0162 62.8902 1.0162V0.938075ZM56.4058 1.25008H56.4839V1.40633L56.6401 1.3282C56.6401 1.38028 56.6662 1.45841 56.7183 1.56258H56.6401C56.6401 1.61466 56.6662 1.6407 56.7183 1.6407C56.6662 2.34383 56.6401 2.86466 56.6401 3.2032V5.0782C56.6401 5.13028 56.6662 5.15633 56.7183 5.15633C56.6792 5.36466 56.6271 5.46883 56.562 5.46883L56.6401 5.62508V5.78133C56.6401 5.83341 56.6141 5.85945 56.562 5.85945L56.6401 6.0157V6.71883C56.6401 6.77091 56.6141 6.79696 56.562 6.79696L56.6401 6.95321C56.6401 7.00529 56.6141 7.03133 56.562 7.03133L56.6401 7.18758L56.562 7.57821C56.6141 7.57821 56.6401 7.60425 56.6401 7.65633C56.5881 7.65633 56.562 7.68238 56.562 7.73446H56.6401L56.562 7.89071C56.562 7.94279 56.5881 7.96883 56.6401 7.96883L56.562 8.12508L56.6401 8.28133H56.562L56.6401 8.43758C56.5881 8.54175 56.562 8.61988 56.562 8.67196H56.6401L56.562 8.82821V9.29696C56.562 9.34904 56.5881 9.37508 56.6401 9.37508L56.562 9.53133V10.0001C56.562 10.0522 56.5881 10.0782 56.6401 10.0782L56.562 10.2345C56.562 10.2865 56.5881 10.3126 56.6401 10.3126L56.562 10.4688V10.8595C56.562 10.9115 56.5881 10.9376 56.6401 10.9376L56.562 11.0938C56.562 11.1459 56.5881 11.172 56.6401 11.172L56.562 11.3282C56.562 11.3803 56.5881 11.4063 56.6401 11.4063C56.6401 11.4584 56.6141 11.4845 56.562 11.4845L56.6401 11.8751V11.9532C56.6401 12.0053 56.6141 12.0313 56.562 12.0313C56.6141 12.1355 56.6401 12.2136 56.6401 12.2657L56.562 12.422C56.6141 12.5131 56.6401 12.6173 56.6401 12.7345C56.6401 12.7866 56.6141 12.8126 56.562 12.8126L56.6401 12.9688V13.3595C56.6401 13.4116 56.6141 13.4376 56.562 13.4376C56.6141 13.5418 56.6401 13.6199 56.6401 13.672C56.6401 13.7241 56.6141 13.7501 56.562 13.7501L56.6401 14.1407V14.7657C56.6401 14.8178 56.6662 14.8439 56.7183 14.8439L56.6401 15.0001V19.6095C56.6401 19.6616 56.6662 19.6876 56.7183 19.6876L56.6401 19.8439V22.8908C56.6401 22.9429 56.6141 22.9689 56.562 22.9689L56.6401 23.1252V23.4377C56.6401 23.4897 56.6141 23.5158 56.562 23.5158L56.6401 23.672V24.4533C56.6401 24.5054 56.6662 24.5314 56.7183 24.5314L56.6401 24.6877V26.3283C56.6401 26.3803 56.6141 26.4064 56.562 26.4064L56.6401 26.5626V28.8282C56.6401 28.8803 56.6141 28.9064 56.562 28.9064C56.6141 29.2189 56.6662 29.3751 56.7183 29.3751C56.6662 29.948 56.6141 30.2345 56.562 30.2345L56.6401 30.3907V31.7188L56.562 31.8751C56.6141 31.8751 56.6401 31.9011 56.6401 31.9532H56.562C56.562 32.0053 56.5881 32.0313 56.6401 32.0313L56.562 32.7345C56.6141 33.1902 56.6401 33.4766 56.6401 33.5938H56.4058C56.0412 33.5938 55.8589 32.422 55.8589 30.0782V29.5313C55.8589 29.4792 55.8328 29.4532 55.7808 29.4532L55.8589 29.297V28.4376C55.8589 28.3855 55.8328 28.3594 55.7808 28.3594L55.8589 28.2032V24.6876C55.8589 24.6355 55.8328 24.6095 55.7808 24.6095L55.8589 24.4532V23.5938C55.8589 23.5418 55.8328 23.5157 55.7808 23.5157C55.8328 23.4116 55.8589 23.3334 55.8589 23.2813C55.8589 21.7839 55.8849 18.3985 55.937 13.1251H56.0151C56.0151 13.073 55.9891 13.047 55.937 13.047L56.0151 12.6563V8.82824L56.0933 8.67199H56.0151L56.0933 8.51574V8.43762C56.0933 5.91157 56.1974 3.51574 56.4058 1.25012L56.4058 1.25008ZM65.9372 16.0161V16.0942C65.8851 16.1853 65.859 16.2895 65.859 16.4067H65.7809V16.0942L65.9372 16.0161ZM65.7032 16.4061V16.4842C65.7032 16.7576 65.625 16.9139 65.4688 16.9529V16.8748C65.5079 16.5623 65.586 16.4061 65.7032 16.4061ZM65.3122 16.9531H65.4684V17.0312C65.3122 17.2656 65.234 17.4218 65.234 17.5H65.1559V17.2656C65.2601 17.2656 65.3122 17.1614 65.3122 16.9531V16.9531ZM65.1562 17.5001V17.5782C65.1041 17.6824 65.078 17.7605 65.078 17.8126H64.9999V17.5782L65.1562 17.5001ZM64.8432 18.0471V18.1252C64.739 18.2945 64.6869 18.4247 64.6869 18.5158L64.5307 18.4377C64.6348 18.2033 64.739 18.0731 64.8432 18.0471ZM64.3746 18.5941H64.4527V18.9066L64.2964 18.9847V18.9066C64.3485 18.8154 64.3746 18.7113 64.3746 18.5941ZM58.9058 26.641V26.7191C58.9058 26.7712 58.9318 26.7972 58.9839 26.7972L58.9058 26.9535V27.0316H58.9839V26.8754C59.0881 26.8884 59.1401 26.9405 59.1401 27.0316V27.1097H58.9839C58.9839 27.1879 59.062 27.266 59.2183 27.3441L59.3745 27.266C59.3745 27.3441 59.5568 27.5264 59.9214 27.8129L59.8433 27.9691V28.0472H59.9214V27.891C59.9865 27.891 60.2729 28.1774 60.7808 28.7504V28.8285L59.9995 28.1253V28.2035C60.0386 28.2035 60.2729 28.4378 60.7026 28.9066L60.8589 28.8285C61.7834 29.8181 62.3042 30.3128 62.4214 30.3128C62.4214 30.2608 62.4474 30.2347 62.4995 30.2347C62.4995 30.4431 62.786 30.5993 63.3589 30.7035H63.5151V30.6253C63.2547 30.6253 62.9162 30.3649 62.4995 29.8441C62.4995 29.8962 62.4735 29.9222 62.4214 29.9222C62.4214 29.8181 62.3693 29.766 62.2651 29.766L62.3433 29.6097H62.1089L62.187 29.4535H62.1089C62.1089 29.5056 62.0828 29.5316 62.0308 29.5316L61.9526 29.3753C62.0047 29.3753 62.0308 29.3493 62.0308 29.2972H61.9526C61.9526 29.3493 61.9266 29.3753 61.8745 29.3753C61.8745 29.167 61.7703 29.0628 61.562 29.0628L61.6401 28.9066C61.4709 28.8545 61.1584 28.5681 60.7026 28.0472C60.7547 28.0472 60.7808 28.0212 60.7808 27.9691C60.6896 27.9691 60.1427 27.4743 59.1401 26.4847H59.062C58.9578 26.4977 58.9058 26.5498 58.9058 26.641L58.9058 26.641ZM63.1246 30.7816V30.8597C63.6845 31.068 63.997 31.1722 64.0621 31.1722H64.1402V31.0941C63.5673 30.8857 63.2548 30.7816 63.2027 30.7816H63.1246ZM64.2965 31.016V31.0941H64.609V31.016H64.2965ZM75.6441 2.03108L75.8003 2.26546V2.34358C75.8003 2.63004 75.618 3.07275 75.2534 3.67171C75.3055 3.67171 75.3316 3.69775 75.3316 3.74983C75.0972 3.74983 74.9149 4.37483 74.7847 5.62483V5.85921L74.7066 6.01546H74.7847C74.7847 6.06754 74.7587 6.09359 74.7066 6.09359C74.7066 7.90348 75.6441 11.4191 77.5191 16.6405C78.2482 18.9582 78.6128 20.9634 78.6128 22.6561V23.2811C78.6128 26.1196 77.7274 28.6717 75.9566 30.9373C75.1883 31.8879 73.8342 32.6691 71.8941 33.2811C71.8941 33.4373 71.4253 33.5415 70.4878 33.5936C70.2274 33.5936 69.7587 33.4634 69.0816 33.203V33.1248H69.2378V33.0467H69.0816C69.0816 33.0988 69.0555 33.1248 69.0034 33.1248V32.8905C69.0555 32.8905 69.1337 32.9165 69.2378 32.9686C69.6024 32.9165 69.7847 32.8384 69.7847 32.7342H69.6284V32.578C69.9409 32.4998 70.0972 32.3696 70.0972 32.1873H70.5659C71.4514 32.1873 72.0243 31.979 72.2847 31.5623L73.0659 30.8592V30.9373L72.1284 31.9529H72.2066C73.0269 31.1326 73.5998 30.4555 73.9253 29.9217H73.8472C73.8472 30.0258 73.7951 30.0779 73.6909 30.0779V29.9998C74.1076 29.3227 74.342 28.9842 74.3941 28.9842C74.3941 29.0363 74.4201 29.0623 74.4722 29.0623L74.3941 28.906C75.4878 26.9008 76.0347 24.8436 76.0347 22.7342C76.0347 20.6639 75.3316 17.8514 73.9253 14.2967C72.8837 11.4321 72.3628 9.29667 72.3628 7.89042V7.73417L72.2847 7.57792H72.3628L72.2847 7.42167C72.2847 6.09355 72.5972 4.84355 73.2222 3.67167C73.3264 3.6847 73.3784 3.73678 73.3784 3.82792L73.3003 3.98417H73.3784C73.3784 3.90605 73.8993 3.41126 74.9409 2.4998C75.1363 2.1873 75.3706 2.03105 75.6441 2.03105V2.03108ZM73.691 4.21908C73.2222 5.07845 72.9878 5.88574 72.9878 6.64095V6.87533L72.9097 7.03158H72.9878L72.9097 7.18783V7.65658C72.9097 9.15398 73.3264 11.029 74.1597 13.2816H74.2378L74.1597 13.4378C75.8264 17.8128 76.6597 20.8597 76.6597 22.5785C76.7118 22.5785 76.7378 22.6045 76.7378 22.6566H76.6597L76.7378 22.8128V23.8284C76.7378 23.8805 76.7118 23.9066 76.6597 23.9066C76.6597 23.9586 76.6858 23.9847 76.7378 23.9847C76.6858 24.3753 76.6337 24.6357 76.5816 24.7659H76.6597L76.5035 25.4691H76.5816C76.4774 25.7295 76.4253 25.9118 76.4253 26.0159H76.5035L76.3472 26.3284C76.3993 26.3284 76.4253 26.3545 76.4253 26.4066H76.3472L76.4253 26.5628C76.4253 26.5889 76.3993 26.693 76.3472 26.8753V26.9534H76.4253L76.7378 25.6253C76.6858 25.6253 76.6597 25.5993 76.6597 25.5472C76.7639 25.5472 76.816 25.4951 76.816 25.391H76.7378L76.816 25.2347V25.0785L76.7378 24.9222C76.842 24.9222 76.9201 24.5837 76.9722 23.9066C76.9201 23.9066 76.8941 23.8805 76.8941 23.8285C76.9462 23.8285 76.9722 23.8024 76.9722 23.7503H76.8941C76.9462 23.1774 76.9983 22.891 77.0503 22.891C76.9983 22.4222 76.9462 22.1878 76.8941 22.1878L76.9722 22.0316C76.9201 21.9404 76.8941 21.8363 76.8941 21.7191C76.9462 21.7191 76.9722 21.693 76.9722 21.641L76.816 21.5628C76.816 21.5108 76.842 21.4847 76.8941 21.4847C76.8941 21.3936 76.842 21.1852 76.7378 20.8597C76.7899 20.8597 76.816 20.8337 76.816 20.7816H76.6597C76.6597 20.7295 76.6858 20.7035 76.7378 20.7035C76.6858 20.2347 76.6076 19.8962 76.5035 19.6878C76.6076 19.6358 76.6858 19.6097 76.7378 19.6097V19.5316H76.5816C76.5816 19.5837 76.5556 19.6097 76.5035 19.6097C76.5035 19.3493 76.4514 19.2191 76.3472 19.2191L76.4253 19.0628L76.2691 18.9847L76.3472 18.8285L76.2691 18.6722L76.4253 18.5941C76.4253 18.6462 76.4514 18.6722 76.5035 18.6722C76.3993 18.4639 76.3472 18.3076 76.3472 18.2035H76.2691V18.3597C76.1649 18.3597 76.1128 18.3076 76.1128 18.2035C76.1649 18.2035 76.191 18.1774 76.191 18.1253H76.0347L76.1128 17.9691C76.0087 17.9691 75.9566 17.917 75.9566 17.8128V17.7347C75.9566 17.6305 76.0347 17.5785 76.191 17.5785C76.0868 17.3701 76.0347 17.2139 76.0347 17.1097H75.9566V17.1878L76.0347 17.5785H75.8785L75.9566 17.4222C75.8134 17.4222 75.7092 17.1618 75.6441 16.641H75.8003V16.8753H75.9566V16.7191H76.0347V16.9535H75.8785V17.0316H76.0347C76.0347 16.9795 76.0608 16.9535 76.1128 16.9535C76.3082 17.7868 76.4644 18.2035 76.5816 18.2035V18.1254C76.5295 18.1254 76.5035 18.0993 76.5035 18.0472C76.5556 18.0472 76.5816 18.0212 76.5816 17.9691L76.4253 17.891L76.5035 17.7347V17.6566H76.3472V17.5785C76.3472 17.5264 76.3733 17.5004 76.4253 17.5004C76.2951 17.0967 76.191 16.8363 76.1128 16.7191C76.1649 16.7191 76.191 16.6931 76.191 16.641H76.0347L76.1128 16.4847L75.9566 16.4066L76.0347 16.2504V16.1722H75.8785C75.8785 16.1201 75.9045 16.0941 75.9566 16.0941C75.8524 15.5733 75.7222 15.3128 75.566 15.3128L75.6441 15.1566C75.5399 14.8311 75.4358 14.5967 75.3316 14.4535H75.4097C75.3576 14.3493 75.3316 14.2712 75.3316 14.2191H75.0972C75.2535 14.5446 75.4097 14.9873 75.566 15.5472C75.4618 15.5602 75.4097 15.6123 75.4097 15.7035L75.566 15.6253H75.6441V15.7816H75.4878V15.8597H75.6441C75.6441 15.8076 75.6701 15.7816 75.7222 15.7816L75.8003 15.9378H75.7222L75.8003 16.0941V16.3285L75.6441 16.2504V16.3285L75.8003 16.4066C75.8003 16.3545 75.8264 16.3285 75.8785 16.3285L75.9566 16.7191C75.8524 16.7191 75.8003 16.641 75.8003 16.4847C75.6701 16.5889 75.592 16.641 75.566 16.641V16.5629L75.6441 16.4066C75.5399 16.4066 75.4097 16.1983 75.2535 15.7816C75.3055 15.7816 75.3316 15.7556 75.3316 15.7035C75.2404 15.7035 75.0842 15.3129 74.8628 14.5316C74.8108 14.5316 74.7847 14.5056 74.7847 14.4535C74.8368 14.4535 74.8628 14.4274 74.8628 14.3754C74.8108 14.3754 74.6024 13.8806 74.2378 12.891H74.316C74.0035 12.0837 73.8472 11.6149 73.8472 11.4847C73.8993 11.4847 73.9253 11.4587 73.9253 11.4066C73.8082 11.4066 73.704 11.1462 73.6128 10.6254C73.6649 10.6254 73.691 10.5993 73.691 10.5472C73.5868 10.5472 73.5347 10.4952 73.5347 10.391L73.6128 10.2347H73.4566L73.5347 10.0785H73.4566C73.4566 10.0264 73.4826 10.0004 73.5347 10.0004L73.3003 8.82846L73.3785 8.67221C73.3264 8.41179 73.2743 8.28158 73.2222 8.28158L73.3003 8.12533C73.3003 8.07325 73.2743 8.04721 73.2222 8.04721L73.3003 7.89096C73.3003 7.83888 73.2743 7.81283 73.2222 7.81283L73.3003 7.65658L73.2222 7.50033C73.2743 7.39617 73.3003 7.31804 73.3003 7.26596H73.2222L73.3003 7.10971C73.3003 7.05763 73.2743 7.03158 73.2222 7.03158L73.3003 6.87533V6.79721C73.3003 6.74513 73.2743 6.71908 73.2222 6.71908C73.3264 5.80763 73.5087 5.00033 73.7691 4.29721V4.21908H73.691L73.691 4.21908ZM74.2378 11.4851V11.5632C74.3419 11.5632 74.394 11.5111 74.394 11.407V11.3288C74.2899 11.3418 74.2378 11.3939 74.2378 11.4851ZM74.3941 12.0311V12.1092C74.4982 12.1092 74.5503 12.0571 74.5503 11.953V11.8748C74.4462 11.8878 74.3941 11.9399 74.3941 12.0311ZM74.2378 12.2661C74.2899 12.3572 74.3159 12.4614 74.3159 12.5786H74.394V12.3442L74.2378 12.2661ZM74.4722 12.3441L74.5503 12.5003V12.6566H74.3941V12.7347H74.5503C74.5503 12.6826 74.5763 12.6566 74.6284 12.6566C74.6545 13.0732 74.7586 13.2816 74.9409 13.2816C74.8888 13.3857 74.8628 13.4639 74.8628 13.516C74.8628 13.6722 74.9409 13.7503 75.0972 13.7503L75.0191 13.9066C75.0711 14.0107 75.0972 14.0889 75.0972 14.141H75.2534V13.9847H75.0972L75.1753 13.8285C75.1232 13.7373 75.0972 13.6331 75.0972 13.516L74.9409 13.5941V13.4378C74.9409 13.3857 74.967 13.3597 75.0191 13.3597C75.0191 13.2035 74.9409 13.1253 74.7847 13.1253L74.8628 12.9691C74.7586 12.9691 74.7066 12.917 74.7066 12.8128C74.7586 12.8128 74.7847 12.7868 74.7847 12.7347C74.6805 12.7347 74.6284 12.6826 74.6284 12.5785C74.6805 12.5785 74.7066 12.5524 74.7066 12.5003C74.6545 12.5003 74.6284 12.4743 74.6284 12.4222C74.6805 12.4222 74.7066 12.3962 74.7066 12.3441H74.6284C74.6284 12.3962 74.6024 12.4222 74.5503 12.4222C74.5503 12.3701 74.5243 12.3441 74.4722 12.3441ZM75.0972 14.6881V14.8443C75.2144 15.1568 75.3185 15.3131 75.4097 15.3131C75.2534 15.0136 75.1753 14.8053 75.1753 14.6881H75.0972ZM75.4878 15.9381C75.5399 16.0422 75.5659 16.1204 75.5659 16.1725H75.7221C75.6701 16.0683 75.644 15.9902 75.644 15.9381H75.4878ZM76.191 17.8131V18.0475L76.3472 18.1256C76.2951 18.0344 76.2691 17.9303 76.2691 17.8131H76.191V17.8131ZM76.3472 18.3601V18.5945C76.243 18.5945 76.1909 18.5424 76.1909 18.4382L76.3472 18.3601ZM76.5816 18.4381V18.6725C76.6857 18.6725 76.7378 18.6204 76.7378 18.5162L76.5816 18.4381ZM73.691 30.0785V30.1566C73.691 30.2347 73.6128 30.3129 73.4566 30.391V30.3129C73.4566 30.2347 73.5347 30.1566 73.691 30.0785ZM73.4566 30.391V30.4691C73.4566 30.5472 73.3784 30.6254 73.2222 30.7035V30.6254C73.2222 30.5472 73.3003 30.4691 73.4566 30.391ZM75.0191 31.5628L74.6284 31.9534H74.7066C74.967 31.719 75.0972 31.5888 75.0972 31.5628H75.0191L75.0191 31.5628Z" fill="black"/>
</svg>
