<svg width="99" height="26" viewBox="0 0 99 26" fill="none" xmlns="http://www.w3.org/2000/svg">
<path d="M71.162 17.7704C71.162 15.7169 71.9778 13.7474 73.4299 12.2953C74.882 10.8432 76.8514 10.0274 78.905 10.0274C80.9586 10.0274 82.928 10.8432 84.3801 12.2953C85.8322 13.7474 86.648 15.7169 86.648 17.7704C86.648 19.824 85.8322 21.7935 84.3801 23.2456C82.928 24.6977 80.9586 25.5134 78.905 25.5134C76.8514 25.5134 74.882 24.6977 73.4299 23.2456C71.9778 21.7935 71.162 19.824 71.162 17.7704V17.7704ZM74.006 17.7704C74.0061 18.4138 74.133 19.0508 74.3793 19.6451C74.6256 20.2395 74.9866 20.7794 75.4416 21.2343C75.8966 21.6891 76.4367 22.0498 77.0312 22.2959C77.6256 22.542 78.2627 22.6686 78.906 22.6684C79.5493 22.6683 80.1864 22.5415 80.7807 22.2951C81.375 22.0488 81.915 21.6879 82.3698 21.2328C82.8246 20.7778 83.1854 20.2377 83.4315 19.6433C83.6775 19.0489 83.8041 18.4118 83.804 17.7684C83.8037 16.4691 83.2873 15.2232 82.3684 14.3046C81.4495 13.3861 80.2033 12.8702 78.904 12.8704C77.6047 12.8707 76.3587 13.3871 75.4402 14.306C74.5216 15.225 74.0057 16.4711 74.006 17.7704V17.7704ZM83.674 17.7704C83.6782 18.9819 83.2212 20.1496 82.3958 21.0364C81.5704 21.9232 80.4384 22.4626 79.2297 22.5451C78.021 22.6275 76.8263 22.2469 75.888 21.4805C74.9498 20.7141 74.3384 19.6193 74.178 18.4184C74.588 20.5924 76.539 22.2364 78.885 22.2364C81.46 22.2364 83.559 20.2554 83.669 17.7704H83.674ZM82.826 15.9244C83.1351 16.582 83.274 17.3067 83.2298 18.0319C83.1856 18.7571 82.9598 19.4596 82.5731 20.0748C82.1865 20.6899 81.6514 21.198 81.017 21.5522C80.3826 21.9065 79.6694 22.0956 78.9429 22.1021C78.2163 22.1087 77.4998 21.9325 76.8592 21.5897C76.2185 21.2469 75.6743 20.7486 75.2766 20.1405C74.879 19.5325 74.6405 18.8342 74.5833 18.1098C74.526 17.3855 74.6518 16.6584 74.949 15.9954C75.2521 15.2007 75.7877 14.5157 76.486 14.03C77.1842 13.5443 78.0127 13.2804 78.8633 13.2727C79.7138 13.2651 80.5469 13.514 81.2539 13.987C81.9608 14.4601 82.5087 15.1353 82.826 15.9244V15.9244ZM78.905 13.5444C78.3502 13.5446 77.8008 13.654 77.2882 13.8664C76.7757 14.0789 76.31 14.3902 75.9178 14.7826C75.5255 15.175 75.2144 15.6409 75.0022 16.1535C74.79 16.6662 74.6809 17.2156 74.681 17.7704C74.6811 18.3253 74.7905 18.8747 75.003 19.3872C75.2154 19.8998 75.5268 20.3654 75.9192 20.7577C76.3116 21.1499 76.7774 21.461 77.2901 21.6732C77.8027 21.8854 78.3522 21.9946 78.907 21.9944C80.0275 21.9942 81.1021 21.5488 81.8942 20.7563C82.6864 19.9637 83.1313 18.889 83.131 17.7684C83.1307 16.6479 82.6854 15.5734 81.8928 14.7812C81.1003 13.9891 80.0255 13.5442 78.905 13.5444V13.5444ZM76.639 18.0684L77.589 18.2204C77.6902 18.5313 77.9008 18.7949 78.1816 18.9622C78.4624 19.1296 78.7944 19.1894 79.116 19.1304L79.692 19.8934C79.736 19.9684 79.815 20.0024 79.873 19.9694L80.195 19.7894C80.255 19.7564 80.267 19.6724 80.228 19.5974L79.884 18.7014C80.1023 18.4576 80.2249 18.143 80.2291 17.8158C80.2334 17.4885 80.1189 17.1708 79.907 16.9214L80.28 16.0404C80.325 15.9674 80.312 15.8814 80.256 15.8464L79.941 15.6584C79.883 15.6244 79.799 15.6544 79.757 15.7264L79.152 16.4704C78.8316 16.404 78.498 16.4556 78.2127 16.6156C77.9273 16.7757 77.7094 17.0334 77.599 17.3414L76.649 17.4584C76.564 17.4574 76.495 17.5094 76.495 17.5754L76.488 17.9454C76.488 18.0124 76.554 18.0674 76.639 18.0684V18.0684ZM81.366 17.8594C81.3496 18.3219 81.2042 18.7705 80.946 19.1544L81.767 19.7114C82.127 19.1794 82.336 18.5524 82.36 17.8964L81.366 17.8594V17.8594ZM78.3 14.7674L78.633 15.4774C78.678 15.5854 78.703 15.6334 78.787 15.6334H79.02C79.105 15.6334 79.129 15.5854 79.174 15.4774L79.505 14.7674C79.5051 14.7471 79.5012 14.727 79.4934 14.7083C79.4857 14.6895 79.4742 14.6725 79.4598 14.6582C79.4453 14.644 79.4282 14.6327 79.4093 14.6252C79.3905 14.6177 79.3703 14.614 79.35 14.6144H78.455C78.4347 14.6142 78.4146 14.6179 78.3958 14.6255C78.377 14.6331 78.3599 14.6443 78.3455 14.6585C78.3311 14.6728 78.3196 14.6897 78.3118 14.7084C78.304 14.7271 78.3 14.7472 78.3 14.7674V14.7674ZM75.864 17.4144L76.486 17.3394C76.5338 17.3164 76.586 17.3038 76.639 17.3024L76.794 17.2834C76.815 17.2694 76.826 17.2494 76.836 17.2194L76.908 16.9984C76.935 16.9174 76.896 16.8794 76.809 16.8034L76.235 16.2684C76.1957 16.2558 76.1531 16.2593 76.1164 16.278C76.0796 16.2967 76.0518 16.3293 76.039 16.3684L75.764 17.2204C75.7574 17.2397 75.7547 17.2602 75.7562 17.2805C75.7576 17.3008 75.7632 17.3207 75.7726 17.3388C75.7819 17.3569 75.7948 17.373 75.8105 17.386C75.8262 17.399 75.8444 17.4087 75.864 17.4144V17.4144ZM77.628 20.5524L77.776 19.7834C77.803 19.6694 77.812 19.6164 77.742 19.5654L77.554 19.4284C77.486 19.3774 77.439 19.4034 77.337 19.4634L76.651 19.8434C76.6272 19.8769 76.6174 19.9183 76.6237 19.9589C76.6301 19.9994 76.6521 20.0359 76.685 20.0604L77.41 20.5864C77.4265 20.5988 77.4452 20.6077 77.4652 20.6127C77.4851 20.6177 77.5059 20.6186 77.5262 20.6154C77.5465 20.6123 77.566 20.6051 77.5835 20.5942C77.6009 20.5834 77.6161 20.5692 77.628 20.5524V20.5524ZM81.158 19.8444L80.471 19.4644C80.405 19.4254 80.363 19.4014 80.32 19.4024L80.371 19.5344C80.475 19.7424 80.302 19.9604 80.086 20.0634L80.183 20.5514C80.1948 20.5681 80.2099 20.5823 80.2272 20.5931C80.2446 20.604 80.264 20.6112 80.2842 20.6145C80.3044 20.6177 80.325 20.6169 80.3449 20.6121C80.3648 20.6073 80.3835 20.5986 80.4 20.5864L81.124 20.0604C81.1566 20.0359 81.1784 19.9997 81.1848 19.9593C81.1911 19.919 81.1815 19.8778 81.158 19.8444V19.8444ZM81.574 16.2684L81 16.8034C80.911 16.8794 80.874 16.9174 80.9 16.9984L80.973 17.2194C80.997 17.3014 81.053 17.3104 81.168 17.3204L81.946 17.4154C81.9654 17.4093 81.9835 17.3994 81.9991 17.3862C82.0146 17.3731 82.0274 17.357 82.0367 17.3388C82.046 17.3207 82.0517 17.3009 82.0532 17.2806C82.0548 17.2602 82.0524 17.2398 82.046 17.2204L81.769 16.3694C81.7631 16.3498 81.7533 16.3316 81.7402 16.3158C81.7272 16.3001 81.711 16.2871 81.6929 16.2777C81.6747 16.2683 81.6548 16.2626 81.6344 16.261C81.614 16.2594 81.5934 16.2619 81.574 16.2684V16.2684ZM79.747 15.4584L79.815 15.4854C79.898 15.4644 80.007 15.4914 80.164 15.5734C80.387 15.6804 80.476 15.7784 80.484 15.8854C80.619 15.9974 80.74 16.1224 80.847 16.2594L81.63 15.6494C81.2309 15.1372 80.6954 14.7479 80.085 14.5264L79.747 15.4584V15.4584ZM76.961 16.2584C77.2477 15.8946 77.6299 15.6176 78.065 15.4584L77.727 14.5244C77.1164 14.7462 76.5802 15.1345 76.179 15.6454L76.961 16.2584V16.2584ZM76.862 19.1524C76.6646 18.8597 76.5326 18.5278 76.475 18.1794C76.4318 18.1572 76.3956 18.1233 76.3705 18.0816C76.3454 18.0399 76.3324 17.9921 76.333 17.9434L76.332 17.8614L75.448 17.8924C75.471 18.5324 75.671 19.1644 76.038 19.7084L76.862 19.1524V19.1524ZM79.583 20.1434C79.1389 20.2708 78.6678 20.2701 78.224 20.1414L77.948 21.0964C78.5718 21.2766 79.2338 21.2773 79.858 21.0984L79.583 20.1434ZM75.23 17.7704C75.23 17.4124 75.282 17.0674 75.376 16.7394L75.582 16.7754C75.69 16.7964 75.741 16.8044 75.749 16.7794L75.771 16.7104C75.779 16.6854 75.734 16.6634 75.633 16.6154L75.445 16.5244C75.6955 15.8314 76.1484 15.2296 76.745 14.797C77.3416 14.3645 78.0544 14.1211 78.791 14.0984L78.823 14.3024C78.836 14.4134 78.844 14.4624 78.871 14.4624H78.943C78.969 14.4624 78.975 14.4134 78.991 14.3024L79.021 14.0984C79.7577 14.1219 80.4703 14.3664 81.0663 14.8001C81.6623 15.2338 82.1141 15.8367 82.363 16.5304L82.176 16.6204C82.073 16.6684 82.03 16.6914 82.037 16.7174L82.06 16.7864C82.068 16.8124 82.119 16.8044 82.227 16.7824L82.43 16.7474C82.636 17.4549 82.6239 18.2081 82.3954 18.9086C82.1669 19.6091 81.7325 20.2245 81.149 20.6744L81.005 20.5274C80.929 20.4454 80.894 20.4114 80.871 20.4254L80.813 20.4684C80.791 20.4844 80.814 20.5294 80.868 20.6274L80.965 20.8104C80.3563 21.2234 79.6376 21.4439 78.902 21.4434C78.164 21.445 77.4427 21.2233 76.833 20.8074L76.931 20.6234C76.985 20.5244 77.007 20.4794 76.985 20.4654L76.927 20.4224C76.906 20.4054 76.869 20.4414 76.792 20.5234L76.648 20.6694C76.2061 20.3264 75.8486 19.8869 75.6028 19.3844C75.3571 18.8819 75.2295 18.3298 75.23 17.7704V17.7704ZM78.52 17.0624C78.6144 17.0123 78.7178 16.9812 78.8242 16.971C78.9307 16.9608 79.0381 16.9716 79.1403 17.0029C79.2425 17.0342 79.3376 17.0853 79.4201 17.1534C79.5026 17.2214 79.5708 17.305 79.621 17.3994C79.6712 17.4939 79.7022 17.5972 79.7125 17.7037C79.7227 17.8101 79.7118 17.9175 79.6805 18.0197C79.6492 18.122 79.5981 18.217 79.5301 18.2995C79.462 18.382 79.3784 18.4503 79.284 18.5004C79.0933 18.6018 78.8702 18.6232 78.6637 18.56C78.4572 18.4968 78.2843 18.3541 78.183 18.1634C78.0817 17.9727 78.0603 17.7496 78.1235 17.5431C78.1867 17.3367 78.3293 17.1638 78.52 17.0624ZM12.115 17.7704C12.0985 16.7433 12.2865 15.7231 12.6682 14.7693C13.0499 13.8156 13.6175 12.9473 14.3381 12.215C15.0586 11.4828 15.9177 10.9013 16.8652 10.5044C17.8127 10.1074 18.8297 9.903 19.857 9.903C20.8843 9.903 21.9013 10.1074 22.8488 10.5044C23.7963 10.9013 24.6554 11.4828 25.3759 12.215C26.0965 12.9473 26.6641 13.8156 27.0458 14.7693C27.4275 15.7231 27.6155 16.7433 27.599 17.7704C27.5663 19.8022 26.7363 21.7397 25.288 23.1649C23.8396 24.5902 21.889 25.389 19.857 25.389C17.825 25.389 15.8744 24.5902 14.426 23.1649C12.9777 21.7397 12.1477 19.8022 12.115 17.7704V17.7704ZM15.069 17.7704C15.0689 18.4136 15.1955 19.0506 15.4416 19.6448C15.6877 20.2391 16.0485 20.779 16.5034 21.2338C16.9582 21.6886 17.4982 22.0492 18.0925 22.2952C18.6868 22.5412 19.3238 22.6677 19.967 22.6674C20.9358 22.6674 21.8828 22.3802 22.6883 21.8419C23.4938 21.3037 24.1216 20.5386 24.4923 19.6436C24.8629 18.7485 24.9599 17.7637 24.7708 16.8135C24.5817 15.8634 24.1152 14.9906 23.4301 14.3057C22.745 13.6207 21.8721 13.1543 20.9219 12.9654C19.9718 12.7766 18.9869 12.8737 18.0919 13.2446C17.1969 13.6154 16.4321 14.2434 15.894 15.049C15.3559 15.8546 15.0688 16.8017 15.069 17.7704V17.7704ZM24.737 17.7704C24.7393 18.9806 24.2815 20.1464 23.4562 21.0316C22.631 21.9167 21.5001 22.4551 20.2927 22.5375C19.0853 22.6199 17.8918 22.2402 16.954 21.4753C16.0161 20.7105 15.4041 19.6177 15.242 18.4184C15.652 20.5924 17.604 22.2364 19.95 22.2364C22.524 22.2364 24.623 20.2554 24.732 17.7704H24.737ZM16.013 15.9944C16.3164 15.2003 16.8521 14.516 17.5501 14.0308C18.2482 13.5456 19.0762 13.2819 19.9263 13.2743C20.7764 13.2666 21.6091 13.5153 22.3157 13.9878C23.0224 14.4604 23.5703 15.1349 23.888 15.9234C24.1976 16.581 24.3368 17.3058 24.2929 18.0313C24.249 18.7567 24.0234 19.4595 23.6368 20.0749C23.2502 20.6903 22.715 21.1987 22.0806 21.5531C21.4461 21.9076 20.7326 22.0968 20.0059 22.1033C19.2791 22.1099 18.5624 21.9336 17.9217 21.5906C17.2809 21.2476 16.7367 20.7491 16.339 20.1407C15.9414 19.5324 15.7031 18.8338 15.6462 18.1092C15.5892 17.3847 15.7153 16.6575 16.013 15.9944V15.9944ZM19.967 13.5444C18.8465 13.5444 17.7718 13.9896 16.9795 14.7819C16.1871 15.5743 15.742 16.6489 15.742 17.7694C15.742 18.89 16.1871 19.9646 16.9795 20.757C17.7718 21.5493 18.8465 21.9944 19.967 21.9944C22.3 21.9944 24.19 20.1034 24.19 17.7704C24.19 15.4374 22.301 13.5444 19.967 13.5444V13.5444ZM16.294 17.7704C16.294 17.4124 16.345 17.0674 16.44 16.7394L16.645 16.7754C16.755 16.7964 16.805 16.8044 16.813 16.7794L16.835 16.7104C16.843 16.6854 16.799 16.6634 16.698 16.6154L16.512 16.5244C16.7621 15.8312 17.215 15.2291 17.8117 14.7965C18.4083 14.3639 19.1213 14.1207 19.858 14.0984L19.888 14.3024C19.902 14.4134 19.91 14.4624 19.935 14.4624H20.009C20.035 14.4624 20.042 14.4134 20.057 14.3024L20.087 14.0984C20.8236 14.1218 21.5361 14.3663 22.132 14.8C22.7278 15.2337 23.1794 15.8367 23.428 16.5304L23.241 16.6204C23.14 16.6684 23.095 16.6914 23.104 16.7174L23.126 16.7864C23.134 16.8124 23.184 16.8044 23.293 16.7824L23.499 16.7474C23.7046 17.455 23.6923 18.2082 23.4636 18.9086C23.2349 19.6091 22.8005 20.2245 22.217 20.6744L22.073 20.5274C21.997 20.4454 21.962 20.4114 21.94 20.4254L21.881 20.4684C21.859 20.4844 21.882 20.5294 21.936 20.6274L22.033 20.8104C21.4242 21.2239 20.7049 21.4445 19.969 21.4434C19.2313 21.445 18.5104 21.2233 17.901 20.8074L17.998 20.6234C18.051 20.5244 18.074 20.4794 18.052 20.4654L17.994 20.4224C17.971 20.4054 17.936 20.4414 17.86 20.5234L17.717 20.6694C17.2735 20.3276 16.9145 19.8884 16.6677 19.3857C16.421 18.8831 16.2931 18.3304 16.294 17.7704V17.7704ZM20.647 20.1434C20.2022 20.2708 19.7305 20.2701 19.286 20.1414L19.011 21.0964C19.629 21.2744 20.291 21.2794 20.922 21.0984L20.647 20.1434V20.1434ZM17.926 19.1524C17.6663 18.7692 17.5207 18.3201 17.506 17.8574L16.514 17.8924C16.5355 18.5408 16.739 19.1701 17.101 19.7084L17.926 19.1524V19.1524ZM18.026 16.2584C18.128 16.1284 18.241 16.0104 18.363 15.9044C18.378 15.7984 18.46 15.6984 18.641 15.6014C18.825 15.4954 18.944 15.4634 19.037 15.4934L19.129 15.4584L18.791 14.5244C18.1801 14.7461 17.6435 15.1345 17.242 15.6454L18.026 16.2584V16.2584ZM20.811 15.4584C21.249 15.6194 21.63 15.8994 21.911 16.2604L22.695 15.6504C22.299 15.1444 21.765 14.7504 21.15 14.5274L20.811 15.4584ZM22.637 16.2684L22.064 16.8034C21.975 16.8794 21.938 16.9174 21.963 16.9984L22.036 17.2194C22.044 17.2474 22.056 17.2664 22.072 17.2804L22.207 17.2974C22.2544 17.2984 22.3008 17.3111 22.342 17.3344L23.009 17.4154C23.0481 17.4028 23.0807 17.3752 23.0996 17.3387C23.1185 17.3022 23.1223 17.2597 23.11 17.2204L22.833 16.3694C22.8269 16.3499 22.8169 16.3317 22.8037 16.316C22.7905 16.3003 22.7743 16.2874 22.7561 16.278C22.7379 16.2686 22.7179 16.2629 22.6975 16.2613C22.6771 16.2596 22.6565 16.2621 22.637 16.2684ZM22.22 19.8444L21.534 19.4644C21.433 19.4034 21.387 19.3784 21.317 19.4294L21.129 19.5664C21.059 19.6174 21.067 19.6714 21.094 19.7844L21.243 20.5534C21.2548 20.5701 21.2699 20.5843 21.2872 20.5951C21.3046 20.606 21.324 20.6132 21.3442 20.6165C21.3644 20.6197 21.385 20.6189 21.4049 20.6141C21.4248 20.6093 21.4435 20.6006 21.46 20.5884L22.185 20.0624C22.2016 20.0504 22.2157 20.0353 22.2265 20.0178C22.2372 20.0004 22.2444 19.9809 22.2477 19.9607C22.251 19.9404 22.2502 19.9198 22.2454 19.8998C22.2407 19.8799 22.232 19.861 22.22 19.8444V19.8444ZM18.691 20.5524L18.789 20.0534C18.585 19.9504 18.348 19.8184 18.486 19.5434L18.539 19.4024C18.4891 19.4122 18.4422 19.4334 18.402 19.4644L17.717 19.8444C17.7049 19.8608 17.6961 19.8795 17.6912 19.8993C17.6863 19.9191 17.6854 19.9396 17.6885 19.9598C17.6915 19.9799 17.6986 19.9993 17.7091 20.0167C17.7197 20.0342 17.7336 20.0494 17.75 20.0614L18.475 20.5874C18.4914 20.5995 18.51 20.6083 18.5299 20.6131C18.5497 20.6179 18.5702 20.6187 18.5904 20.6154C18.6105 20.6121 18.6298 20.6049 18.647 20.5941C18.6643 20.5833 18.6793 20.5691 18.691 20.5524ZM16.926 17.4144L17.704 17.3194C17.821 17.3094 17.874 17.3004 17.901 17.2184L17.972 16.9974C17.998 16.9164 17.959 16.8784 17.872 16.8024L17.298 16.2674C17.2587 16.2551 17.2162 16.2587 17.1796 16.2774C17.1429 16.2961 17.115 16.3284 17.102 16.3674L16.826 17.2194C16.8195 17.2388 16.8169 17.2593 16.8184 17.2796C16.82 17.3 16.8256 17.3199 16.8349 17.338C16.8442 17.3562 16.8571 17.3723 16.8727 17.3855C16.8884 17.3986 16.9065 17.4084 16.926 17.4144V17.4144ZM19.364 14.7674L19.697 15.4774C19.743 15.5854 19.765 15.6334 19.852 15.6334H20.084C20.168 15.6334 20.193 15.5854 20.238 15.4774L20.57 14.7674C20.57 14.7472 20.566 14.7271 20.5582 14.7084C20.5504 14.6897 20.5389 14.6728 20.5245 14.6585C20.5101 14.6443 20.493 14.6331 20.4742 14.6255C20.4554 14.6179 20.4353 14.6142 20.415 14.6144H19.52C19.4997 14.6142 19.4795 14.6179 19.4607 14.6255C19.4418 14.633 19.4247 14.6443 19.4102 14.6585C19.3957 14.6727 19.3841 14.6896 19.3762 14.7083C19.3683 14.727 19.3641 14.7471 19.364 14.7674V14.7674ZM22.405 18.1394C22.3494 18.5031 22.2142 18.85 22.009 19.1554L22.832 19.7124C23.1957 19.175 23.4005 18.546 23.423 17.8974L22.533 17.8654C22.5207 17.9681 22.4758 18.0641 22.405 18.1394V18.1394ZM19.161 19.9034L19.741 19.1354C20.05 19.1894 20.378 19.1354 20.668 18.9614C20.962 18.7854 21.165 18.5164 21.26 18.2134L22.207 18.0624C22.291 18.0624 22.358 18.0054 22.357 17.9384L22.351 17.5694C22.349 17.5044 22.279 17.4504 22.196 17.4524L21.242 17.3344C21.1293 17.0275 20.9094 16.7718 20.6228 16.6143C20.3363 16.4568 20.0025 16.4082 19.683 16.4774L19.079 15.7354C19.035 15.6624 18.954 15.6314 18.897 15.6664L18.581 15.8564C18.522 15.8914 18.512 15.9764 18.555 16.0494L18.929 16.9354C18.72 17.1862 18.6087 17.5042 18.6157 17.8305C18.6227 18.1569 18.7475 18.4698 18.967 18.7114L18.625 19.6074C18.584 19.6814 18.598 19.7664 18.657 19.8004L18.981 19.9794C19.04 20.0124 19.119 19.9774 19.161 19.9034V19.9034ZM19.154 17.7704C19.1537 17.5548 19.2391 17.3479 19.3914 17.1953C19.5437 17.0426 19.7504 16.9567 19.966 16.9564C20.1816 16.9562 20.3885 17.0416 20.5412 17.1939C20.6938 17.3461 20.7797 17.5528 20.78 17.7684C20.7801 17.8752 20.7592 17.9809 20.7185 18.0796C20.6778 18.1783 20.618 18.268 20.5426 18.3436C20.3903 18.4963 20.1836 18.5822 19.968 18.5824C19.7524 18.5827 19.5455 18.4973 19.3928 18.345C19.2402 18.1927 19.1543 17.9861 19.154 17.7704V17.7704ZM1.317 17.1924C0.736 16.5924 0.326 15.9824 0.13 15.4084L0.215 15.4184C0.593 15.4564 0.962 15.4774 1.296 15.5324C1.40711 16.0627 1.61455 16.568 1.908 17.0234C2.193 17.0464 2.555 17.0624 3.019 17.0664C3.03132 17.0991 3.04167 17.1325 3.05 17.1664C3.05 17.1664 3.09 17.2764 2.982 17.2764C2.182 17.2734 1.668 17.2394 1.317 17.1924V17.1924ZM95.037 8.33944C95.57 8.31544 96.09 8.30544 96.411 8.33044C97.363 8.40244 97.932 8.40444 98.168 8.69644C98.0919 8.68211 98.0138 8.68279 97.938 8.69844C97.553 8.75944 97.254 8.85844 96.849 8.76244L95.037 8.33944ZM54.732 21.3924C55.241 21.3834 58.263 21.4854 59.623 21.5794C60.158 21.6174 60.795 21.8414 60.795 21.8414C60.795 21.8414 61.145 21.9814 61.486 21.5144C62.266 20.4404 62.503 20.0524 62.912 19.1814C63.217 18.5344 63.303 18.2964 62.931 18.2434C62.56 18.1924 62.637 18.2194 62.637 18.2194L60.537 21.0904L54.732 21.3924ZM70.003 17.8524L69.872 22.1674H61.042L60.275 21.9204H57.56C57.56 21.9204 29.914 22.1674 29.586 22.1674C29.257 22.1674 29.144 22.0024 29.144 22.0024V18.3384C34.027 18.2824 65.927 17.9014 70.003 17.8524ZM62.962 8.90244C62.891 9.09444 62.796 9.33144 62.672 9.62144C62.145 10.8684 60.878 13.8284 58.362 17.8354L35.987 18.1044C35.97 17.2824 35.856 10.6834 36.489 9.01544L36.498 8.99444C45.025 9.45844 62.701 8.90944 62.701 8.90944L62.962 8.90244V8.90244ZM68.533 17.7144L58.548 17.8334C61.034 13.8604 62.29 10.9234 62.818 9.68344C62.953 9.36544 63.055 9.10544 63.133 8.89144C63.262 8.86744 63.76 8.77744 65.689 8.48244C66.1693 8.40828 66.6504 8.33861 67.132 8.27344C67.178 10.9654 67.782 14.4404 68.533 17.7144V17.7144ZM67.144 7.17544L67.138 7.39544C66.705 7.47844 66.3 7.55944 65.921 7.63644C65.0774 7.81097 64.2257 7.94347 63.369 8.03344L63.372 8.01444C63.378 8.00044 63.429 7.91244 63.502 7.77544C64.7208 7.60573 65.9352 7.40567 67.144 7.17544V7.17544ZM38.064 7.81844C37.7066 7.827 37.3575 7.92831 37.051 8.11244C32.028 7.81444 25.902 7.43144 22.213 7.48144C16.73 7.55344 12.238 9.22444 9.574 10.3914C6.907 11.5574 5.978 12.1814 6.922 11.9274C7.86182 11.6804 8.77987 11.357 9.667 10.9604C10.831 10.4434 12.736 9.50144 16.093 8.94544C24.203 7.60444 27.5 8.38444 35.624 8.93944C35.853 8.95644 36.089 8.97044 36.334 8.98444C35.994 9.91444 35.871 12.2084 35.83 14.2584C35.794 16.0724 35.823 17.7164 35.831 18.1044L29.143 18.1824C28.528 13.5904 25.103 9.82444 19.905 9.79644C14.272 9.76744 11.431 13.0704 11.421 17.4684C11.364 18.9434 11.25 20.0704 10.847 21.0434C10.731 21.3174 10.594 21.2704 10.594 21.2704C7.251 21.0104 4.039 19.5414 2.045 17.8684C2.333 17.8894 2.651 17.9004 2.986 17.8974C4.336 17.8874 3.509 16.4624 2.851 15.6544C2.191 14.8454 1.038 14.8854 0.353 14.7884C0.227 14.7684 0.109 14.7534 0 14.7344V14.6834C0 14.1764 1.847 12.7374 6.349 11.1494C6.219 11.2134 6.103 11.2784 6.009 11.3404C5.331 11.7944 5.188 11.9924 5.188 11.9924C5.188 11.9924 3.575 12.7284 2.91 13.0524C2.244 13.3784 1.82 13.9044 1.848 14.0024C1.876 14.1024 1.833 14.1444 2.782 13.6054C3.494 13.2024 6.914 11.3444 9.366 10.0164C12.71 8.28144 16.973 7.09444 24.321 7.02744C30.759 6.97044 33.955 7.35044 33.955 7.35044C33.955 7.35044 34.354 7.60744 35.426 7.69244C36.214 7.75544 37.139 7.79344 38.064 7.81844V7.81844ZM19.833 9.43944C24.755 9.46444 28.085 12.8414 28.949 17.0984C28.085 12.8364 24.807 8.96844 19.887 8.94244C14.502 8.91444 11.613 12.3984 11.368 16.5304C11.611 12.4274 14.45 9.40944 19.833 9.43944ZM61.504 6.27044L63.112 6.29544L62.179 5.58344C61.991 5.79144 61.791 5.99744 61.579 6.20044L61.504 6.27044V6.27044ZM78.677 9.30444C84.61 9.30444 87.369 11.9124 87.768 15.1394C87.37 11.9124 84.673 8.94344 78.741 8.94344C73.366 8.94344 70.399 12.0664 70.095 14.8554C70.397 12.0894 73.304 9.30444 78.677 9.30444V9.30444ZM65.561 1.77744L65.715 1.24744C65.715 1.24744 59.58 0.748441 56.698 0.783441L57.087 0.80044C60.622 0.97644 64.6 1.51844 64.6 1.51844L65.465 1.63044L65.43 1.75044C65.23 1.72644 64.77 1.67344 63.768 1.56644C62.543 1.41344 59.741 1.08844 57.08 0.957441C54.126 0.809441 52.401 0.957441 52.401 0.957441C52.401 0.957441 50.225 2.45844 48.319 3.99344C46.634 5.35144 43.624 7.92444 43.624 7.92444C43.624 7.92444 54.685 7.84144 55.583 7.84144C59.15 7.84144 60.049 7.44044 61.474 6.08744C63.239 4.40944 64.103 2.40744 64.33 1.81944L64.482 1.83944C64.599 1.85344 64.728 1.86844 64.868 1.88244L64.782 2.16144L64.455 1.91044C64.384 2.08944 64.287 2.31844 64.169 2.57344L64.649 2.58144L64.523 2.97544L64.122 2.66944C64.0382 2.84767 63.9491 3.02341 63.855 3.19644L63.82 3.26044L64.425 3.27044L64.267 3.73844L63.765 3.35644C63.652 3.55944 63.523 3.77444 63.38 3.99644L64.171 4.00944C64.102 4.20444 64.031 4.39644 63.961 4.58344L63.319 4.09244C63.177 4.30844 63.024 4.53044 62.857 4.75344L63.889 4.77044C63.791 5.01844 63.697 5.25644 63.602 5.47644L62.785 4.85144C62.623 5.06244 62.45 5.27644 62.264 5.48744L63.586 5.50844C63.4817 5.75102 63.3649 5.988 63.236 6.21844C63.001 6.63544 62.776 6.96344 62.517 7.21944L62.328 7.07544C62.328 6.90844 62.206 6.78444 62.051 6.78444C62.0215 6.78477 61.9923 6.78915 61.964 6.79744L61.399 6.36644C60.503 7.18844 59.765 7.63344 58.396 7.84344L58.448 7.84244C60.177 7.82344 61.284 7.78344 62.032 7.68244C62.146 7.61744 62.26 7.54444 62.372 7.46244C62.761 7.17744 63.057 6.78044 63.373 6.21844C63.922 5.24744 64.573 3.28444 64.998 1.89744L65.373 1.93544C65.025 3.08844 64.33 5.37744 64 6.32244L63.492 6.32544C63.2367 6.7778 62.9113 7.18686 62.528 7.53744C62.204 7.83844 61.842 7.88444 61.521 8.00044C61.8767 7.98203 62.2314 7.94766 62.584 7.89744C62.809 7.86944 63.054 7.83644 63.314 7.80244C63.247 7.92844 63.196 8.01944 63.177 8.05444C61.504 8.21944 60.452 8.16044 60.452 8.16044C60.452 8.16044 45.436 8.57844 40.107 8.28844C39.1509 8.23584 38.1949 8.18084 37.239 8.12344C37.6044 7.92189 38.0169 7.82144 38.434 7.83244C38.4027 7.82856 38.3714 7.82523 38.34 7.82244C40.585 7.87444 42.728 7.83944 42.728 7.83944C42.728 7.83944 44.896 6.02644 47.208 4.25644C49.52 2.48644 51.539 1.08744 51.539 1.08744C51.539 1.08744 51.742 0.938441 51.707 0.854441C51.681 0.786441 51.248 0.568439 50.076 0.47444C51.262 0.16844 53.916 -0.234562 59.038 0.171438C62.103 0.415438 64.185 0.632438 65.581 0.803438C65.727 0.917438 65.861 1.04244 65.962 1.18144C65.9781 1.20401 65.9924 1.22774 66.005 1.25244L66.141 1.27544C66.074 1.13044 65.912 0.966438 65.742 0.824438C67.672 1.06544 68.198 1.21444 68.198 1.21444L68.327 1.34444C69.053 1.38644 70.567 1.48244 71.142 1.57044C71.33 1.59844 71.68 1.68644 72.123 2.25044C72.816 2.30344 73.568 2.36944 73.931 2.42444C74.108 2.45244 74.428 2.53144 74.833 3.00944C75.56 3.06544 76.376 3.13544 76.758 3.19344C76.931 3.21944 77.24 3.29644 77.634 3.74644C78.337 3.80044 79.11 3.86744 79.475 3.92344C79.656 3.95144 79.981 4.03044 80.394 4.52644L80.421 4.53344C81.085 4.58644 81.787 4.64744 82.132 4.70044C82.304 4.72644 82.61 4.80244 82.999 5.24344C83.711 5.29744 84.5 5.36544 84.874 5.42244C85.059 5.45144 85.399 5.53544 85.833 6.07444C90.2 7.30344 92.993 7.94344 96.827 8.83944C97.557 9.01044 98.144 8.57844 98.253 8.86744C98.296 8.97444 98.258 9.69744 98.053 10.7264C98.22 10.7314 98.332 10.8694 98.307 11.0374L98.062 12.6184C98.0467 12.7037 98.0026 12.7811 97.9371 12.8377C97.8715 12.8943 97.7886 12.9267 97.702 12.9294H97.451C97.082 13.9844 96.558 15.1164 95.833 16.1564C95.2021 17.051 94.4201 17.8286 93.522 18.4544H96.295C96.466 18.4544 96.552 18.5944 96.484 18.7644L96.255 19.3524C96.2184 19.439 96.1586 19.5137 96.0822 19.5684C96.0058 19.6231 95.9157 19.6557 95.822 19.6624H91.112C90.388 19.9054 89.618 20.0624 88.808 20.1204C88.015 20.1774 88.159 19.9784 88.159 19.9784L87.764 15.5344C87.366 12.3074 84.606 9.69744 78.673 9.69744C73.117 9.69744 70.198 12.6764 70.068 15.5334L70.004 17.7004L68.691 17.7164C67.933 14.4304 67.327 10.9424 67.286 8.25644C67.928 8.17344 67.747 8.21944 68.126 8.13244C68.681 8.00344 73.329 7.61444 78.562 7.48544C83.794 7.35744 92.459 8.79244 93.82 8.85644C95.181 8.92044 93.706 8.38944 90.749 7.64044C87.795 6.89144 85.996 6.67544 79.948 6.36144C75.075 6.10844 70.498 6.76644 67.294 7.37044L67.299 7.14844C68.3023 6.95515 69.301 6.73808 70.294 6.49744C71.847 6.11844 68.648 6.24344 67.539 6.27644L67.326 6.28144C67.406 3.99944 67.541 1.49344 67.541 1.49344L67.372 1.47344C67.372 1.47344 67.247 3.99544 67.17 6.28544C66.414 6.30144 65.174 6.31344 64.164 6.32344C64.52 5.28044 65.241 2.85344 65.561 1.77744V1.77744ZM61.883 7.06144C61.8827 7.03895 61.8869 7.01662 61.8954 6.99577C61.9038 6.97491 61.9163 6.95593 61.9321 6.93994C61.9479 6.92394 61.9667 6.91124 61.9875 6.90257C62.0082 6.8939 62.0305 6.88944 62.053 6.88944C62.0756 6.88931 62.098 6.89367 62.1188 6.90228C62.1397 6.91089 62.1587 6.92357 62.1746 6.93958C62.1905 6.95559 62.2031 6.97461 62.2115 6.99553C62.22 7.01646 62.2243 7.03886 62.224 7.06144C62.224 7.15544 62.15 7.23144 62.053 7.23144C62.0079 7.23144 61.9647 7.21353 61.9328 7.18165C61.9009 7.14977 61.883 7.10653 61.883 7.06144V7.06144ZM60.552 7.18144H61.802C61.843 7.26444 61.922 7.32344 62.018 7.33544H60.552C60.448 7.33544 60.448 7.18144 60.552 7.18144V7.18144ZM61.344 5.69044L61.215 5.81544C59.886 7.07844 59.095 7.46844 55.583 7.46844C54.853 7.46844 47.411 7.52244 44.646 7.54344C44.915 7.31444 45.237 7.04144 45.589 6.74644C46.941 6.61044 49.576 6.39544 53.815 6.31544C58.689 6.22344 60.633 5.87944 61.344 5.69044V5.69044ZM57.062 1.33044C59.828 1.46644 62.752 1.81344 63.871 1.95644C63.4338 2.96863 62.8619 3.91719 62.171 4.77644C61.233 4.71844 57.939 4.52844 54.382 4.42944C50.64 4.32444 48.423 4.91544 47.298 5.31444C47.749 4.93944 48.183 4.58244 48.553 4.28344C50.23 2.93344 52.118 1.60944 52.532 1.32044C52.931 1.29344 54.544 1.20444 57.062 1.33044V1.33044ZM38.993 7.37144C40.617 7.39844 42.082 7.38344 42.56 7.37744C42.84 7.14344 43.56 6.54944 44.492 5.80044C42.113 5.82644 40.055 6.45544 38.993 7.37144ZM36.387 7.28844C36.634 7.30244 36.891 7.31344 37.15 7.32344C39.946 5.96144 44.733 3.64944 47.002 2.75144C47.845 2.41844 49.188 1.78244 50.719 1.02144C50.5345 0.991896 50.3491 0.96855 50.163 0.951441C49.32 1.28844 48.517 1.60844 47.821 1.88444L44.155 3.46444C41.541 4.68744 38.282 6.32944 36.387 7.28844V7.28844ZM51.037 0.98744C50.395 1.43944 48.778 2.59044 46.985 3.96244C45.4992 5.10373 44.0352 6.27328 42.594 7.47044C41.817 7.48244 37.765 7.53144 35.267 7.33444C34.9404 7.31368 34.6157 7.27058 34.295 7.20544L49.144 0.80644C50.046 0.82044 50.644 0.899439 51.016 0.982439L51.037 0.98744V0.98744Z" fill="black"/>
</svg>
