<svg xmlns="http://www.w3.org/2000/svg" width="30.718" height="42" viewBox="0 0 30.718 42">
  <g id="care_place_marker" transform="translate(-981 -385)">
    <path id="Path_6" data-name="Path 6" d="M35.718,17.359a15.289,15.289,0,0,1-2.747,8.768h0L22.209,42.987a2.194,2.194,0,0,1-3.7,0L7.795,26.2a15.36,15.36,0,1,1,27.924-8.836ZM20.359,26.136a8.777,8.777,0,1,0-8.777-8.777A8.777,8.777,0,0,0,20.359,26.136Z" transform="translate(976 383)" fill="#242a45" fill-rule="evenodd"/>
    <path id="Icon_map-car-wash" data-name="Icon map-car-wash" d="M8.6,1.2V.4H1.4v.8H0V9.8H.8V2h.6v.8H8.6V2h.6V9.8H10V1.2ZM8.41,5.8l-1.3-2.225A.364.364,0,0,0,6.816,3.4H3.184a.363.363,0,0,0-.289.175L1.59,5.8a.4.4,0,0,0-.39.4v2a.4.4,0,0,0,.39.4H2v.6a.577.577,0,0,0,.564.6h.195A.644.644,0,0,0,3.4,9.2V8.6H6.6v.6a.644.644,0,0,0,.641.6h.2A.577.577,0,0,0,8,9.2V8.6h.41a.4.4,0,0,0,.39-.4v-2a.4.4,0,0,0-.39-.4ZM2.272,7.4a.5.5,0,1,1,.487-.5A.494.494,0,0,1,2.272,7.4Zm.292-1.6.887-1.621A.346.346,0,0,1,3.733,4H6.267a.345.345,0,0,1,.282.179L7.436,5.8H2.564ZM7.728,7.4a.5.5,0,1,1,.487-.5.494.494,0,0,1-.487.5Z" transform="translate(991.359 394.9)" fill="#242a45"/>
  </g>
</svg>
