<svg xmlns="http://www.w3.org/2000/svg" width="30.718" height="42" viewBox="0 0 30.718 42">
    <g id="Group_5" data-name="Group 5" transform="translate(-981 -385)">
        <path id="Path_5" data-name="Path 5"
            d="M12.383,85.434a7.538,7.538,0,0,0-.135-1.548,2.954,2.954,0,0,0-.638-.5c-.428-.293-.418-.249-.5-.44.07-.022.138-.063.179-.068.092-.01.1.077.288.077a1.594,1.594,0,0,0,.689-.135c.085-.085.111-.114.111-.189a.572.572,0,0,0-.126-.322,1.538,1.538,0,0,0-.638-.164c-.206-.027-.235,0-.288.034-.085.053-.089.539-.089.539l-.2,0a11.815,11.815,0,0,0-.595-1.48,1.537,1.537,0,0,0-.769-.774,6.119,6.119,0,0,0-1.161-.162A21.274,21.274,0,0,0,6.191,80.2a21.907,21.907,0,0,0-2.322.109,6.389,6.389,0,0,0-1.161.162,1.535,1.535,0,0,0-.769.774,11.816,11.816,0,0,0-.595,1.48l-.2,0s0-.486-.089-.539C1,82.147.972,82.118.767,82.147a1.576,1.576,0,0,0-.638.164A.572.572,0,0,0,0,82.633c0,.075.027.106.111.189a1.594,1.594,0,0,0,.689.135c.191,0,.2-.087.288-.077a1.87,1.87,0,0,1,.179.068c-.08.191-.068.148-.5.44a2.965,2.965,0,0,0-.638.5A7.538,7.538,0,0,0,0,85.434c0,.743.053,1.41.053,1.647a3.475,3.475,0,0,0,.022.44.888.888,0,0,0,.075.271c.065.133.126.145.375.133.319-.014.781,0,1.258.019.319.012.646.024.936.031.726.015.513-.106.822-.1s1.531.056,2.648.056,2.341-.051,2.648-.056.1.116.822.1c.29,0,.617-.019.936-.031.476-.017.941-.034,1.258-.019.249.012.31,0,.375-.133a.963.963,0,0,0,.075-.271,3.073,3.073,0,0,0,.022-.44C12.33,86.846,12.383,86.176,12.383,85.434Zm-10.3-3.662a2.883,2.883,0,0,1,.634-.912,4.749,4.749,0,0,1,1.3-.2c.83-.056,1.746-.077,2.172-.077s1.342.022,2.172.077a4.633,4.633,0,0,1,1.3.2,2.723,2.723,0,0,1,.634.912,3.063,3.063,0,0,1,.242.876c-.029.073.029.109-.363.077s-2.835-.06-3.986-.06-3.594.031-3.986.06-.334,0-.363-.077a2.88,2.88,0,0,1,.237-.876Zm.89,3.028a1.586,1.586,0,0,1-.5.135c-.218,0-.805-.1-.931-.1a.846.846,0,0,0-.3.1,1.058,1.058,0,0,1-.387-.089c-.193-.06-.307-.044-.37-.307a1.884,1.884,0,0,1,0-.636,4.6,4.6,0,0,1,1.579.232,2.955,2.955,0,0,1,1.178.622A1.393,1.393,0,0,0,2.975,84.8Zm5.688,1.906c-.346.046-1.795.058-2.472.058s-2.126-.015-2.472-.058-.813-.469-.5-.805c.428-.457.348-.443,1.321-.568a13.24,13.24,0,0,1,1.647-.114,13.8,13.8,0,0,1,1.647.114c.972.126.892.111,1.321.568C9.476,86.237,9.016,86.66,8.663,86.706Zm3.231-2.167c-.065.261-.177.247-.37.307a1.113,1.113,0,0,1-.387.089c-.065-.014-.177-.1-.3-.1s-.713.1-.931.1a1.654,1.654,0,0,1-.5-.135,1.249,1.249,0,0,0-.271-.044,2.9,2.9,0,0,1,1.178-.622,4.6,4.6,0,0,1,1.579-.232A1.858,1.858,0,0,1,11.894,84.539Z"
            transform="translate(990.168 315.783)" fill="#5267df" />
        <path id="Path_6" data-name="Path 6"
            d="M35.718,17.359a15.289,15.289,0,0,1-2.747,8.768h0L22.209,42.987a2.194,2.194,0,0,1-3.7,0L7.795,26.2a15.36,15.36,0,1,1,27.924-8.836ZM20.359,26.136a8.777,8.777,0,1,0-8.777-8.777A8.777,8.777,0,0,0,20.359,26.136Z"
            transform="translate(976 383)" fill="#5267df" fill-rule="evenodd" />
    </g>
</svg>
