<svg width="31" height="42" viewBox="0 0 31 42" fill="none" xmlns="http://www.w3.org/2000/svg">
<g clip-path="url(#clip0_304_6)">
<path d="M21.551 16.2169C21.5594 15.6976 21.5142 15.1789 21.416 14.6689C21.2273 14.4737 21.0126 14.3055 20.778 14.1689C20.35 13.8759 20.36 13.9199 20.278 13.7289C20.348 13.7069 20.416 13.6659 20.457 13.6609C20.549 13.6509 20.557 13.7379 20.745 13.7379C20.9818 13.7447 21.2172 13.6986 21.434 13.6029C21.519 13.5179 21.545 13.4889 21.545 13.4139C21.5372 13.2961 21.4932 13.1837 21.419 13.0919C21.2207 12.9918 21.003 12.9358 20.781 12.9279C20.575 12.9009 20.546 12.9279 20.493 12.9619C20.408 13.0149 20.404 13.5009 20.404 13.5009H20.204C20.0392 12.9947 19.8404 12.5003 19.609 12.0209C19.4559 11.6775 19.1823 11.4022 18.84 11.2469C18.4591 11.1559 18.0703 11.1016 17.679 11.0849C16.9081 11.0087 16.1336 10.9746 15.359 10.9829C14.5836 10.9781 13.8085 11.0145 13.037 11.0919C12.6458 11.1102 12.2572 11.1644 11.876 11.2539C11.5335 11.409 11.2599 11.6844 11.107 12.0279C10.8755 12.5073 10.6768 13.0017 10.512 13.5079H10.312C10.312 13.5079 10.312 13.0219 10.223 12.9689C10.168 12.9299 10.14 12.9009 9.93499 12.9299C9.71314 12.939 9.49573 12.9949 9.29699 13.0939C9.22169 13.1853 9.17662 13.2978 9.16799 13.4159C9.16799 13.4909 9.19499 13.5219 9.27899 13.6049C9.49577 13.7006 9.73114 13.7467 9.96799 13.7399C10.159 13.7399 10.168 13.6529 10.256 13.6629C10.3168 13.6825 10.3765 13.7052 10.435 13.7309C10.355 13.9219 10.367 13.8789 9.93499 14.1709C9.70043 14.3076 9.48576 14.4758 9.29699 14.6709C9.20093 15.1804 9.1577 15.6985 9.16799 16.2169C9.16799 16.9599 9.22099 17.6269 9.22099 17.8639C9.21901 18.0109 9.22635 18.1579 9.24299 18.3039C9.25344 18.3977 9.27875 18.4891 9.31799 18.5749C9.38299 18.7079 9.44399 18.7199 9.69299 18.7079C10.012 18.6939 10.474 18.7079 10.951 18.7269C11.27 18.7389 11.597 18.7509 11.887 18.7579C12.613 18.7729 12.4 18.6519 12.709 18.6579C13.018 18.6639 14.24 18.7139 15.357 18.7139C16.474 18.7139 17.698 18.6629 18.005 18.6579C18.312 18.6529 18.105 18.7739 18.827 18.7579C19.117 18.7579 19.444 18.7389 19.763 18.7269C20.239 18.7099 20.704 18.6929 21.021 18.7079C21.27 18.7199 21.331 18.7079 21.396 18.5749C21.4341 18.4887 21.4594 18.3974 21.471 18.3039C21.4888 18.158 21.4962 18.0109 21.493 17.8639C21.498 17.6289 21.551 16.9589 21.551 16.2169ZM11.251 12.5549C11.4012 12.2127 11.6165 11.9029 11.885 11.6429C12.3069 11.5163 12.7445 11.449 13.185 11.4429C14.015 11.3869 14.931 11.3659 15.357 11.3659C15.783 11.3659 16.699 11.3879 17.529 11.4429C17.9696 11.4474 18.4074 11.5148 18.829 11.6429C19.1007 11.9001 19.3166 12.2106 19.463 12.5549C19.5868 12.8332 19.6683 13.1285 19.705 13.4309C19.676 13.5039 19.734 13.5399 19.342 13.5079C18.95 13.4759 16.507 13.4479 15.356 13.4479C14.205 13.4479 11.762 13.4789 11.37 13.5079C10.978 13.5369 11.036 13.5079 11.007 13.4309C11.0392 13.1282 11.1192 12.8325 11.244 12.5549H11.251ZM12.141 15.5829C11.9828 15.655 11.8139 15.7006 11.641 15.7179C11.423 15.7179 10.836 15.6179 10.71 15.6179C10.6046 15.6321 10.5028 15.666 10.41 15.7179C10.2765 15.7129 10.1452 15.6827 10.023 15.6289C9.82999 15.5689 9.71599 15.5849 9.65299 15.3219C9.61695 15.1114 9.61695 14.8964 9.65299 14.6859C10.1888 14.6706 10.7232 14.7492 11.232 14.9179C11.6669 15.0329 12.0698 15.2456 12.41 15.5399C12.3198 15.5455 12.2304 15.5599 12.143 15.5829H12.141ZM17.829 17.4889C17.483 17.5349 16.034 17.5469 15.357 17.5469C14.68 17.5469 13.231 17.5319 12.885 17.4889C12.539 17.4459 12.072 17.0199 12.385 16.6839C12.813 16.2269 12.733 16.2409 13.706 16.1159C14.2521 16.0437 14.8021 16.0056 15.353 16.0019C15.9038 16.007 16.4538 16.0451 17 16.1159C17.972 16.2419 17.892 16.2269 18.321 16.6839C18.644 17.0199 18.184 17.4429 17.831 17.4889H17.829ZM21.06 15.3219C20.995 15.5829 20.883 15.5689 20.69 15.6289C20.5674 15.6815 20.4363 15.7117 20.303 15.7179C20.238 15.7039 20.126 15.6179 20.003 15.6179C19.88 15.6179 19.29 15.7179 19.072 15.7179C18.8993 15.6994 18.7305 15.6539 18.572 15.5829C18.4835 15.5583 18.3927 15.5436 18.301 15.5389C18.6401 15.243 19.0434 15.03 19.479 14.9169C19.9878 14.7482 20.5222 14.6696 21.058 14.6849C21.096 14.8954 21.0973 15.1109 21.062 15.3219H21.06Z" fill="#2D7600"/>
<path fill-rule="evenodd" clip-rule="evenodd" d="M30.718 15.3589C30.723 18.4941 29.764 21.5551 27.971 24.1269V24.1269L17.209 40.9869C17.0108 41.2979 16.7373 41.5539 16.414 41.7312C16.0906 41.9085 15.7278 42.0015 15.359 42.0015C14.9902 42.0015 14.6274 41.9085 14.3041 41.7312C13.9807 41.5539 13.7073 41.2979 13.509 40.9869L2.79503 24.1999C1.40635 22.2254 0.502627 19.9513 0.157145 17.5622C-0.188337 15.1731 0.0341538 12.7361 0.806571 10.4491C1.57899 8.162 2.87958 6.08919 4.60287 4.39875C6.32616 2.70831 8.42361 1.44784 10.7251 0.719575C13.0266 -0.00869071 15.4674 -0.184248 17.8494 0.207141C20.2315 0.598531 22.4877 1.54585 24.4352 2.97226C26.3827 4.39867 27.9665 6.26401 29.0583 8.41699C30.1501 10.57 30.719 12.95 30.719 15.3639L30.718 15.3589ZM15.359 24.1359C17.095 24.1359 18.7919 23.6212 20.2353 22.6568C21.6786 21.6923 22.8036 20.3215 23.4679 18.7178C24.1322 17.114 24.306 15.3492 23.9674 13.6466C23.6287 11.9441 22.7928 10.3802 21.5653 9.15267C20.3378 7.92518 18.7739 7.08925 17.0713 6.75059C15.3688 6.41193 13.604 6.58574 12.0002 7.25005C10.3964 7.91436 9.02565 9.03933 8.06122 10.4827C7.09679 11.9261 6.58203 13.623 6.58203 15.3589C6.58203 17.6867 7.50674 19.9192 9.15275 21.5652C10.7988 23.2112 13.0312 24.1359 15.359 24.1359Z" fill="#2D7600"/>
</g>
<defs>
<clipPath id="clip0_304_6">
<rect width="30.718" height="42" fill="white"/>
</clipPath>
</defs>
</svg>
