<svg xmlns="http://www.w3.org/2000/svg" width="30.718" height="42" viewBox="0 0 30.718 42">
  <g id="service_place_marker" transform="translate(-981 -385)">
    <path id="Path_6" data-name="Path 6" d="M35.718,17.359a15.289,15.289,0,0,1-2.747,8.768h0L22.209,42.987a2.194,2.194,0,0,1-3.7,0L7.795,26.2a15.36,15.36,0,1,1,27.924-8.836ZM20.359,26.136a8.777,8.777,0,1,0-8.777-8.777A8.777,8.777,0,0,0,20.359,26.136Z" transform="translate(976 383)" fill="#fa5959" fill-rule="evenodd"/>
    <path id="Icon_ionic-ios-settings" data-name="Icon ionic-ios-settings" d="M10.267,6.107a1.282,1.282,0,0,1,.823-1.2,5.083,5.083,0,0,0-.615-1.482,1.3,1.3,0,0,1-.522.112,1.279,1.279,0,0,1-1.17-1.8A5.067,5.067,0,0,0,7.3,1.125a1.281,1.281,0,0,1-2.393,0,5.083,5.083,0,0,0-1.482.615,1.279,1.279,0,0,1-1.17,1.8,1.257,1.257,0,0,1-.522-.112,5.2,5.2,0,0,0-.612,1.484,1.282,1.282,0,0,1,0,2.393,5.083,5.083,0,0,0,.615,1.482,1.28,1.28,0,0,1,1.689,1.689,5.112,5.112,0,0,0,1.482.615,1.279,1.279,0,0,1,2.387,0,5.083,5.083,0,0,0,1.482-.615,1.281,1.281,0,0,1,1.689-1.689,5.112,5.112,0,0,0,.615-1.482A1.288,1.288,0,0,1,10.267,6.107ZM6.131,8.181A2.076,2.076,0,1,1,8.207,6.1,2.075,2.075,0,0,1,6.131,8.181Z" transform="translate(990.252 394.528)" fill="#fa5959"/>
  </g>
</svg>
