<svg width="253" height="253" viewBox="0 0 253 253" fill="none" xmlns="http://www.w3.org/2000/svg">
<path d="M126.6 0.299988C57.0999 0.299988 0.699951 56.7 0.699951 126.2C0.699951 195.7 57.0999 252.1 126.6 252.1C196.1 252.1 252.5 195.7 252.5 126.2C252.5 56.6 196.1 0.299988 126.6 0.299988ZM126.6 30.9C168.5 30.9 204.1 58 216.9 95.6C212.3 98.5 206 101.5 197.7 103.6C186.2 106.6 174 104.1 164.5 97C155.6 90.4 142 82.7 126.6 82.7C111.2 82.7 97.6 90.4 88.7 97C79.2 104.1 66.9999 106.6 55.4999 103.6C47.1999 101.5 40.8999 98.4 36.2999 95.6C48.9999 58 84.5999 30.9 126.6 30.9ZM144.4 139.8C144.3 139.8 144.2 139.8 144.1 139.8C141.2 139.8 138.9 142.2 139.1 145.1C139.1 145.2 139.1 145.3 139.1 145.4C139.1 149.9 133.4 152.2 130.3 148.8C129.3 147.7 127.9 147.1 126.6 147.1C125.2 147.1 123.9 147.7 122.9 148.8C121.8 150 120.5 150.5 119.2 150.5C116.5 150.5 114 148.4 114.1 145.2C114.1 145.1 114.1 145 114.1 144.9C114.1 142 111.7 139.7 108.8 139.9C108.7 139.9 108.6 139.9 108.5 139.9C104 139.9 101.7 134.2 105.1 131.1C106.2 130.1 106.8 128.7 106.8 127.4C106.8 126 106.2 124.7 105.1 123.7C103.9 122.6 103.4 121.3 103.4 120C103.4 117.3 105.5 114.8 108.7 114.9C108.8 114.9 108.9 114.9 109 114.9C111.9 114.9 114.2 112.5 114 109.6C114 109.5 114 109.4 114 109.3C114 104.8 119.7 102.5 122.8 105.9C123.8 107 125.2 107.6 126.5 107.6C127.9 107.6 129.2 107 130.2 105.9C133.4 102.4 139.2 104.8 139 109.5C139 109.6 139 109.7 139 109.8C139 112.7 141.4 115 144.3 114.8C144.4 114.8 144.5 114.8 144.6 114.8C149.1 114.8 151.4 120.5 148 123.6C146.9 124.6 146.3 126 146.3 127.3C146.3 128.7 146.9 130 148 131C149.2 132.1 149.7 133.4 149.7 134.7C149.7 137.4 147.6 140 144.4 139.8ZM31.9 136.4C41.5 141.1 52.4999 143.5 61.2999 144.7C69.0999 145.8 76.5 149 82.2 154.3C83.3 155.3 84.3999 156.2 85.5999 157C96.8999 164.5 104.1 176.8 104.1 190.4V218.7C65.4999 209.4 36.2 176.7 31.9 136.4ZM149.2 218.7V190.4C149.2 176.8 156.4 164.5 167.7 157C168.9 156.2 170 155.3 171.1 154.3C176.8 148.9 184.2 145.8 192 144.7C200.7 143.5 211.8 141.1 221.4 136.4C217 176.7 187.6 209.4 149.2 218.7Z" fill="#171918"/>
</svg>
