<svg fill="#ffffff" xmlns="http://www.w3.org/2000/svg"><path d="M20.02 10 q1.484375 0 1.484375 4.609375 q-0.078125 4.8828125 -0.234375 8.359375 l0.078125 0 l-0.078125 0.15625 q-0.46875 13.84765625 -0.46875 15.390625 q0 0.1953125 -0.15625 0.78125 l-0.15625 -0.078125 q0 0.1171875 -0.46875 0.390625 q-0.3125 -0.44921875 -0.3125 -0.703125 l-0.078125 0 l0 0.3125 q-0.1171875 0 -0.3125 -0.390625 l0.078125 -0.15625 q-0.078125 -0.15625 -0.078125 -0.234375 q0.078125 0 0.078125 -0.078125 l-0.15625 -0.078125 l0.078125 -0.15625 q0 -0.078125 -0.078125 -0.078125 l0.078125 -0.15625 q0 -0.078125 -0.078125 -0.078125 l0.078125 -0.15625 q0 -0.078125 -0.078125 -0.078125 l0.078125 -0.15625 q0 -0.078125 -0.078125 -0.078125 l0.078125 -0.15625 q0 -0.078125 -0.078125 -0.078125 q0.078125 -0.546875 0.15625 -0.546875 l-0.078125 -0.15625 l0 -0.23438 q0 -0.078125 0.078125 -0.078125 l-0.078125 -0.15625 l0.078125 -0.15625 q-0.15625 0 -0.15625 -0.15625 l0.15625 0 l0 -0.078125 l-0.078125 -0.15625 l0.078125 0 q0 -0.078125 -0.078125 -0.078125 l0.078125 -0.39063 l0 -0.625 l0.078125 -0.15625 q-0.078125 0 -0.078125 -0.078125 l0.078125 0 l-0.078125 -0.15625 l0 -0.078125 q0 -0.078125 0.078125 -0.078125 q0 -0.078125 -0.078125 -0.078125 l0.15625 -1.3281 q-0.078125 0 -0.078125 -0.078125 l0.078125 0 l-0.078125 -0.15625 q0.078125 -0.15625 0.078125 -0.234375 l-0.078125 0 l0.078125 -0.15625 q0 -0.078125 -0.078125 -0.078125 l0.15625 -0.9375 l-0.078125 0 l0.078125 -0.15625 l0 -0.23438 q0 -0.078125 -0.078125 -0.078125 l0.078125 -0.15625 l0 -0.23438 q0 -0.078125 -0.078125 -0.078125 l0.078125 -0.15625 l-0.078125 -0.15625 q0.078125 0 0.078125 -0.078125 l-0.078125 0 q0.078125 -0.1953125 0.15625 -0.78125 l-0.078125 0 l0.078125 -0.15625 l-0.078125 -0.15625 l0.078125 0 l-0.078125 -0.15625 q0.078125 -0.15625 0.078125 -0.234375 l-0.078125 0 l0.078125 -0.15625 q0 -0.078125 -0.078125 -0.078125 l0.078125 -0.15625 q0 -0.078125 -0.078125 -0.078125 l0.078125 -0.15625 q0 -0.078125 -0.078125 -0.078125 l0.15625 -0.625 l-0.078125 0 l0.078125 -0.15625 q0 -0.078125 -0.078125 -0.078125 l0.078125 -0.15625 q0 -0.078125 -0.078125 -0.078125 l0.078125 -0.15625 q0 -0.078125 -0.078125 -0.078125 l0.078125 -0.15625 q0 -0.078125 -0.078125 -0.078125 l0.078125 -0.15625 l0 -0.23438 q0 -0.078125 -0.078125 -0.078125 l0.078125 -0.15625 q0 -0.078125 -0.078125 -0.078125 l0.078125 -0.15625 l0 -0.15625 q0 -0.078125 -0.078125 -0.078125 q0.078125 -0.859375 0.15625 -0.859375 l-0.078125 -0.15625 l0.078125 -0.15625 l-0.078125 0 l0.078125 -0.15625 q0 -0.078125 -0.078125 -0.078125 l0.078125 -0.15625 l-0.078125 -0.15625 l0.078125 0 l-0.078125 -0.15625 q0.078125 -0.15625 0.078125 -0.234375 q-0.078125 0 -0.078125 -0.078125 l0.078125 0 q0 -0.078125 -0.078125 -0.078125 l0.078125 -0.39063 l0 -0.078125 q0 -0.078125 -0.078125 -0.078125 q0.078125 -0.78125 0.15625 -0.78125 l-0.078125 -0.15625 q0 -0.078125 0.078125 -0.078125 l-0.078125 -0.15625 q0.078125 -0.15625 0.078125 -0.234375 l-0.078125 0 l0.078125 -0.15625 q0 -0.078125 -0.078125 -0.078125 l0.078125 -0.15625 q0 -0.078125 -0.078125 -0.078125 l0.078125 -0.15625 q0 -0.078125 -0.078125 -0.078125 l0.078125 -0.15625 q-0.078125 -0.15625 -0.078125 -0.234375 l0.078125 0 l-0.078125 -0.15625 l0 -0.23438 l0.078125 -0.15625 l-0.078125 0 l0.078125 -0.15625 l0 -0.23438 l-0.078125 -0.15625 l0.15625 0 l-0.078125 -0.15625 q0 -0.078125 0.078125 -0.078125 l-0.078125 -0.15625 q0.078125 -0.15625 0.078125 -0.234375 l-0.078125 0 l0.078125 -0.15625 q0 -0.078125 -0.078125 -0.078125 l0.078125 -0.15625 l-0.078125 -0.15625 l0.078125 0 l-0.078125 -0.15625 q0.078125 -0.15625 0.078125 -0.234375 l-0.078125 0 l0.078125 -0.15625 q0 -0.078125 -0.078125 -0.078125 l0.078125 -0.15625 q0 -0.078125 -0.078125 -0.078125 l0.078125 -0.15625 q0 -0.078125 -0.078125 -0.078125 l0.078125 -0.15625 q0 -0.078125 -0.078125 -0.078125 l0.078125 -0.15625 q0 -0.078125 -0.078125 -0.078125 l0.078125 -0.15625 q0 -0.078125 -0.078125 -0.078125 l0.078125 -0.15625 q0 -0.078125 -0.078125 -0.078125 l0.078125 -0.15625 q0 -0.078125 -0.078125 -0.078125 l0.078125 -0.15625 q-0.078125 -0.15625 -0.078125 -0.234375 q0.078125 0 0.078125 -0.078125 l-0.15625 0 l0 -0.15625 q0.01953125 -0.15625 0.15625 -0.15625 l-0.15625 -0.78125 q0.15625 0 0.15625 -0.15625 q-0.15625 0 -0.15625 -0.15625 l0.078125 0 l-0.078125 -0.15625 q0 -0.078125 0.078125 -0.078125 l-0.078125 -0.15625 q0.01953125 -0.15625 0.15625 -0.15625 l0 0.15625 l0.078125 0 l0 -0.15625 q-0.078125 0 -0.078125 -0.078125 l0.078125 0 q0 -0.546875 -0.46875 -0.9375 q-0.3515625 0.390625 -0.46875 0.390625 q0.3125 1.1328125 0.46875 2.421875 l-0.078125 0 l0.078125 0.15625 l0 1.0938 q0 0.546875 0.078125 1.71875 l-0.078125 0 l0.078125 0.15625 l-0.078125 0.39063 l0.078125 0 l-0.078125 0.15625 q0 0.078125 0.078125 0.078125 l-0.078125 0.15625 q0 0.078125 0.078125 0.078125 l-0.078125 0.15625 l0 2.1875 q0 0.078125 -0.078125 0.078125 l0.078125 0.15625 q0 0.078125 -0.078125 0.078125 q0 0.078125 0.078125 0.078125 l-0.078125 0.39063 l0 1.0938 q0 0.078125 -0.078125 0.078125 l0.078125 0.15625 q-0.078125 0.15625 -0.078125 0.234375 l0.078125 0 l-0.078125 0.15625 q0 0.078125 0.078125 0.078125 l-0.078125 0.15625 q0 0.078125 0.078125 0.078125 l-0.078125 0.15625 q0 0.078125 0.078125 0.078125 l-0.078125 0.15625 q0 0.078125 0.078125 0.078125 l-0.078125 0.15625 l0 0.625 q0 0.078125 0.078125 0.078125 q-0.05859375 0.3125 -0.15625 0.3125 l0.078125 0.15625 l0 0.078125 q0 0.078125 -0.078125 0.078125 l0.078125 0.15625 q0 0.078125 -0.078125 0.078125 l0.078125 0.15625 l0 0.23438 l-0.078125 0.15625 l0.078125 0 l-0.078125 0.15625 q0 0.078125 0.078125 0.078125 l-0.078125 0.15625 q0 0.078125 0.078125 0.078125 l-0.078125 0.15625 l0 0.70313 q0 0.078125 -0.078125 0.078125 l0.078125 0.15625 l0 0.078125 q0 0.17578125 -0.078125 0.3125 q0.078125 0.13671875 0.078125 0.3125 l0 0.23438 q0 0.078125 -0.078125 0.078125 q0 0.078125 0.078125 0.078125 l-0.078125 0.39063 l0 1.4063 l-0.078125 0.15625 l0.078125 0 l-0.078125 0.15625 q0 0.078125 0.078125 0.078125 l-0.078125 0.15625 l0 1.4844 q0 0.078125 -0.078125 0.078125 q0 0.078125 0.078125 0.078125 l-0.078125 0.39063 l0 1.0938 q0 0.078125 -0.078125 0.078125 l0.078125 0.15625 l-0.078125 0.15625 l0.078125 0 l-0.078125 0.15625 l0 1.4844 l-0.078125 0.39063 l0.078125 0 l-0.078125 0.15625 l0 0.39063 q0 0.078125 0.078125 0.078125 q-0.15625 0.29296875 -0.15625 0.625 q0 1.46484375 0.234375 2.265625 l-0.23438 0 q-0.44921875 0 -0.546875 -2.578125 l0 -0.3125 q0 -0.078125 -0.078125 -0.078125 l0.078125 -0.15625 q0.390625 -8.30078125 0.390625 -10.625 q0.078125 0 0.078125 -0.078125 l-0.078125 0 l0.078125 -0.15625 l0 -1.0938 q0 -0.78125 0.078125 -2.34375 l-0.078125 0 l0.078125 -0.15625 q0.078125 -4.19921875 0.078125 -5.15625 l0.078125 0 l-0.078125 -0.15625 q0.078125 -0.15625 0.078125 -0.234375 l-0.078125 0 l0.078125 -0.15625 l0 -1.3281 q0 -0.078125 -0.078125 -0.078125 l0.078125 -0.15625 q-0.05859375 -3.046875 -0.390625 -3.046875 q-1.19140625 1.34765625 -3.203125 7.96875 q-0.703125 2.2265625 -1.796875 6.484375 q0.078125 0 0.078125 0.078125 q-0.15625 0 -0.78125 2.421875 q-0.8984375 2.5390625 -1.875 3.4375 q-0.78125 0.72265625 -1.875 1.015625 q0 0.21484375 -1.015625 0.3125 q-1.09375 -0.3515625 -1.875 -2.109375 q-1.15234375 -3.046875 -2.421875 -9.0625 l0.078125 0 q-0.78125 -3.359375 -0.859375 -4.140625 l-0.078125 0 q0 0.078125 -0.078125 0.234375 q-0.078125 2.05078125 -0.078125 3.4375 l0 0.625 q0 0.078125 0.078125 0.078125 l-0.078125 0.15625 q0 2.265625 0.703125 12.265625 q0 2.55859375 -1.015625 3.203125 l-0.078125 0 l0 -0.15625 l-0.078125 0 l-0.15625 0.078125 q-0.078125 -0.15625 -0.078125 -0.234375 q0.390625 -0.9765625 0.390625 -1.875 l0.078125 0 l0 0.23438 l0.078125 0 l0 -1.0156 q0 -0.17578125 0.078125 -0.3125 q-0.078125 -0.13671875 -0.078125 -0.3125 l0 -1.0938 q0 -0.078125 -0.078125 -0.078125 q0 -0.078125 0.078125 -0.078125 q-0.3125 -2.94921875 -0.3125 -3.828125 q-0.078125 0 -0.078125 -0.078125 l0.078125 0 l-0.078125 -0.15625 l0 -1.0938 l-0.15625 0 l0.078125 -0.15625 l0 -0.078125 q0 -0.078125 -0.078125 -0.078125 l0.078125 -0.15625 q-0.078125 -1.30859375 -0.078125 -2.03125 l0 -0.23438 l-0.078125 -0.15625 l0.078125 0 l-0.078125 -0.15625 l0 -2.1094 q0 -0.078125 -0.078125 -0.078125 l0.078125 -0.15625 l0 -0.15625 l-0.15625 0 q0.05859375 -0.3125 0.15625 -0.3125 l-0.078125 -0.15625 l0 -0.23438 q0 -0.078125 0.078125 -0.078125 l-0.078125 -0.15625 l0 -0.3125 l0.078125 -0.54688 l-0.078125 0 l0.078125 -0.15625 l0 -0.39063 q0 -1.15234375 -0.078125 -2.03125 q0.078125 -0.44921875 0.078125 -1.25 q0.078125 0 0.078125 -0.078125 l-0.078125 0 q0.078125 -0.15625 0.078125 -0.234375 q0 -0.8984375 0.15625 -1.484375 l-0.078125 0 q0.078125 -0.15625 0.078125 -0.234375 q0 -0.13671875 -0.078125 -0.9375 l-0.15625 0 q0.078125 -0.15625 0.078125 -0.234375 l0 -0.078125 l-0.078125 0 q-0.703125 4.90234375 -0.703125 8.359375 l0 0.78125 q0 5.48828125 0.546875 9.453125 q0 0.078125 -0.078125 0.078125 q0.234375 2.1484375 0.234375 3.90625 q-0.1953125 2.1484375 -0.46875 2.1875 l-0.078125 0 q0 -0.09765625 -0.078125 -0.78125 q0.234375 -0.95703125 0.234375 -2.109375 l-0.625 -10.234 q-0.078125 -0.859375 -0.078125 -3.359375 q0 -3.96484375 0.78125 -9.921875 l0.078125 0 l0 0.23438 l0.078125 0 l0 -0.23438 l0.078125 0 l0.3125 0.46875 l0.15625 0 q0.7421875 -1.171875 0.859375 -1.171875 q0.13671875 -0.078125 0.390625 -0.078125 q0.15625 0.15625 0.78125 4.21875 q1.953125 8.92578125 3.046875 13.28125 q1.03515625 2.96875 1.875 2.96875 l0 -0.078125 q1.015625 -1.46484375 2.734375 -7.8125 l0.85938 -2.7344 q-0.078125 0 -0.078125 -0.078125 q0.21484375 0 0.3125 -0.625 q0.46875 -1.23046875 0.78125 -2.34375 l0.15625 0.078125 l-0.078125 -0.15625 l0 -0.078125 l0.15625 0.078125 l0 -0.15625 q0 -0.078125 -0.078125 -0.078125 q0.15625 -0.3125 0.15625 -0.546875 l0.15625 0.078125 l-0.078125 -0.15625 l0.078125 -0.39063 l0.15625 0.078125 q-0.078125 -0.15625 -0.078125 -0.234375 l0 -0.078125 l0.078125 0 l0 0.15625 l0.078125 0 l0 -0.078125 q-0.078125 -0.15625 -0.078125 -0.234375 l0.15625 0.078125 q-0.078125 -0.15625 -0.078125 -0.234375 l0 -0.078125 l0.078125 0 l0 0.15625 l0.078125 0 l0 -0.078125 q-0.078125 -0.13671875 -0.078125 -0.3125 l0.15625 0.078125 l-0.078125 -0.15625 l0 -0.078125 l0.15625 0.078125 l-0.078125 -0.15625 l0 -0.15625 l0.15625 0.078125 q0 -0.1171875 0.703125 -1.5625 q-0.078125 0 -0.078125 -0.078125 q0.17578125 0 0.546875 -0.9375 q-0.078125 0 -0.078125 -0.078125 q0.1953125 0 0.9375 -1.40625 q0.7421875 -0.78125 1.015625 -0.78125 q1.03515625 -1.09375 1.796875 -1.09375 z M19.941 12.030999999999999 l0 0.23438 q-0.15625 0 -0.15625 -0.15625 z M16.738 13.359000000000002 q-2.265625 4.453125 -5.625 16.875 q-0.09765625 0 -0.3125 0.78125 q0.44921875 -0.390625 1.640625 -4.453125 q1.796875 -6.953125 4.375 -13.125 l0 -0.078125 l-0.078125 0 z M3.457 15.234000000000002 l-0.23438 1.875 q0.95703125 5.390625 1.171875 5.390625 q0 0.078125 -0.078125 0.078125 q1.19140625 6.2890625 2.578125 9.453125 q0.68359375 0.9375 0.859375 0.9375 l0 -0.078125 q-0.1171875 0 -0.234375 -0.234375 l0.078125 0 q0.25390625 0.15625 0.46875 0.15625 l0.078125 0 q0.15625 0 0.15625 -0.15625 q-0.1171875 0 -0.3125 -0.3125 q0.078125 0 0.078125 -0.078125 q-0.234375 0 -0.234375 -0.15625 q0.078125 0 0.078125 -0.078125 l-0.39063 -0.23438 q0 -0.078125 0.078125 -0.078125 q0 -0.05859375 -0.3125 -0.703125 q0.078125 0 0.078125 -0.078125 q-0.13671875 0 -0.46875 -0.9375 q0.078125 0 0.078125 -0.078125 q-0.17578125 0 -0.9375 -3.125 l-1.25 -5.625 l-0.078125 0 l0.078125 -0.15625 q-0.78125 -3.76953125 -0.9375 -4.21875 l0.078125 0 q-0.15625 -0.3515625 -0.3125 -1.5625 l-0.15625 0 z M2.1289 18.437 l0 0.70313 l0.078125 0 l0 -0.70313 l-0.078125 0 z M1.9727 19.609 l0.078125 0 l0 0.78125 l-0.078125 0 l0 -0.78125 z M9.7852 31.7969 q0 0.078125 -0.078125 0.234375 l0.078125 0 l0.078125 -0.15625 l0 -0.078125 l-0.078125 0 z M40.4492625 7.421999999999997 q2.34375 0.390625 2.34375 3.046875 l0 0.15625 q0 1.23046875 -0.546875 1.328125 l-0.078125 0 q-0.05859375 -0.546875 -0.15625 -0.546875 l0.15625 -0.39063 q0 -1.5625 -1.015625 -2.1875 q-0.3125 -0.0390625 -0.3125 -0.234375 l-0.15625 0.078125 q-0.13671875 -0.078125 -0.3125 -0.078125 l0 0.15625 q0.17578125 0 0.390625 0.390625 l-0.078125 0 q0.78125 1.11328125 0.78125 2.265625 l0 0.78125 q0 0.15625 -0.15625 0.15625 l-0.15625 -0.54688 q0 -0.078125 0.078125 -0.078125 q0 -2.01171875 -1.484375 -2.65625 q-0.3125 -0.078125 -0.546875 -0.078125 q-0.95703125 0 -1.328125 0.78125 q-0.3125 0.46875 -0.3125 0.625 q0.078125 0 0.078125 0.078125 q-0.2734375 0 -0.703125 1.171875 q0.078125 0 0.078125 0.078125 q-0.2734375 0 -0.78125 2.109375 q0.078125 0 0.078125 0.078125 q-0.25390625 0.01953125 -0.546875 1.953125 q-1.171875 6.23046875 -1.171875 11.484375 q-0.078125 0 -0.078125 1.171875 l-0.078125 0 q0 0.078125 0.078125 0.078125 q0 0.0390625 -0.078125 0.3125 q0 1.0546875 -0.078125 3.671875 q0 5.625 2.265625 5.625 l0.078125 0 q1.81640625 0 3.671875 -2.109375 l1.0156 -0.85938 q0.15625 0.078125 0.234375 0.078125 q-0.46875 1.62109375 -2.65625 3.203125 q-2.5390625 1.484375 -4.0625 1.484375 l-0.3125 0 q-2.0703125 0 -2.96875 -2.8125 q-0.390625 -1.69921875 -0.390625 -4.140625 q0 -0.078125 -0.078125 -0.078125 l0.078125 -0.15625 q0 -4.39453125 1.484375 -15.078125 q0.703125 -3.18359375 1.171875 -4.21875 l0.078125 0 l-0.078125 -0.15625 l0.15625 -0.078125 l-0.078125 -0.15625 l0 -0.078125 l0.15625 0.078125 q0 -0.17578125 0.078125 -0.3125 q-0.078125 0 -0.078125 -0.078125 q0.13671875 -0.09765625 1.25 -2.34375 l0.15625 -0.078125 l0.078125 0.15625 l-0.39063 0.625 l0 0.078125 l0.078125 0 q0.37109375 -1.15234375 3.125 -3.203125 q1.0546875 -0.546875 2.03125 -0.546875 z M35.2148625 12.187000000000001 q0 0.21484375 -0.15625 0.46875 l0.15625 0 l0.078125 -0.39063 l0 -0.078125 l-0.078125 0 z M34.9804625 12.734000000000002 l0.078125 0.15625 q-0.1171875 0 -0.234375 0.3125 q0.078125 0 0.078125 0.078125 l-0.15625 0 l0.078125 0.15625 q-0.15625 0.01953125 -0.15625 0.15625 q0.078125 0 0.078125 0.078125 l-0.15625 0 q0 0.078125 0.078125 0.078125 q-0.25390625 0.41015625 -0.46875 1.328125 q0.078125 0 0.078125 0.078125 q-0.3515625 0 -0.9375 3.90625 q-0.078125 0 -0.15625 0.546875 l0.078125 0 l-0.23438 1.0938 l0.078125 0 l-0.15625 0.70313 l0.078125 0 q-0.15625 0.7421875 -0.390625 3.4375 l0.078125 0 q-0.078125 0.13671875 -0.15625 0.9375 l0.078125 0 q-0.15625 0.234375 -0.3125 3.359375 q0.078125 0 0.078125 0.078125 q-0.15625 0.01953125 -0.15625 0.15625 l0.23438 0 l0.078125 -0.46875 q-0.078125 0 -0.078125 -0.078125 q0.078125 0 0.078125 -0.078125 l-0.078125 0 l0.078125 -0.15625 l0.23438 -3.5938 q-0.078125 0 -0.078125 -0.078125 q0.15625 0 0.15625 -0.15625 l0 -0.3125 q0 -0.078125 -0.078125 -0.078125 q0.13671875 -0.5078125 0.46875 -3.125 l-0.078125 0 l0.23438 -1.0938 l-0.078125 0 q0.703125 -4.3359375 1.71875 -7.265625 q0.078125 0 0.078125 -0.15625 l-0.15625 0 z M32.2460625 29.609 l0.078125 0.15625 q-0.078125 0 -0.078125 0.078125 q0.078125 0 0.078125 0.078125 q-0.078125 0 -0.078125 0.078125 l0.078125 0 l-0.078125 0.15625 l0 0.15625 q0 0.078125 0.078125 0.078125 q-0.15625 0.44921875 -0.15625 1.71875 l0.078125 0 q-0.078125 0.15625 -0.078125 0.234375 l0 0.85938 l0.078125 0 q0.078125 -2.44140625 0.234375 -3.75 l-0.078125 0 q-0.15625 0.01953125 -0.15625 0.15625 z M32.1679625 33.4375 l0 0.85938 l0.078125 0 l0 -0.85938 l-0.078125 0 z M32.1679625 35.7812 l0 0.078125 q0.13671875 1.11328125 0.390625 1.71875 l0.078125 0 q0 -0.13671875 -0.15625 -0.625 l0.078125 0 q-0.234375 -0.52734375 -0.3125 -1.171875 l-0.078125 0 z M33.4179625 37.8906 l0 0.078125 q0.13671875 0.3125 0.3125 0.3125 l0 0.078125 l-0.078125 0.15625 l0.15625 -0.078125 l0.078125 0 l-0.078125 0.15625 l0 0.078125 l0.39063 0.078125 q-0.546875 -0.76171875 -0.78125 -0.859375 z M53.5934375 8.477 q1.3671875 0 0.8984375 4.296875 l-0.80078 9.8633 q-0.078125 0 -0.078125 0.078125 l0.078125 0 l-0.078125 0.13672 q-0.078125 2.79296875 -0.078125 4.19921875 l0 0.078125 l-0.078125 0.13672 l0.078125 0 l-0.078125 0.13672 l0 1.9922 q0 3.203125 0.078125 7.48046875 q0 1.6015625 -0.439453125 2.1484375 t-0.49805 0.54688 l0 -0.078125 q0.078125 -0.13671875 0.078125 -0.1953125 l-0.078125 0 l-0.44922 0.35156 q0 -0.078125 -0.078125 -0.078125 q0 0.078125 -0.078125 0.078125 l0 -0.42969 l0.078125 -0.13672 q-0.078125 0 -0.078125 -0.078125 l0.078125 0 q-0.078125 -0.09765625 -0.078125 -0.4296875 q-0.13671875 0.01953125 -0.13671875 0.13671875 q0 0.078125 0.05859375 0.078125 l-0.058594 0.13672 l0 0.64453 q0 0.13671875 -0.15625 0.13671875 l0.078125 0.15625 l0 0.058594 l-0.39063 0.078125 q-0.21484375 -0.37109375 -0.37109375 -1.34765625 q0 -0.078125 0.078125 -0.078125 q-0.390625 -3.59375 -0.390625 -5.83984375 l0 -0.058594 q-0.15625 -0.3515625 -3.41796875 -0.3515625 l0 0.058594 l-0.15625 -0.058594 l-1.6602 0 q-0.52734375 0 -0.52734375 0.99609375 l-0.46875 2.0508 q0.078125 0 0.078125 0.078125 q-0.1953125 0 -0.37109375 0.91796875 q-0.390625 0.9375 -0.99609375 1.640625 q0.078125 0 0.078125 0.078125 q-0.1953125 0 -0.52734375 0.2734375 q0 -0.15625 -0.3125 -0.21484375 q1.3671875 -2.421875 1.3671875 -4.04296875 q0.1171875 -0.15625 0.3125 -1.50390625 l-0.23438 0 q-0.1953125 0 -0.44921875 1.85546875 q0.078125 0 0.078125 0.05859375 q-0.13671875 0 -0.68359375 2.5 q-0.078125 0 -0.3125 0.703125 q0.078125 0 0.078125 0.078125 q-0.15625 0 -0.52734375 0.78125 l-0.15625 0 l0 -0.078125 q0.44921875 -0.9765625 0.76171875 -2.05078125 l0 -0.078125 q-0.078125 -0.13671875 -0.078125 -0.21484375 l0.15625 0.078125 l-0.078125 -0.29297 l0.37109 -1.6211 l-0.078125 0 q0.15625 -0.44921875 0.91796875 -5.05859375 l-0.078125 0 q0.15625 -0.25390625 0.15625 -0.56640625 l-0.078125 0 q0.13671875 -0.25390625 0.3125 -1.2890625 l-0.078125 0 q1.1328125 -5.9375 2.65625 -9.8828125 q2.36328125 -6.07421875 3.73046875 -7.48046875 l0 0.078125 l-0.15625 0.21484 l0.078125 0 q0.01953125 -0.15625 0.13671875 -0.15625 q0 0.078125 0.078125 0.078125 l0 -0.078125 q-0.078125 0 -0.078125 -0.05859375 q0.52734375 -0.5078125 1.07421875 -0.5078125 l0 -0.13672 l-0.15625 0 l0 -0.078125 q0.1953125 0 1.4453125 -0.78125 q0.3515625 -0.13671875 0.68359375 -0.13671875 z M51.5429375 9.120999999999999 l0.23438 0 l0 0.058594 l-0.46875 0.078125 q0 -0.13671875 0.234375 -0.13671875 z M50.7812375 9.687000000000001 l0 0.078125 q0 0.13671875 -0.15625 0.13671875 l0 -0.078125 q0.01953125 -0.13671875 0.15625 -0.13671875 z M52.9884375 9.824000000000002 q0.09765625 0.29296875 0.37109375 0.4296875 q0 -0.078125 0.078125 -0.21484375 l-0.078125 0 q0 0.078125 -0.078125 0.078125 q0 -0.3515625 -0.13671875 -0.3515625 z M52.5976375 10.175999999999998 l0.46875 1.5039 q0 0.078125 -0.078125 0.078125 l0.078125 0.35156 l0 1.2109 l-0.078125 0.13672 l0.078125 0 q-0.078125 0.13671875 -0.078125 0.21484375 q-0.234375 3.69140625 -0.44921875 4.62890625 l0.058594 0 q-0.17578125 1.42578125 -0.21484375 1.42578125 q0 0.05859375 0.078125 0.05859375 l-0.3125 2.6367 l0.078125 0.13672 q-0.078125 0.13671875 -0.078125 0.29296875 q0.078125 0 0.078125 0.078125 l-0.15625 0 q0.078125 0.1171875 0.078125 0.2734375 l0.078125 0 l0.078125 -0.35156 l-0.078125 0 q0.13671875 -0.5078125 0.3125 -1.77734375 q0 -0.078125 -0.078125 -0.078125 l0.37109 -3.0469 l-0.078125 0 l0.15625 -0.50781 l-0.078125 0 l0.078125 -0.13672 l0 -0.35156 q0 -0.078125 -0.078125 -0.078125 q0.15625 -0.234375 0.15625 -0.4296875 l0 -0.13672 l-0.078125 -0.15625 l0.15625 0 l-0.078125 -0.13672 q0.078125 0 0.078125 -0.05859375 l-0.078125 0 q0.078125 0 0.15625 -1.42578125 q-0.078125 0 -0.078125 -0.078125 q0.15625 0 0.15625 -0.13671875 l0 -0.078125 q0 -0.078125 -0.078125 -0.078125 q0.078125 -0.625 0.13671875 -0.625 q0 -0.078125 -0.05859375 -0.078125 l0.058594 -0.48828 l0 -1.2891 l-0.058594 -0.13672 l0.058594 0 l-0.058594 -0.15625 l0 -0.058594 q0 -0.078125 0.05859375 -0.078125 l-0.29297 -0.85938 q0.078125 0 0.078125 -0.05859375 l-0.078125 0 q0 0.05859375 -0.078125 0.05859375 l-0.078125 -0.27344 l-0.078125 0 z M50.8593375 12.890999999999998 l0.078125 0.13672 q-0.234375 0 -1.15234375 2.34375 q-0.8984375 1.9921875 -2.109375 5.625 q0.05859375 0 0.05859375 0.078125 q-0.234375 0 -0.52734375 1.484375 q-0.09765625 0 -0.21484375 0.64453125 q0.05859375 0 0.05859375 0.078125 q-0.1953125 0 -0.68359375 2.55859375 q-0.29296875 1.23046875 -1.0546875 5.48828125 q0.91796875 -0.21484375 3.046875 -0.21484375 l0.37109 0 l0.91797 0.058594 l0 -0.058594 l0.13672 0.058594 l0.91797 0 l0 -0.78125 q0 -0.05859375 -0.078125 -0.05859375 l0.078125 -0.15625 q0 -2.421875 1.5234375 -16.2109375 q0.078125 0 0.078125 -1.15234375 q0.078125 0 0.078125 -0.05859375 l-0.078125 0 l0.078125 -0.15625 l0 -0.91797 l-0.078125 -0.13672 l0.078125 0 q-0.05859375 -0.1953125 -0.15625 -0.859375 q-0.6640625 0.76171875 -1.3671875 2.20703125 z M49.1797375 13.535 q0 0.1171875 -0.13671875 0.3515625 l0.058594 0 l0.15625 -0.29297 l0 -0.058594 l-0.078125 0 z M48.9648375 13.965 q-1.3671875 3.203125 -1.97265625 4.82421875 q0.05859375 0 0.05859375 0.078125 q-0.21484375 0 -0.52734375 1.34765625 q-1.2890625 3.30078125 -1.81640625 6.97265625 q-0.76171875 3.88671875 -0.76171875 4.55078125 l0.078125 0 q0.37109375 0 0.44921875 -1.40625 q0.078125 0 0.078125 -0.078125 l-0.078125 0 l0.15625 -0.42969 l-0.078125 0 l0.91797 -4.9023 l-0.078125 0 l0.15625 -0.29297 l-0.078125 0 l0.37109 -1.3477 l-0.078125 0 q0.91796875 -3.22265625 2.12890625 -6.40625 q-0.078125 0 -0.078125 -0.078125 q0.21484375 0 0.546875 -1.1328125 q0.25390625 -0.44921875 0.7421875 -1.69921875 l-0.13672 0 z M52.0703375 23.281 l0 0.42969 q0 0.05859375 0.078125 0.05859375 l-0.078125 0.15625 l0 0.13672 l0.15625 0 l0 -0.78125 l-0.15625 0 z M52.0703375 24.141 q0 0.13671875 -0.078125 0.13671875 l0.078125 0.13672 q-0.078125 0.13671875 -0.078125 0.21484375 l0.078125 0.13672 q-0.078125 0.13671875 -0.078125 0.29296875 l0 0.078125 l0.15625 0 l0 -0.99609 l-0.078125 0 z M51.9922375 25.332 q0 0.15625 -0.078125 0.15625 l0.078125 0.13672 l-0.078125 0.13672 q0.078125 0.13671875 0.078125 0.21484375 q-0.078125 0 -0.078125 0.078125 q0.078125 0 0.078125 0.078125 q-0.078125 0 -0.078125 0.05859375 q0.078125 0 0.078125 0.078125 l-0.13672 0 l0 0.058594 l0.13672 0 l0.078125 -0.13672 l0 -0.85938 l-0.078125 0 z M51.8554375 26.758 l0.13672 0.078125 l0 -0.21484 q-0.13671875 0.01953125 -0.13671875 0.13671875 z M51.8359375 36.9727 q0.41015625 2.08984375 0.15625 -9.70703125 l0 -0.29297 q-0.3125 -0.4296875 -0.15625 10 z M51.8554375 38.0078 l0.13672 0.078125 l0 -0.21484 q-0.13671875 0.01953125 -0.13671875 0.13671875 z M51.9140375 38.1445 q0 0.15625 -0.05859375 0.15625 q0.05859375 0.13671875 0.05859375 0.1953125 l0.078125 0 l0 -0.35156 l-0.078125 0 z M62.75388125 6.405999999999999 l0.15625 0 q3.92578125 0 6.5625 4.21875 q1.09375 2.4609375 1.09375 4.765625 l0 0.625 l0.078125 0.15625 q-0.078125 0 -0.078125 0.078125 l0.078125 0 q-0.37109375 2.83203125 -0.859375 4.140625 q-0.7421875 1.69921875 -1.875 3.75 q0.078125 0 0.078125 0.078125 q-0.21484375 0.01953125 -1.484375 2.34375 q-1.34765625 2.109375 -4.0625 4.84375 q-0.60546875 0.44921875 -1.09375 0.78125 q0 0.33203125 3.75 4.0625 l1.6406 0.70313 l-0.078125 0.15625 l0 0.078125 l0.078125 0.15625 l-0.23438 0 l0.078125 0.15625 q-0.3515625 0 -1.640625 0.46875 l-0.078125 0 q-1.40625 0 -3.4375 -2.265625 q-0.8203125 -1.015625 -1.71875 -1.796875 q0 0.76171875 -0.078125 0.78125 l0.078125 0 l-0.078125 0.15625 l0 1.7188 q0 2.65625 -0.46875 2.65625 l-0.625 0.39063 l-0.078125 0 l0.078125 -0.15625 l0 -0.078125 q-0.078125 0 -0.234375 -0.078125 l0 0.23438 l-0.23438 0 q-0.15625 0 -0.15625 -0.15625 l0.078125 0 q-0.078125 -0.78125 -0.15625 -0.78125 l0.078125 -0.15625 q0 -0.078125 -0.078125 -0.078125 l0.078125 -0.15625 l-0.078125 -0.54688 q0.078125 0 0.078125 -0.078125 q-0.078125 0 -0.078125 -0.078125 q0.078125 0 0.078125 -0.078125 q-0.078125 0 -0.078125 -0.078125 l0.078125 0 l-0.078125 -0.15625 l0 -0.54688 l0.078125 -0.15625 q-0.078125 0 -0.078125 -0.078125 q0.078125 0 0.078125 -0.078125 q-0.078125 0 -0.078125 -0.078125 l0.078125 0 l-0.078125 -0.15625 l0 -0.15625 l0.078125 -0.15625 q-0.078125 0 -0.078125 -0.078125 q0.078125 0 0.078125 -0.078125 q-0.078125 0 -0.078125 -0.078125 q0.078125 0 0.078125 -0.078125 l-0.15625 0 l0.078125 -0.15625 l0 -0.078125 q0 -0.078125 -0.078125 -0.078125 l0.078125 -0.15625 l0 -4.2969 q0 -0.078125 -0.078125 -0.078125 l0.078125 -0.15625 l0 -0.078125 q0 -0.078125 -0.078125 -0.078125 q0.078125 -0.703125 0.15625 -0.703125 l-0.078125 -0.15625 l0 -0.39063 q0 -0.078125 0.078125 -0.078125 l-0.078125 -0.15625 l0 -0.15625 l0.078125 -0.15625 q-0.078125 0 -0.078125 -0.078125 q0.078125 0 0.078125 -0.078125 q-0.078125 0 -0.078125 -0.078125 q0.078125 0 0.078125 -0.078125 q-0.078125 0 -0.078125 -0.078125 l0.078125 0 l-0.078125 -0.15625 l0.078125 -0.15625 q-0.078125 0 -0.078125 -0.078125 l0.078125 0 l-0.078125 -0.15625 l0 -1.4844 q0 -0.078125 0.078125 -0.078125 l-0.078125 -0.15625 l0.078125 -0.15625 q-0.078125 0 -0.078125 -0.078125 q0.078125 0 0.078125 -0.078125 l-0.078125 0 l0.078125 -0.15625 l0 -0.3125 q0 -0.078125 -0.078125 -0.078125 l0.078125 -0.15625 l0 -0.15625 l-0.078125 -0.15625 q0.078125 0 0.078125 -0.078125 q-0.078125 0 -0.078125 -0.078125 q0.078125 0 0.078125 -0.078125 l-0.078125 0 l0.078125 -0.15625 l0 -0.625 q0 -0.078125 -0.078125 -0.078125 l0.078125 -0.15625 l0 -3.125 q0 -0.078125 0.078125 -0.078125 l-0.078125 -0.15625 q0 -0.078125 0.078125 -0.078125 l-0.078125 -0.15625 l0 -0.15625 q0 -0.078125 0.078125 -0.078125 l-0.078125 -0.15625 q0 -0.078125 0.078125 -0.078125 l-0.078125 -0.15625 l0 -0.15625 l0.078125 -0.39063 l-0.078125 0 l0.078125 -0.15625 q-0.078125 -0.15625 -0.078125 -0.234375 l0.078125 0 l-0.078125 -0.15625 q0 -0.078125 0.078125 -0.078125 l-0.078125 -0.15625 l0.078125 -0.15625 l-0.078125 0 l0.078125 -0.15625 q0 -0.078125 -0.078125 -0.078125 l0.078125 -0.15625 q0 -0.078125 -0.078125 -0.078125 l0.078125 -0.15625 q0 -0.078125 -0.078125 -0.078125 l0.078125 -0.15625 q0 -0.078125 -0.078125 -0.078125 l0.078125 -0.15625 l0 -1.1719 l0.078125 -0.15625 l-0.078125 0 l0.078125 -0.15625 q0 -0.078125 -0.078125 -0.078125 l0.078125 -0.15625 l-0.078125 -0.15625 q0.078125 -0.15625 0.078125 -0.234375 q-0.078125 0 -0.078125 -0.078125 l0.15625 -0.078125 l-0.078125 -0.15625 l0 -0.3125 l0.078125 -0.15625 l-0.078125 0 l0.078125 -0.15625 l-0.078125 -0.15625 q0.078125 0 0.078125 -0.078125 q-0.078125 0 -0.078125 -0.078125 q0.078125 0 0.078125 -0.078125 q-0.078125 0 -0.078125 -0.078125 q0.078125 0 0.078125 -0.078125 l-0.078125 0 l0.078125 -0.15625 l0 -0.078125 q0 -0.078125 -0.078125 -0.078125 l0.078125 -0.15625 l0 -0.54688 q0 -0.078125 -0.078125 -0.078125 l0.15625 -0.70313 q-0.078125 0 -0.078125 -0.078125 q0.078125 0 0.078125 -0.078125 q-0.078125 0 -0.078125 -0.078125 q0.078125 0 0.078125 -0.078125 q-0.078125 0 -0.078125 -0.078125 q0.078125 0 0.078125 -0.078125 q-0.078125 0 -0.078125 -0.078125 l0.078125 0 l0.15625 0.078125 l0 -0.078125 q-0.15625 -0.078125 -0.234375 -0.078125 l0 -0.078125 q0.234375 0 0.234375 -0.15625 l-0.078125 0 l0.078125 -0.15625 l0 -0.39063 q0 -0.078125 -0.078125 -0.078125 l0.078125 -0.15625 l0 -1.4844 q0 -1.03515625 0.390625 -1.171875 l0.078125 0 q0.5078125 0 0.625 10.625 q0.15625 6.09375 0.234375 14.921875 l1.875 -1.5625 q2.3828125 -2.6171875 4.375 -6.09375 q1.40625 -2.6171875 1.40625 -2.8125 l-0.15625 0.078125 l0 -0.078125 l0.23438 -0.54688 q-0.078125 0 -0.078125 -0.078125 q0.3515625 0 0.9375 -2.8125 q0.3125 -1.07421875 0.3125 -2.65625 q0 -5.72265625 -4.84375 -7.890625 q0 0.078125 -0.078125 0.078125 q0 -0.3125 -1.796875 -0.46875 l-0.23438 0 q-0.33203125 0 -2.1875 0.46875 l0.70313 -0.625 q0.1953125 -0.29296875 0.859375 -0.625 l0 0.078125 q0.80078125 -0.390625 1.71875 -0.390625 z M63.69138125 7.344000000000001 l0 0.078125 q1.85546875 0.83984375 2.421875 1.40625 q-0.078125 0 -0.078125 0.078125 q1.40625 0.9765625 2.578125 3.90625 l-0.078125 0 q0.46875 1.38671875 0.46875 3.515625 l0 0.3125 q0 0.078125 0.078125 0.078125 l-0.078125 0.15625 l0 0.54688 l0.078125 0.15625 q-0.13671875 0 -0.546875 2.421875 q-0.41015625 1.26953125 -1.171875 2.8125 l0 0.078125 q0.09765625 0 0.625 -1.015625 q-0.078125 0 -0.078125 -0.078125 q0.390625 -0.2734375 1.25 -3.203125 q0.078125 -0.48828125 0.234375 -0.9375 l-0.078125 0 q0.078125 -0.17578125 0.234375 -1.171875 q-0.078125 0 -0.078125 -0.078125 q0.078125 0 0.078125 -0.078125 l-0.078125 0 q0.078125 -0.13671875 0.078125 -0.3125 l0.078125 0 l0 0.23438 l0.078125 0 l0 -1.4844 l-0.078125 -0.15625 q0.078125 0 0.078125 -0.078125 l-0.15625 -0.078125 l0.078125 -0.15625 q0 -1.875 -1.640625 -4.453125 q-2.01171875 -2.20703125 -3.515625 -2.421875 q0 -0.15625 -0.46875 -0.15625 q-0.13671875 0.078125 -0.3125 0.078125 z M63.92578125 7.344000000000001 l0.15625 0 q0.15625 0.078125 0.234375 0.078125 l0 0.078125 l-0.15625 0 q-0.15625 -0.078125 -0.234375 -0.078125 l0 -0.078125 z M57.44138125 7.655999999999999 l0.078125 0 l0 0.15625 l0.15625 -0.078125 q0 0.078125 0.078125 0.234375 l-0.078125 0 q0 0.078125 0.078125 0.078125 q-0.078125 1.0546875 -0.078125 1.5625 l0 1.875 q0 0.078125 0.078125 0.078125 q-0.05859375 0.3125 -0.15625 0.3125 l0.078125 0.15625 l0 0.15625 q0 0.078125 -0.078125 0.078125 l0.078125 0.15625 l0 0.70313 q0 0.078125 -0.078125 0.078125 l0.078125 0.15625 q0 0.078125 -0.078125 0.078125 l0.078125 0.15625 l-0.078125 0.39063 q0.078125 0 0.078125 0.078125 q-0.078125 0 -0.078125 0.078125 l0.078125 0 l-0.078125 0.15625 q0 0.078125 0.078125 0.078125 l-0.078125 0.15625 l0.078125 0.15625 l-0.078125 0 l0.078125 0.15625 q-0.078125 0.15625 -0.078125 0.234375 l0.078125 0 l-0.078125 0.15625 l0 0.46875 q0 0.078125 0.078125 0.078125 l-0.078125 0.15625 l0 0.46875 q0 0.078125 0.078125 0.078125 l-0.078125 0.15625 q0 0.078125 0.078125 0.078125 l-0.078125 0.15625 l0 0.39063 q0 0.078125 0.078125 0.078125 l-0.078125 0.15625 q0 0.078125 0.078125 0.078125 l-0.078125 0.15625 q0 0.078125 0.078125 0.078125 q0 0.078125 -0.078125 0.078125 l0.078125 0.39063 l0 0.078125 q0 0.078125 -0.078125 0.078125 q0.078125 0.15625 0.078125 0.234375 l-0.078125 0.15625 q0.078125 0.13671875 0.078125 0.3125 q0 0.078125 -0.078125 0.078125 l0.078125 0.15625 l0 0.39063 q0 0.078125 -0.078125 0.078125 q0.078125 0.15625 0.078125 0.234375 t-0.078125 0.078125 l0.078125 0.39063 l0 0.625 q0 0.078125 0.078125 0.078125 l-0.078125 0.15625 l0 4.6094 q0 0.078125 0.078125 0.078125 l-0.078125 0.15625 l0 3.0469 q0 0.078125 -0.078125 0.078125 l0.078125 0.15625 l0 0.3125 q0 0.078125 -0.078125 0.078125 l0.078125 0.15625 l0 0.78125 q0 0.078125 0.078125 0.078125 l-0.078125 0.15625 l0 1.6406 q0 0.078125 -0.078125 0.078125 l0.078125 0.15625 l0 2.2656 q0 0.078125 -0.078125 0.078125 q0.078125 0.46875 0.15625 0.46875 q-0.078125 0.859375 -0.15625 0.859375 l0.078125 0.15625 l0 1.3281 l-0.078125 0.15625 q0.078125 0 0.078125 0.078125 l-0.078125 0 q0 0.078125 0.078125 0.078125 l-0.078125 0.70313 q0.078125 0.68359375 0.078125 0.859375 l-0.23438 0 q-0.546875 0 -0.546875 -3.515625 l0 -0.54688 q0 -0.078125 -0.078125 -0.078125 l0.078125 -0.15625 l0 -0.85938 q0 -0.078125 -0.078125 -0.078125 l0.078125 -0.15625 l0 -3.5156 q0 -0.078125 -0.078125 -0.078125 l0.078125 -0.15625 l0 -0.85938 q0 -0.078125 -0.078125 -0.078125 q0.078125 -0.15625 0.078125 -0.234375 q0 -2.24609375 0.078125 -10.15625 l0.078125 0 q0 -0.078125 -0.078125 -0.078125 l0.078125 -0.39063 l0 -3.8281 l0.078125 -0.15625 l-0.078125 0 l0.078125 -0.15625 l0 -0.078125 q0 -3.7890625 0.3125 -7.1875 z M66.97278125 22.422 l0 0.078125 q-0.078125 0.13671875 -0.078125 0.3125 l-0.078125 0 l0 -0.3125 z M66.73878125 22.812 l0 0.078125 q0 0.41015625 -0.234375 0.46875 l0 -0.078125 q0.05859375 -0.46875 0.234375 -0.46875 z M66.34778125 23.359 l0.15625 0 l0 0.078125 q-0.234375 0.3515625 -0.234375 0.46875 l-0.078125 0 l0 -0.23438 q0.15625 0 0.15625 -0.3125 z M66.19178125 23.906 l0 0.078125 q-0.078125 0.15625 -0.078125 0.234375 l-0.078125 0 l0 -0.23438 z M65.87878125 24.453 l0 0.078125 q-0.15625 0.25390625 -0.15625 0.390625 l-0.15625 -0.078125 q0.15625 -0.3515625 0.3125 -0.390625 z M65.41018125 25 l0.078125 0 l0 0.3125 l-0.15625 0.078125 l0 -0.078125 q0.078125 -0.13671875 0.078125 -0.3125 z M59.94138125 33.0469 l0 0.078125 q0 0.078125 0.078125 0.078125 l-0.078125 0.15625 l0 0.078125 l0.078125 0 l0 -0.15625 q0.15625 0.01953125 0.15625 0.15625 l0 0.078125 l-0.15625 0 q0 0.1171875 0.234375 0.234375 l0.15625 -0.078125 q0 0.1171875 0.546875 0.546875 l-0.078125 0.15625 l0 0.078125 l0.078125 0 l0 -0.15625 q0.09765625 0 0.859375 0.859375 l0 0.078125 l-0.78125 -0.70313 l0 0.078125 q0.05859375 0 0.703125 0.703125 l0.15625 -0.078125 q1.38671875 1.484375 1.5625 1.484375 q0 -0.078125 0.078125 -0.078125 q0 0.3125 0.859375 0.46875 l0.15625 0 l0 -0.078125 q-0.390625 0 -1.015625 -0.78125 q0 0.078125 -0.078125 0.078125 q0 -0.15625 -0.15625 -0.15625 l0.078125 -0.15625 l-0.23438 0 l0.078125 -0.15625 l-0.078125 0 q0 0.078125 -0.078125 0.078125 l-0.078125 -0.15625 q0.078125 0 0.078125 -0.078125 l-0.078125 0 q0 0.078125 -0.078125 0.078125 q0 -0.3125 -0.3125 -0.3125 l0.078125 -0.15625 q-0.25390625 -0.078125 -0.9375 -0.859375 q0.078125 0 0.078125 -0.078125 q-0.13671875 0 -1.640625 -1.484375 l-0.078125 0 q-0.15625 0.01953125 -0.15625 0.15625 z M64.16018125 37.1875 l0 0.078125 q0.83984375 0.3125 0.9375 0.3125 l0.078125 0 l0 -0.078125 q-0.859375 -0.3125 -0.9375 -0.3125 l-0.078125 0 z M65.33208125 37.4219 l0 0.078125 l0.3125 0 l0 -0.078125 l-0.3125 0 z M76.67969375 8.437000000000001 l0.15625 0.23438 l0 0.078125 q0 0.4296875 -0.546875 1.328125 q0.078125 0 0.078125 0.078125 q-0.3515625 0 -0.546875 1.875 l0 0.23438 l-0.078125 0.15625 l0.078125 0 q0 0.078125 -0.078125 0.078125 q0 2.71484375 2.8125 10.546875 q1.09375 3.4765625 1.09375 6.015625 l0 0.625 q0 4.2578125 -2.65625 7.65625 q-1.15234375 1.42578125 -4.0625 2.34375 q0 0.234375 -1.40625 0.3125 q-0.390625 0 -1.40625 -0.390625 l0 -0.078125 l0.15625 0 l0 -0.078125 l-0.15625 0 q0 0.078125 -0.078125 0.078125 l0 -0.23438 q0.078125 0 0.234375 0.078125 q0.546875 -0.078125 0.546875 -0.234375 l-0.15625 0 l0 -0.15625 q0.46875 -0.1171875 0.46875 -0.390625 l0.46875 0 q1.328125 0 1.71875 -0.625 l0.78125 -0.70313 l0 0.078125 l-0.9375 1.0156 l0.078125 0 q1.23046875 -1.23046875 1.71875 -2.03125 l-0.078125 0 q0 0.15625 -0.15625 0.15625 l0 -0.078125 q0.625 -1.015625 0.703125 -1.015625 q0 0.078125 0.078125 0.078125 l-0.078125 -0.15625 q1.640625 -3.0078125 1.640625 -6.171875 q0 -3.10546875 -2.109375 -8.4375 q-1.5625 -4.296875 -1.5625 -6.40625 l0 -0.15625 l-0.078125 -0.15625 l0.078125 0 l-0.078125 -0.15625 q0 -1.9921875 0.9375 -3.75 q0.15625 0.01953125 0.15625 0.15625 l-0.078125 0.15625 l0.078125 0 q0 -0.1171875 1.5625 -1.484375 q0.29296875 -0.46875 0.703125 -0.46875 z M74.72659375 10.625 q-0.703125 1.2890625 -0.703125 2.421875 l0 0.23438 l-0.078125 0.15625 l0.078125 0 l-0.078125 0.15625 l0 0.46875 q0 2.24609375 1.25 5.625 l0.078125 0 l-0.078125 0.15625 q2.5 6.5625 2.5 9.140625 q0.078125 0 0.078125 0.078125 l-0.078125 0 l0.078125 0.15625 l0 1.0156 q0 0.078125 -0.078125 0.078125 q0 0.078125 0.078125 0.078125 q-0.078125 0.5859375 -0.15625 0.78125 l0.078125 0 l-0.15625 0.70313 l0.078125 0 q-0.15625 0.390625 -0.15625 0.546875 l0.078125 0 l-0.15625 0.3125 q0.078125 0 0.078125 0.078125 l-0.078125 0 l0.078125 0.15625 q0 0.0390625 -0.078125 0.3125 l0 0.078125 l0.078125 0 l0.3125 -1.3281 q-0.078125 0 -0.078125 -0.078125 q0.15625 0 0.15625 -0.15625 l-0.078125 0 l0.078125 -0.15625 l0 -0.15625 l-0.078125 -0.15625 q0.15625 0 0.234375 -1.015625 q-0.078125 0 -0.078125 -0.078125 q0.078125 0 0.078125 -0.078125 l-0.078125 0 q0.078125 -0.859375 0.15625 -0.859375 q-0.078125 -0.703125 -0.15625 -0.703125 l0.078125 -0.15625 q-0.078125 -0.13671875 -0.078125 -0.3125 q0.078125 0 0.078125 -0.078125 l-0.15625 -0.078125 q0 -0.078125 0.078125 -0.078125 q0 -0.13671875 -0.15625 -0.625 q0.078125 0 0.078125 -0.078125 l-0.15625 0 q0 -0.078125 0.078125 -0.078125 q-0.078125 -0.703125 -0.234375 -1.015625 q0.15625 -0.078125 0.234375 -0.078125 l0 -0.078125 l-0.15625 0 q0 0.078125 -0.078125 0.078125 q0 -0.390625 -0.15625 -0.390625 l0.078125 -0.15625 l-0.15625 -0.078125 l0.078125 -0.15625 l-0.078125 -0.15625 l0.15625 -0.078125 q0 0.078125 0.078125 0.078125 q-0.15625 -0.3125 -0.15625 -0.46875 l-0.078125 0 l0 0.15625 q-0.15625 0 -0.15625 -0.15625 q0.078125 0 0.078125 -0.078125 l-0.15625 0 l0.078125 -0.15625 q-0.15625 0 -0.15625 -0.15625 l0 -0.078125 q0 -0.15625 0.234375 -0.15625 q-0.15625 -0.3125 -0.15625 -0.46875 l-0.078125 0 l0 0.078125 l0.078125 0.39063 l-0.15625 0 l0.078125 -0.15625 q-0.21484375 0 -0.3125 -0.78125 l0.15625 0 l0 0.23438 l0.15625 0 l0 -0.15625 l0.078125 0 l0 0.23438 l-0.15625 0 l0 0.078125 l0.15625 0 q0 -0.078125 0.078125 -0.078125 q0.29296875 1.25 0.46875 1.25 l0 -0.078125 q-0.078125 0 -0.078125 -0.078125 q0.078125 0 0.078125 -0.078125 l-0.15625 -0.078125 l0.078125 -0.15625 l0 -0.078125 l-0.15625 0 l0 -0.078125 q0 -0.078125 0.078125 -0.078125 q-0.1953125 -0.60546875 -0.3125 -0.78125 q0.078125 0 0.078125 -0.078125 l-0.15625 0 l0.078125 -0.15625 l-0.15625 -0.078125 l0.078125 -0.15625 l0 -0.078125 l-0.15625 0 q0 -0.078125 0.078125 -0.078125 q-0.15625 -0.78125 -0.390625 -0.78125 l0.078125 -0.15625 q-0.15625 -0.48828125 -0.3125 -0.703125 l0.078125 0 q-0.078125 -0.15625 -0.078125 -0.234375 l-0.23438 0 q0.234375 0.48828125 0.46875 1.328125 q-0.15625 0.01953125 -0.15625 0.15625 l0.15625 -0.078125 l0.078125 0 l0 0.15625 l-0.15625 0 l0 0.078125 l0.15625 0 q0 -0.078125 0.078125 -0.078125 l0.078125 0.15625 l-0.078125 0 l0.078125 0.15625 l0 0.23438 l-0.15625 -0.078125 l0 0.078125 l0.15625 0.078125 q0 -0.078125 0.078125 -0.078125 l0.078125 0.39063 q-0.15625 0 -0.15625 -0.234375 q-0.1953125 0.15625 -0.234375 0.15625 l0 -0.078125 l0.078125 -0.15625 q-0.15625 0 -0.390625 -0.625 q0.078125 0 0.078125 -0.078125 q-0.13671875 0 -0.46875 -1.171875 q-0.078125 0 -0.078125 -0.078125 q0.078125 0 0.078125 -0.078125 q-0.078125 0 -0.625 -1.484375 l0.078125 0 q-0.46875 -1.2109375 -0.46875 -1.40625 q0.078125 0 0.078125 -0.078125 q-0.17578125 0 -0.3125 -0.78125 q0.078125 0 0.078125 -0.078125 q-0.15625 0 -0.15625 -0.15625 l0.078125 -0.15625 l-0.15625 0 l0.078125 -0.15625 l-0.078125 0 q0 -0.078125 0.078125 -0.078125 l-0.23438 -1.1719 l0.078125 -0.15625 q-0.078125 -0.390625 -0.15625 -0.390625 l0.078125 -0.15625 q0 -0.078125 -0.078125 -0.078125 l0.078125 -0.15625 q0 -0.078125 -0.078125 -0.078125 l0.078125 -0.15625 l-0.078125 -0.15625 q0.078125 -0.15625 0.078125 -0.234375 l-0.078125 0 l0.078125 -0.15625 q0 -0.078125 -0.078125 -0.078125 l0.078125 -0.15625 l0 -0.078125 q0 -0.078125 -0.078125 -0.078125 q0.15625 -1.3671875 0.546875 -2.421875 l0 -0.078125 l-0.078125 0 z M75.27339375 17.891 l0 0.078125 q0.15625 0 0.15625 -0.15625 l0 -0.078125 q-0.15625 0.01953125 -0.15625 0.15625 z M75.42969375 18.437 l0 0.078125 q0.15625 0 0.15625 -0.15625 l0 -0.078125 q-0.15625 0.01953125 -0.15625 0.15625 z M75.27339375 18.672 q0.078125 0.13671875 0.078125 0.3125 l0.078125 0 l0 -0.23438 z M75.50779375 18.75 l0.078125 0.15625 l0 0.15625 l-0.15625 0 l0 0.078125 l0.15625 0 q0 -0.078125 0.078125 -0.078125 q0.0390625 0.625 0.3125 0.625 q-0.078125 0.15625 -0.078125 0.234375 q0 0.234375 0.234375 0.234375 l-0.078125 0.15625 q0.078125 0.15625 0.078125 0.234375 l0.15625 0 l0 -0.15625 l-0.15625 0 l0.078125 -0.15625 q-0.078125 -0.13671875 -0.078125 -0.3125 l-0.15625 0.078125 l0 -0.15625 q0 -0.078125 0.078125 -0.078125 q0 -0.234375 -0.234375 -0.234375 l0.078125 -0.15625 q-0.15625 0 -0.15625 -0.15625 q0.078125 0 0.078125 -0.078125 q-0.15625 0 -0.15625 -0.15625 q0.078125 0 0.078125 -0.078125 q-0.078125 0 -0.078125 -0.078125 q0.078125 0 0.078125 -0.078125 l-0.078125 0 q0 0.078125 -0.078125 0.078125 q0 -0.078125 -0.078125 -0.078125 z M76.13279375 21.094 l0 0.15625 q0.17578125 0.46875 0.3125 0.46875 q-0.234375 -0.44921875 -0.234375 -0.625 l-0.078125 0 z M76.52339375 22.344 q0.078125 0.15625 0.078125 0.234375 l0.15625 0 q-0.078125 -0.15625 -0.078125 -0.234375 l-0.15625 0 z M77.22659375 24.219 l0 0.23438 l0.15625 0.078125 q-0.078125 -0.13671875 -0.078125 -0.3125 l-0.078125 0 z M77.38279375 24.766 l0 0.23438 q-0.15625 0 -0.15625 -0.15625 z M77.61719375 24.844 l0 0.23438 q0.15625 0 0.15625 -0.15625 z M74.72659375 36.4844 l0 0.078125 q0 0.1171875 -0.234375 0.234375 l0 -0.078125 q0 -0.1171875 0.234375 -0.234375 z M74.49219375 36.7969 l0 0.078125 q0 0.1171875 -0.234375 0.234375 l0 -0.078125 q0 -0.1171875 0.234375 -0.234375 z M76.05469375 37.9687 l-0.39063 0.39063 l0.078125 0 q0.390625 -0.3515625 0.390625 -0.390625 l-0.078125 0 z"></path></svg>